<svg width="31" height="30" viewBox="0 0 31 30" fill="none" xmlns="http://www.w3.org/2000/svg">
<g clip-path="url(#clip0_280_55)">
<path d="M17.4723 12.0283H18.6044V10.7547H19.7365V9.62262H21.0101V8.34904V7.21696V5.94338V4.8113V3.53772H19.7365V4.8113H18.6044V5.94338H17.4723V7.21696H16.1987V8.34904V9.62262V10.7547V12.0283V13.1604H17.4723V12.0283Z" fill="#3FA9F5"/>
<path d="M11.3874 10.7547H12.661V12.0283H13.793V13.1604H15.0666V12.0283V10.7547V9.62262V8.34904V7.21696H13.793V5.94338H12.661V4.8113H11.3874V3.53772H10.2553V4.8113V5.94338V7.21696V8.34904V9.62262H11.3874V10.7547Z" fill="#3FA9F5"/>
<path d="M13.793 17.9717H12.661V19.1038H11.3874V20.3774H10.2553V21.5094V22.783V23.9151V25.1887V26.3208H11.3874V25.1887H12.661V23.9151H13.793V22.783H15.0666V21.5094V20.3774V19.1038V17.9717V16.8396H13.793V17.9717Z" fill="#3FA9F5"/>
<path d="M19.7365 19.1038H18.6044V17.9717H17.4723V16.8396H16.1987V17.9717V19.1038V20.3774V21.5094V22.783H17.4723V23.9151H18.6044V25.1887H19.7365V26.3208H21.0101V25.1887V23.9151V22.783V21.5094V20.3774H19.7365V19.1038Z" fill="#3FA9F5"/>
<path d="M12.661 13.1604V12.0283H11.3874V10.7547H10.2553V9.62262H8.98173H7.84965H6.57607H5.44399H4.17041V10.7547H5.44399V12.0283H6.57607V13.1604H7.84965V14.4339H8.98173H10.2553H11.3874H12.661H13.7931V13.1604H12.661Z" fill="#3FA9F5"/>
<path d="M17.4723 15.5661V14.434H16.1988V13.1604H15.0667V14.434H13.7931V15.5661H15.0667V16.8396H16.1988V15.5661H17.4723Z" fill="#FF0000"/>
<path d="M6.57611 8.34908H7.84969H8.98177V7.217V5.94342H7.84969V4.81134H6.57611V5.94342H5.44403V7.217H6.57611V8.34908Z" fill="#FCEE21"/>
<path d="M24.5478 8.34908V7.217H25.8214V5.94342H24.5478V4.81134H23.4157V5.94342H22.1422V7.217V8.34908H23.4157H24.5478Z" fill="#FCEE21"/>
<path d="M24.5478 21.5094H23.4157H22.1422V22.783V23.9151H23.4157V25.1887H24.5478V23.9151H25.8214V22.783H24.5478V21.5094Z" fill="#FCEE21"/>
<path d="M6.57611 21.5094V22.783H5.44403V23.9151H6.57611V25.1887H7.84969V23.9151H8.98177V22.783V21.5094H7.84969H6.57611Z" fill="#FCEE21"/>
<path d="M11.3874 19.1038V17.9717H12.661V16.8396H13.7931V15.566H12.661H11.3874H10.2553H8.98173H7.84965V16.8396H6.57607V17.9717H5.44399V19.1038H4.17041V20.3774H5.44399H6.57607H7.84965H8.98173H10.2553V19.1038H11.3874Z" fill="#3FA9F5"/>
<path d="M25.8213 17.9717H24.5478V16.8396H23.4157V15.566H22.1421H21.01H19.7364H18.6044H17.4723V16.8396H18.6044V17.9717H19.7364V19.1038H21.01V20.3774H22.1421H23.4157H24.5478H25.8213H26.9534V19.1038H25.8213V17.9717Z" fill="#3FA9F5"/>
<path d="M19.7364 10.7547V12.0283H18.6044V13.1604H17.4723V14.4339H18.6044H19.7364H21.01H22.1421H23.4157V13.1604H24.5478V12.0283H25.8213V10.7547H26.9534V9.62262H25.8213H24.5478H23.4157H22.1421H21.01V10.7547H19.7364Z" fill="#3FA9F5"/>
<path d="M4.17043 17.9717V16.8396H5.44401V15.5661H6.57609V14.434H5.44401V13.1604H4.17043V12.0283H3.03835V13.1604H1.76477V14.434H0.63269V15.5661H1.76477V16.8396H3.03835V17.9717H4.17043Z" fill="#FF0000"/>
<path d="M17.4723 25.1887H16.1987V23.9151H15.0667V25.1887H13.7931V26.3208H12.661V27.5943H13.7931V28.7264H15.0667V30H16.1987V28.7264H17.4723V27.5943H18.6044V26.3208H17.4723V25.1887Z" fill="#FF0000"/>
<path d="M29.3591 14.434V13.1604H28.227V12.0283H26.9535V13.1604H25.8214V14.434H24.5478V15.5661H25.8214V16.8396H26.9535V17.9717H28.227V16.8396H29.3591V15.5661H30.6327V14.434H29.3591Z" fill="#FF0000"/>
<path d="M13.7931 4.81132H15.0667V5.9434H16.1987V4.81132H17.4723V3.53774H18.6044V2.40566H17.4723V1.13208H16.1987V0H15.0667V1.13208H13.7931V2.40566H12.661V3.53774H13.7931V4.81132Z" fill="#FF0000"/>
</g>
<defs>
<clipPath id="clip0_280_55">
<rect width="30" height="30" fill="white" transform="translate(0.63269)"/>
</clipPath>
</defs>
</svg>
