<svg viewBox="0 0 512 512" xmlns="http://www.w3.org/2000/svg" xmlns:xlink="http://www.w3.org/1999/xlink">
	<path class="st0" d="M462,300.6c-3.1-1.2-6.6,0.3-7.8,3.3c-1.2,3.1,0.3,6.6,3.3,7.8c26.6,10.6,41.2,22.9,41.2,34.5
		c0,15.3-25.6,31.5-68.5,43.6C383.8,402.8,321.9,410,256,410s-127.8-7.2-174.3-20.2c-40.7-11.4-65.8-26.7-68.3-41.2l0-4.8
		c2.6-14.8,28.3-30.1,69.9-41.6c3.2-0.9,5.1-4.2,4.2-7.4c-0.9-3.2-4.2-5.1-7.4-4.2c-65.2,18-78.9,40.1-78.9,55.6
		c0,1.1,0.1,2.1,0.2,3.2l-0.2,76.4c0,0,0,0,0,0c0,0,0,0,0,0c0,16.9,15.7,32,46.6,44.7c27.9,11.5,66.6,20.4,112,25.7
		c0.2,0,0.5,0,0.7,0c3,0,5.6-2.3,6-5.3c0.4-3.3-2-6.3-5.3-6.7c-101.7-11.9-148-38.6-148-58.5l0.2-55.3
		c12.5,11.8,34.4,22.2,65.1,30.8C126,414.6,189,422,256,422s130-7.3,177.5-20.7c30.9-8.7,52.8-19.1,65.2-31v55.5
		c0,15.3-25.6,31.5-68.5,43.6c-46.5,13-108.4,20.2-174.3,20.2c-27.2,0-54-1.2-79.5-3.7c-3.3-0.3-6.2,2.1-6.5,5.4
		c-0.3,3.3,2.1,6.2,5.4,6.5c25.9,2.5,53.1,3.7,80.7,3.7c67,0,130-7.3,177.5-20.7c50.5-14.2,77.2-33.2,77.2-55.1v-79.7
		C510.8,328.8,494.4,313.5,462,300.6z"/>
	<path class="st0" d="M444.8,306.7c2.5,0,4.9-1.6,5.7-4.1c1-3.1-0.7-6.5-3.8-7.6c-47.9-15.7-117.4-24.7-190.7-24.7
		c-58.1,0-114.7,5.7-159.5,16.1c-3.2,0.7-5.2,4-4.5,7.2s4,5.2,7.2,4.5c43.9-10.2,99.6-15.8,156.8-15.8c72,0,140.2,8.8,187,24.1
		C443.6,306.6,444.2,306.7,444.8,306.7z"/>
	<path class="st0" d="M132.3,321.7c0.3,0,0.6,0,1-0.1c15-2.4,31-4.4,47.5-5.9c3.3-0.3,5.7-3.2,5.4-6.5c-0.3-3.3-3.2-5.7-6.5-5.4
		c-16.8,1.5-33,3.5-48.3,6c-3.3,0.5-5.5,3.6-5,6.9C126.8,319.6,129.4,321.7,132.3,321.7z"/>
	<path class="st0" d="M103,327.3c4.7-1,9.6-2.1,14.6-3c3.3-0.6,5.4-3.8,4.8-7c-0.6-3.3-3.8-5.4-7-4.8c-5.1,1-10.1,2-14.9,3.1
		c-3.2,0.7-5.3,3.9-4.6,7.2c0.6,2.8,3.1,4.7,5.9,4.7C102.1,327.5,102.5,327.4,103,327.3z"/>
	<path class="st0" d="M105.3,376.4C148.7,367,200.8,362,256,362c55.2,0,107.3,5,150.8,14.4c0.4,0.1,0.9,0.1,1.3,0.1
		c2.8,0,5.2-1.9,5.9-4.7c0.7-3.2-1.4-6.4-4.6-7.1C365.1,355.1,312,350,256,350c-56,0-109,5.1-153.3,14.7c-3.2,0.7-5.3,3.9-4.6,7.1
		C98.8,375.1,102,377.1,105.3,376.4z"/>
	<path class="st0" d="M233.2,461.8c3.3,0,6-2.7,6-6s-2.7-6-6-6h-14.7c-3.3,0-6,2.7-6,6s2.7,6,6,6H233.2z"/>
	<path class="st0" d="M263.3,461.8c3.3,0,6-2.7,6-6s-2.7-6-6-6h-14.7c-3.3,0-6,2.7-6,6s2.7,6,6,6H263.3z"/>
	<path class="st0" d="M294.3,461.8c3.3,0,6-2.7,6-6s-2.7-6-6-6h-14.7c-3.3,0-6,2.7-6,6s2.7,6,6,6H294.3z"/>
	<path class="st0" d="M271.9,64.4c39.2-18.1,76-31.1,106.4-37.5l15.5-2.8c28.3-4.1,47-0.8,52.8,9.3c7.6,13.2-6.4,40.1-37.5,72
		C375.3,139.9,325.3,177,268.2,210c-20.6,11.9-41.5,22.9-62.1,32.6c-3,1.4-4.3,5-2.9,8c1,2.2,3.2,3.4,5.4,3.4c0.9,0,1.7-0.2,2.6-0.6
		c20.8-9.8,42-21,62.9-33c58-33.5,108.9-71.4,143.4-106.7c22.4-22.9,36.2-43,41-59.4l27.7,48.1c6,10.4-1.6,29.8-20.8,53.4
		c-2.1,2.6-1.7,6.3,0.9,8.4c1.1,0.9,2.5,1.4,3.8,1.4c1.7,0,3.5-0.8,4.7-2.2c23.2-28.4,30.8-51.6,21.9-67l-39.8-69
		c-8.7-15-30.5-20.1-65-15.1l-15.9,2.8l-0.2,0c-31.3,6.6-69,19.9-109,38.4c-3,1.4-4.3,5-2.9,8C265.3,64.5,268.9,65.8,271.9,64.4z"/>
	<path class="st0" d="M16.7,283.4l3.5,6c1.1,1.9,3.1,3,5.2,3c1,0,2-0.3,3-0.8c2.9-1.6,3.9-5.3,2.2-8.2l-5.5-9.6
		c-5.2-14.1,9.4-40.2,39.7-70.9l11.8-11.5c33-30.8,78.4-63.4,127.9-92c18.1-10.4,36.4-20.2,54.4-28.9c3-1.4,4.2-5,2.8-8
		c-1.4-3-5-4.2-8-2.8c-18.3,8.9-36.9,18.7-55.2,29.3c-50.3,29-96.5,62.3-130.1,93.7l-12,11.7l-0.1,0.1C8.7,242.7,8,268.7,15.7,282.1
		C16,282.6,16.3,283,16.7,283.4z"/>
	<path class="st0" d="M149,156.2c-13.8,9.7-26.8,19.6-38.9,29.3c-2.6,2.1-3,5.9-0.9,8.4c1.2,1.5,2.9,2.2,4.7,2.2
		c1.3,0,2.7-0.4,3.8-1.3c11.8-9.6,24.6-19.3,38.2-28.8c2.7-1.9,3.4-5.6,1.5-8.4C155.4,154.9,151.7,154.3,149,156.2z"/>
	<path class="st0" d="M105.5,205c2.5-2.2,2.8-6,0.6-8.5c-2.2-2.5-6-2.8-8.5-0.6c-3.9,3.4-7.8,6.8-11.4,10.1c-2.4,2.2-2.6,6-0.4,8.5
		c1.2,1.3,2.8,1.9,4.4,1.9c1.4,0,2.9-0.5,4.1-1.6C97.9,211.7,101.7,208.4,105.5,205z"/>
	<path class="st0" d="M139.2,238.7c1.3,0,2.7-0.4,3.8-1.3c29.1-23.6,64.1-47.5,101.3-68.9c47.8-27.6,95.4-49.3,137.8-62.9
		c3.2-1,4.9-4.4,3.9-7.5c-1-3.2-4.4-4.9-7.5-3.9c-43.2,13.8-91.6,35.9-140.1,63.9c-37.7,21.8-73.3,46-102.8,70
		c-2.6,2.1-3,5.9-0.9,8.4C135.7,238,137.5,238.7,139.2,238.7z"/>
	<path class="st0" d="M123.4,238.1c-3.6,3.1-7.2,6.3-10.6,9.4c-2.5,2.2-2.6,6-0.4,8.5c1.2,1.3,2.8,2,4.4,2c1.4,0,2.9-0.5,4-1.6
		c3.3-3,6.8-6.1,10.4-9.1c2.5-2.2,2.8-5.9,0.6-8.5C129.8,236.2,126,235.9,123.4,238.1z"/>
	<path class="st0" d="M464.4,175.3c2.2-2.4,2.1-6.2-0.4-8.5c-2.4-2.2-6.2-2.1-8.5,0.4c-23.5,25.6-57.2,53.4-97.3,80.4
		c-2.7,1.9-3.5,5.6-1.6,8.3c1.2,1.7,3.1,2.7,5,2.7c1.2,0,2.3-0.3,3.3-1C405.9,230.1,440.3,201.6,464.4,175.3z"/>
	<path class="st0" d="M390.2,189.5c1.4,0,2.8-0.5,3.9-1.5l44.7-38.7c2.5-2.2,2.8-6,0.6-8.5c-2.2-2.5-6-2.8-8.5-0.6L386.3,179
		c-2.5,2.2-2.8,6-0.6,8.5C386.9,188.8,388.6,189.5,390.2,189.5z"/>
	<path class="st0" d="M366.2,207.8c1.3,0,2.6-0.4,3.7-1.3l12-9.3c2.6-2,3.1-5.8,1.1-8.4c-2-2.6-5.8-3.1-8.4-1.1l-12,9.3
		c-2.6,2-3.1,5.8-1.1,8.4C362.7,207,364.4,207.8,366.2,207.8z"/>
	<path class="st0" d="M341.2,224.8c1.2,0,2.4-0.4,3.5-1.1l12.7-9c2.7-1.9,3.3-5.7,1.4-8.4c-1.9-2.7-5.7-3.3-8.4-1.4l-12.7,9
	c-2.7,1.9-3.3,5.7-1.4,8.4C337.5,224,339.4,224.8,341.2,224.8z"/>
</svg>