<svg viewBox="0 0 512.001 512.001" xmlns="http://www.w3.org/2000/svg" xmlns:xlink="http://www.w3.org/1999/xlink">
	<path d="M508.691,102.645c-4.69-6.632-12.967-9.211-20.591-6.418l-125.493,45.947c-31.312-30.686-88.626-78.495-143.921-81.112
		c-27.261-1.287-54.876,6.956-84.395,25.211c-28.489,17.618-54.426,42.297-71.458,59.328
		c-31.041,31.042-51.568,70.202-59.359,113.244c-7.611,42.048-2.662,84.908,14.313,123.946c1.549,3.564,5.531,5.388,9.242,4.236
		c12.252-3.805,25.612-0.952,35.266,7.074l-21.249,16.833c-3.177,2.517-3.826,7.08-1.476,10.382
		c6.963,9.788,14.79,19.048,23.263,27.521c1.472,1.472,3.422,2.23,5.388,2.23c1.474,0,2.957-0.427,4.252-1.301l6.683-4.505
		c56.764-38.254,109.994-82.285,158.212-130.87c12.751-12.848,25.17-26.053,37.257-39.57l51.126-18.24
		c0.082-0.029,0.165-0.061,0.247-0.093c70.605-27.992,133.5-73.731,181.883-132.272
		C513.06,117.952,513.385,109.283,508.691,102.645z M155.532,368.902c-6.927-6.98-13.551-14.036-19.682-21.002
		c-2.779-3.156-7.59-3.463-10.746-0.684c-3.156,2.779-3.463,7.59-0.685,10.746c6.034,6.854,12.526,13.785,19.301,20.648
		c-23.467,18.985-47.828,37.01-73.074,54.025l-1.397,0.941c-4.568-4.864-8.908-9.974-12.976-15.276l22.069-17.483
		c1.584-1.254,2.602-3.085,2.836-5.091c0.232-2.006-0.341-4.022-1.595-5.605c-11.988-15.131-31.511-22.406-50.266-19.256
		c-13.791-34.674-17.55-72.325-10.856-109.306c5.296-29.255,16.934-56.577,34.096-80.432c-0.74,6.078-1.15,12.917-0.981,20.476
		c1.232,54.914,31.844,105.185,57.309,137.688c1.502,1.917,3.74,2.919,5.999,2.919c1.643,0,3.298-0.529,4.69-1.62
		c3.311-2.593,3.891-7.38,1.298-10.69c-23.806-30.385-52.507-77.173-54.043-127.517c-0.908-29.705,8.244-46.961,8.436-47.315
		c0.112-0.202,0.209-0.407,0.302-0.614c0.202-0.088,0.403-0.183,0.6-0.29c0.089-0.049,9.099-4.904,25.221-7.243
		c14.898-2.161,39.114-2.554,69.868,7.846c0.808,0.274,1.63,0.403,2.44,0.403c3.175,0,6.138-2.002,7.212-5.177
		c1.347-3.984-0.79-8.305-4.774-9.653c-32.173-10.88-58.205-11.189-76.585-8.569c12.817-11.373,27.453-23.084,42.751-32.544
		c26.818-16.583,51.572-24.091,75.666-22.951c51.059,2.416,107.126,50.695,132.894,75.719c-16.263,24.22-33.454,47.637-51.54,70.23
		c-31.19-30.724-62.687-54.124-93.669-69.538c-3.768-1.873-8.337-0.339-10.209,3.426c-1.873,3.766-0.339,8.336,3.425,10.209
		c29.88,14.864,60.418,37.67,90.798,67.767C249.188,283.14,204.382,328.167,155.532,368.902z M496.143,114.516
		c-46.726,56.535-107.458,100.715-175.635,127.768l-25.561,9.119c25.305-30.038,48.943-61.501,70.68-94.118l127.71-46.757
		c1.495-0.548,2.414,0.194,2.922,0.912C496.769,112.161,497.164,113.281,496.143,114.516z"/>
</svg>