<svg viewBox="0 0 20000 20000" xmlns="http://www.w3.org/2000/svg" xmlns:xlink="http://www.w3.org/1999/xlink">
	<path style="fill-rule:evenodd;" d="M20000 10000c0,-5523 -4477,-10000 -10000,-10000 -5523,0 -10000,4477 -10000,10000 0,5523 4477,10000 10000,10000 5523,0 10000,-4477 10000,-10000zm-15613 -4427c-274,0 -498,224 -498,498l0 7858c-1,274 224,499 498,499l11226 0c274,0 499,-225 499,-499l0 -7858c0,-274 -225,-498 -499,-498l-11226 0zm1329 1194l8565 0 -4282 3741 -4283 -3741 0 0zm9399 595l0 5528 -3132 -2792 3132 -2736zm-10230 3l3145 2749 -3145 2803 0 -5552zm6342 3394l2979 2656 -8381 0 2962 -2640 883 771c188,164 468,164 656,0l901 -787z"/>
</svg>