<svg width="40" height="40" viewBox="0 0 40 40" fill="none" xmlns="http://www.w3.org/2000/svg">
<g clip-path="url(#clip0_704_215)">
<path d="M20 38.6668C30.3093 38.6668 38.6666 30.3095 38.6666 20.0002C38.6666 9.69085 30.3093 1.3335 20 1.3335C9.69066 1.3335 1.33331 9.69085 1.33331 20.0002C1.33331 30.3095 9.69066 38.6668 20 38.6668Z" stroke="#6F6F6F" stroke-width="2" stroke-miterlimit="10" stroke-linecap="round" stroke-linejoin="round"/>
<path d="M33.3334 12.0002C33.3334 10.5335 32.1334 9.3335 30.6667 9.3335H9.33335C7.86669 9.3335 6.66669 10.5335 6.66669 12.0002V28.0002C6.66669 29.4668 7.86669 30.6668 9.33335 30.6668H30.6667C32.1334 30.6668 33.3334 29.4668 33.3334 28.0002V12.0002ZM30.6667 12.0002L20 18.6668L9.33335 12.0002H30.6667ZM30.6667 28.0002H9.33335V14.6668L20 21.3335L30.6667 14.6668V28.0002Z" fill="#6F6F6F"/>
</g>
<defs>
<clipPath id="clip0_704_215">
<rect width="40" height="40" fill="white"/>
</clipPath>
</defs>
</svg>
