<?xml version="1.0" encoding="utf-8"?>
<!-- Generator: Adobe Illustrator 22.0.0, SVG Export Plug-In . SVG Version: 6.00 Build 0)  -->
<svg version="1.1" xmlns="http://www.w3.org/2000/svg" xmlns:xlink="http://www.w3.org/1999/xlink" x="0px" y="0px"
	 viewBox="0 0 100 100" style="enable-background:new 0 0 100 100;" xml:space="preserve">
<g id="Layer_1">
</g>
<g id="Layer_2">
	<path d="M50,0C22.4,0,0,22.4,0,50c0,27.6,22.4,50,50,50s50-22.4,50-50C100,22.4,77.6,0,50,0z M81.6,81.6C73.1,90,61.9,94.7,50,94.7
		S26.9,90,18.4,81.6C10,73.1,5.3,61.9,5.3,50S10,26.9,18.4,18.4C26.9,10,38.1,5.3,50,5.3c11.9,0,23.1,4.6,31.6,13.1
		S94.7,38.1,94.7,50S90,73.1,81.6,81.6z M82,50c0,1.5-1.2,2.7-2.7,2.7H45.7l8.7,8.5c1.1,1,1.1,2.7,0,3.8c-0.5,0.5-1.2,0.8-1.9,0.8
		c-0.7,0-1.3-0.3-1.9-0.8L37.3,51.9c0,0-0.1-0.1-0.1-0.1c0-0.1-0.1-0.1-0.1-0.2c0-0.1-0.1-0.1-0.1-0.2c0-0.1-0.1-0.1-0.1-0.2
		c0-0.1-0.1-0.1-0.1-0.2c0,0,0-0.1-0.1-0.1c0,0,0,0,0,0c0-0.1,0-0.1-0.1-0.2c0-0.1,0-0.1-0.1-0.2c0-0.1,0-0.1,0-0.2
		c0-0.1,0-0.1,0-0.2c0-0.1,0-0.1,0-0.2c0-0.1,0-0.1,0-0.2c0-0.1,0-0.1,0-0.2c0-0.1,0-0.1,0-0.2c0-0.1,0-0.1,0.1-0.2
		c0-0.1,0-0.1,0.1-0.2c0,0,0,0,0,0c0,0,0-0.1,0.1-0.1c0-0.1,0.1-0.1,0.1-0.2c0-0.1,0.1-0.1,0.1-0.2c0-0.1,0.1-0.1,0.1-0.2
		c0-0.1,0.1-0.1,0.1-0.2c0,0,0.1-0.1,0.1-0.1L50.7,35c1.1-1,2.7-1,3.8,0c1,1.1,1,2.7,0,3.8l-8.7,8.5h33.6C80.8,47.3,82,48.5,82,50z
		 M68.6,63.4v10.3c0,1.3-1,2.4-2.3,2.6l-37.1,5.5c-0.1,0-0.3,0-0.4,0c-0.6,0-1.3-0.2-1.7-0.6c-0.6-0.5-0.9-1.2-0.9-2V20.9
		c0-0.8,0.3-1.5,0.9-2c0.6-0.5,1.4-0.7,2.1-0.6l37.1,5.5c1.3,0.2,2.3,1.3,2.3,2.6v10.3c0,1.5-1.2,2.7-2.7,2.7s-2.7-1.2-2.7-2.7v-8
		L31.4,24v52l31.8-4.7v-8c0-1.5,1.2-2.7,2.7-2.7S68.6,61.9,68.6,63.4z"/>
</g>
</svg>
