<svg viewBox="0 0 748 748.74951" xmlns="http://www.w3.org/2000/svg" xmlns:xlink="http://www.w3.org/1999/xlink">
		<path d="M 565.59375 215.796875 L 590.550781 190.84375 L 608.199219 208.488281 L 583.242188 233.445312 Z M 565.59375 215.796875 " />
		<path d="M 515.679688 165.878906 L 540.632812 140.925781 L 558.28125 158.574219 L 533.328125 183.527344 Z M 515.679688 165.878906 " />
		<path d="M 161.09375 727.449219 C 189.492188 755.847656 235.539062 755.847656 263.949219 727.449219 L 633.15625 358.242188 C 638.023438 353.363281 638.023438 345.472656 633.15625 340.59375 L 604.542969 311.980469 L 745.46875 171.054688 C 750.339844 166.179688 750.339844 158.28125 745.46875 153.410156 L 595.714844 3.65625 C 590.84375 -1.21875 582.945312 -1.21875 578.070312 3.65625 L 437.144531 144.582031 L 408.53125 115.96875 C 403.65625 111.097656 395.757812 111.097656 390.882812 115.96875 L 21.675781 485.175781 C -6.726562 513.582031 -6.726562 559.632812 21.675781 588.03125 Z M 586.894531 30.128906 L 719 162.230469 L 699.207031 182.023438 L 567.105469 49.917969 Z M 549.453125 67.566406 L 681.558594 199.667969 L 586.894531 294.335938 L 454.789062 162.230469 Z M 39.320312 502.824219 L 399.707031 142.441406 L 606.683594 349.421875 L 246.300781 709.804688 C 227.644531 728.457031 197.394531 728.457031 178.738281 709.804688 L 39.320312 570.386719 C 20.667969 551.730469 20.667969 521.484375 39.320312 502.824219 Z M 39.320312 502.824219 " />
		<path d="M 353.4375 228.273438 L 378.390625 203.324219 L 396.042969 220.972656 L 371.085938 245.921875 Z M 353.4375 228.273438 " />
		<path d="M 253.597656 328.117188 L 328.476562 253.246094 L 346.121094 270.894531 L 271.246094 345.769531 Z M 253.597656 328.117188 " />
</svg>