<svg viewBox="0 0 20000 20000" xmlns="http://www.w3.org/2000/svg" xmlns:xlink="http://www.w3.org/1999/xlink">
	<path d="M10000 20000c5514,0 10000,-4486 10000,-10000 0,-5514 -4486,-10000 -10000,-10000 -5514,0 -10000,4486 -10000,10000 0,5514 4486,10000 10000,10000zm0 -18750c4825,0 8750,3925 8750,8750 0,4825 -3925,8750 -8750,8750 -4825,0 -8750,-3925 -8750,-8750 0,-4825 3925,-8750 8750,-8750z" />
	<path d="M6580 11796l1307 -568 -367 368c-118,117 -183,277 -183,442l0 2445c0,560 676,832 1066,442l1312 -1312 2858 1430c370,185 818,-35 895,-448l1630 -8968c86,-482 -389,-872 -843,-694l-10597 4148c-475,185 -538,835 -108,1109l2445 1560c175,112 396,129 585,46l0 0zm7088 -5289l-1280 7046 -2517 -1258c-244,-122 -533,-71 -721,118l-563 563 0 -678 2506 -2505c485,-486 -61,-1288 -691,-1015l-4014 1741 -1129 -720 8409 -3292z" />
</svg>