<svg xmlns="http://www.w3.org/2000/svg" xmlns:xlink="http://www.w3.org/1999/xlink" x="0px" y="0px"
   viewBox="0 0 496 496">
   <path d="M266.688,107.072c65.52,2.176,124.48,62.576,123.68,126.736c-0.112,8.848,6.976,16.096,15.808,16.208 c0.064,0,0.144,0,0.208,0c8.736,0,15.888-7.024,16-15.808c1.024-82.016-71.232-156.352-154.624-159.104
   c-8.736-0.72-16.224,6.64-16.528,15.456C250.944,99.392,257.856,106.784,266.688,107.072z" />
   <path d="M262.928,160.304c40.752,4.816,73.648,38.896,73.328,75.984c-0.08,8.848,7.024,16.064,15.856,16.144
   c0.048,0,0.096,0,0.144,0c8.768,0,15.92-7.072,16-15.856c0.448-52.928-45.12-101.392-101.584-108.048
   c-8.72-1.104-16.72,5.232-17.76,14.016C247.888,151.312,254.16,159.28,262.928,160.304z" />
   <path d="M399.632,309.408l-4.608-3.52c-8.4-6.624-17.184-12.64-25.68-18.448l-5.664-3.888
   c-15.584-10.72-30.416-14.848-44.016-12.256c-12.784,2.432-23.872,10.512-32.944,23.984c-2.144,3.152-4.176,6.176-13.456,2.048
   c-16.256-7.216-30.288-16.352-41.712-27.152l-27.984-39.872c-4.72-11.04-2.144-14.352,4.272-18.624
   c8.096-5.408,24.928-16.656,23.68-39.216c-1.264-22.768-46.256-82.944-67.76-90.672c-9.792-3.536-20-3.616-30.352-0.16
   c-23.392,7.728-40.256,21.6-48.736,40.128c-8.128,17.76-7.792,38.304,0.96,59.36c44.784,107.872,124.8,186.752,237.824,234.464
   c5.824,2.464,11.792,3.76,15.744,4.64l2.704,0.608c1.472,0.4,3.008,0.544,4.528,0.544c32.816,0,66.256-29.536,75.872-56.272
   C433.312,334.608,412.224,318.832,399.632,309.408z M392.176,354.256c-6.112,17.008-28.08,34.144-44.416,35.072
   c-0.544-0.112-1.12-0.24-1.744-0.384c-3.12-0.688-7.008-1.536-10.112-2.848c-105.024-44.336-179.28-117.44-220.736-217.264
   c-5.232-12.624-5.728-24.288-1.392-33.744c4.688-10.224,14.944-18.208,29.696-23.072c1.856-0.608,3.536-0.928,5.12-0.928
   c1.424,0,2.768,0.256,4.096,0.752c11.2,5.152,44.944,50.288,46.88,62.416c0.16,2.608-0.432,4.768-9.472,10.8
   c-12.096,8.064-30.144,26.528-15.088,59.776c0.4,0.912,0.896,1.76,1.472,2.576l29.776,42.432c0.592,0.832,1.248,1.616,1.968,2.32
   c14.32,13.872,31.84,25.44,52.032,34.416c21.456,9.6,40.784,4.72,52.992-13.392c4.128-6.144,8.288-9.648,12.368-10.432
   c6.192-1.168,14.224,3.264,19.888,7.168l5.744,3.936c8.112,5.536,16.24,11.088,23.936,17.168c1.712,1.36,3.488,2.672,5.248,4
   C394.064,345.232,394.704,347.264,392.176,354.256z" />
   <path d="M362.944,0H133.056C60.928,0,0,60.944,0,133.056v229.872C0,435.056,60.928,496,133.056,496h229.888
   C435.056,496,496,435.056,496,362.912V133.056C496,60.944,435.072,0,362.944,0z M464,362.912
   c0,54.784-46.272,101.072-101.056,101.072H133.056C78.288,463.984,32,417.712,32,362.912V133.056C32,78.288,78.288,32,133.056,32
   h229.888C417.712,32,464,78.272,464,133.056V362.912z" />
</svg>