<svg width="36" height="36" viewBox="0 0 36 36" fill="none" xmlns="http://www.w3.org/2000/svg">
<path d="M35.5504 14.2449H31.702C31.502 14.2449 31.3311 14.1123 31.2727 13.9234C31.0119 13.0782 30.6747 12.2668 30.2679 11.498C30.1735 11.3226 30.2027 11.1068 30.3443 10.9675L33.0665 8.24527C33.2418 8.06769 33.2418 7.78445 33.0665 7.60912L28.3909 2.9335C28.2155 2.75816 27.9323 2.75816 27.757 2.9335L25.0325 5.6557C24.8932 5.79732 24.6774 5.82654 24.502 5.73213C23.7333 5.32526 22.9218 4.98807 22.0766 4.72732C21.8877 4.66887 21.7551 4.49803 21.7551 4.29797V0.449579C21.7551 0.200062 21.555 0 21.3055 0H14.6967C14.4472 0 14.2471 0.200062 14.2471 0.449579V4.29797C14.2471 4.49803 14.1145 4.66887 13.9257 4.72732C13.0782 4.98807 12.2668 5.32526 11.498 5.73213C11.3226 5.82654 11.1091 5.79732 10.9675 5.6557L8.24527 2.9335C8.06993 2.75816 7.78445 2.75816 7.60912 2.9335L2.93575 7.60912C2.76041 7.78445 2.76041 8.06769 2.93575 8.24527L5.65795 10.9675C5.79956 11.1068 5.82879 11.3226 5.73437 11.498C5.32751 12.2668 4.98807 13.0782 4.72957 13.9234C4.67112 14.1123 4.49803 14.2449 4.30022 14.2449H0.449579C0.20231 14.2449 0 14.445 0 14.6945V21.3033C0 21.5528 0.20231 21.7529 0.449579 21.7529H4.30022C4.49803 21.7529 4.67112 21.8855 4.72957 22.0743C4.98807 22.9218 5.32751 23.7333 5.73437 24.502C5.82879 24.6774 5.79956 24.8909 5.65795 25.0325L2.93575 27.7547C2.76041 27.9301 2.76041 28.2155 2.93575 28.3909L7.60912 33.0643C7.78445 33.2396 8.06993 33.2396 8.24527 33.0643L10.9675 30.3421C11.1091 30.2004 11.3226 30.1735 11.498 30.2656C12.2668 30.6747 13.0782 31.0119 13.9257 31.2704C14.1145 31.3289 14.2471 31.502 14.2471 31.6998V35.5504C14.2471 35.7977 14.4472 36 14.6967 36H21.3055C21.555 36 21.7551 35.7977 21.7551 35.5504V31.6998C21.7551 31.502 21.8877 31.3289 22.0766 31.2704C22.9218 31.0119 23.7333 30.6747 24.502 30.2656C24.6774 30.1735 24.8932 30.2004 25.0325 30.3421L27.757 33.0643C27.9323 33.2396 28.2155 33.2396 28.3909 33.0643L33.0665 28.3909C33.2418 28.2155 33.2418 27.9301 33.0665 27.7547L30.3443 25.0325C30.2027 24.8909 30.1735 24.6774 30.2679 24.502C30.6747 23.7333 31.0119 22.9218 31.2727 22.0743C31.3311 21.8855 31.502 21.7529 31.702 21.7529H35.5504C35.7999 21.7529 36 21.5528 36 21.3033V14.6945C36 14.445 35.7999 14.2449 35.5504 14.2449ZM18.0011 25.889C13.6447 25.889 10.111 22.3553 10.111 17.9989C10.111 13.6425 13.6447 10.111 18.0011 10.111C22.3575 10.111 25.889 13.6425 25.889 17.9989C25.889 22.3553 22.3575 25.889 18.0011 25.889Z" fill="#274B74"/>
</svg>
