<svg viewBox="0 0 512 512" xmlns="http://www.w3.org/2000/svg" xmlns:xlink="http://www.w3.org/1999/xlink">
	<path d="M346.6,121.9l-6.7-6.7c-2.8-2.8-7.2-2.8-10,0c-2.8,2.8-2.8,7.2,0,10l6.7,6.7c2.8,2.8,7.2,2.8,10,0
		C349.4,129.2,349.4,124.7,346.6,121.9z"/>
	<path d="M224,236.2c-2.8-2.8-7.2-2.8-10,0l-5.8,5.8c-2.8,2.8-2.8,7.2,0,10s7.2,2.8,10,0l5.8-5.8C226.7,243.5,226.7,239,224,236.2z"
		/>
	<path d="M203.1,257.1c-2.8-2.8-7.2-2.8-10,0l-82.6,82.6c-2.8,2.8-2.8,7.2,0,10c2.8,2.8,7.2,2.8,10,0l82.6-82.6
		C205.9,264.4,205.9,259.9,203.1,257.1z"/>
	<path d="M477,216.7l-32-32c24.8-1,44-21.9,43-46.7c-0.5-11.3-5.1-22-13.1-29.9c-15.4-15.2-39.4-17.4-57.2-5.2l-10.5-10.5
			c5.2,2.1,10.8,3.1,16.4,3.1c22.5,0,43.1-18.1,45.9-40.3l7.6-48.3c0.4-2.4-0.4-4.8-2.1-6.5l0,0c-1.7-1.7-4.1-2.4-6.4-2.1l-48.9,7.5
			C397.3,8.7,379,29.1,379,51.4c0,5.4,1,10.8,3,15.9l-4.3-4.3c-12.6-12.6-33.2-13-45.8-0.4L35.7,358.8c-15.6,15.4-15.7,40.5-0.3,56.1
			c0,0,0,0,0,0l87.3,87.3c15.6,15.5,40.7,15.4,56.2-0.2l249.7-249.7c2.3-2.3,3.3-5.1,1.4-8.5l26.5-26.5l9.9,9.9
			c2.9,2.9,7.6,2.9,10.5,0C479.9,224.3,479.9,219.6,477,216.7z M446,206.8l-26.4,26.4L388,201.6l26.4-26.4L446,206.8z M464.3,118.7
			c11.7,11.7,11.7,30.7,0,42.4c-10.4,10.4-26.9,11.7-38.9,3l21.6-21.6c2.8-2.6,3-7,0.3-9.8c-0.1-0.1-0.2-0.2-0.3-0.3l-18.7-18.7
			C440.2,107.2,454.8,109.2,464.3,118.7z M394,51.4c0-14.6,12.9-28.9,27.7-30.7c0.1,0,0.2,0,0.2,0l38.9-6l-6,38.4c0,0.1,0,0.2,0,0.2
			c-1.8,14.6-16.4,27.4-31.2,27.4c-7.9,0-15.5-3.1-21.1-8.7C397,66.5,393.9,59.1,394,51.4L394,51.4z M342.5,73.1
			c6.8-6.8,17.9-6.3,24.7,0.4l63.9,63.9L377.5,191L301,114.6L342.5,73.1z M168.4,491.5c-9.6,9.7-25.3,9.8-35,0.2c0,0,0,0,0,0
			L46,404.4c-9.6-9.7-9.5-25.4,0.2-35c0,0,0,0,0.1-0.1l181-181l18,18c2.9,2.9,7.6,2.9,10.5,0c2.9-2.9,2.9-7.6,0-10.5l-18-18
			l52.7-52.7l57.1,57.1L294.9,235l-19.8-19.8c-2.9-2.9-7.6-2.9-10.5,0c-2.9,2.9-2.9,7.6,0,10.5l19.8,19.8l-167,167
			c-2.9,2.9-2.9,7.6,0,10.5c2.9,2.9,7.6,2.9,10.5,0l0,0l167-167l54.5,54.5L168.4,491.5z M359.9,300l-54.5-54.5l52.7-52.7l54.5,54.5
			L359.9,300z"/>
</svg>