<svg width="100" height="50" viewBox="0 0 100 50" fill="none" xmlns="http://www.w3.org/2000/svg">
<g clip-path="url(#clip0_263_1523)">
<g clip-path="url(#clip1_263_1523)">
<path d="M15.6667 16.9019L8.43311 24.1355V16.9019H15.6667Z" fill="#4976B3"/>
<path d="M16.1608 17.4312V24.6648H8.92725L16.1608 17.4312Z" fill="#4976B3"/>
<path d="M7.23359 16.9019L0 24.1355V16.9019H7.23359Z" fill="#4976B3"/>
<path d="M7.72773 17.4312V24.6648H0.494141L7.72773 17.4312Z" fill="#4976B3"/>
<path d="M15.6667 33.0981H8.43311V25.8645L15.6667 33.0981Z" fill="#4976B3"/>
<path d="M16.1608 25.3705V32.6041L8.92725 25.3705H16.1608Z" fill="#4976B3"/>
<path d="M7.23359 25.3705L0 32.6041V25.3705H7.23359Z" fill="#4976B3"/>
<path d="M7.72773 25.8645V33.0981H0.494141L7.72773 25.8645Z" fill="#4976B3"/>
<path d="M15.6667 33.8038L8.43311 41.0374V33.8038H15.6667Z" fill="#4976B3"/>
<path d="M16.1608 34.3331V41.5667H8.92725L16.1608 34.3331Z" fill="#4976B3"/>
<path d="M0 34.3331L7.23359 41.5667H0V34.3331Z" fill="#4976B3"/>
<path d="M7.72773 33.8038V41.0374L0.494141 33.8038H7.72773Z" fill="#4976B3"/>
<path d="M8.43311 50V42.7664L15.6667 50H8.43311Z" fill="#4976B3"/>
<path d="M16.1608 42.2724V49.506L8.92725 42.2724H16.1608Z" fill="#4976B3"/>
<path d="M0 42.2724H7.23359L0 49.506V42.2724Z" fill="#4976B3"/>
<path d="M0.494141 50L7.72773 42.7664V50H0.494141Z" fill="#4976B3"/>
<path d="M83.1334 33.8038L75.9351 41.0374V33.8038H83.1334Z" fill="#4170B5"/>
<path d="M76.4292 41.5667L83.6628 34.3331V41.5667H76.4292Z" fill="#4976B3"/>
<path d="M75.2292 33.8038V41.0374L67.9956 33.8038H75.2292Z" fill="#4976B3"/>
<path d="M15.6667 7.72761H8.43311V0.494019L15.6667 7.72761Z" fill="#4976B3"/>
<path d="M16.8667 8.96259L24.1003 16.1962H16.8667V8.96259Z" fill="#4976B3"/>
<path d="M33.0274 8.96259V16.1962H25.8291L33.0274 8.96259Z" fill="#4976B3"/>
<path d="M24.5943 16.9019V24.1355L17.396 16.9019H24.5943Z" fill="#4976B3"/>
<path d="M25.2998 24.1355V16.9019H32.5334L25.2998 24.1355Z" fill="#4976B3"/>
<path d="M7.23359 0L0 7.23359V0H7.23359Z" fill="#706F6F"/>
<path d="M7.72773 0.494019V7.72761H0.494141L7.72773 0.494019Z" fill="#4976B3"/>
<path d="M15.6667 8.46857L8.43311 15.7022V8.46857H15.6667Z" fill="#4976B3"/>
<path d="M16.1608 8.96259V16.1962H8.92725L16.1608 8.96259Z" fill="#4976B3"/>
<path d="M7.72773 8.46857V15.7022L0.494141 8.46857H7.72773Z" fill="#4976B3"/>
<path d="M7.23359 16.1962H0V8.96259L7.23359 16.1962Z" fill="#4976B3"/>
<path d="M49.4 16.9019L42.2017 24.1355V16.9019H49.4Z" fill="#4976B3"/>
<path d="M49.8941 17.4312V24.6648H42.6958L49.8941 17.4312Z" fill="#4976B3"/>
<path d="M40.967 16.9019L33.7334 24.1355V16.9019H40.967Z" fill="#4976B3"/>
<path d="M41.461 17.4312V24.6648H34.2627L41.461 17.4312Z" fill="#4976B3"/>
<path d="M49.4 33.0981H42.2017V25.8645L49.4 33.0981Z" fill="#4976B3"/>
<path d="M49.8941 25.3705V32.6041L42.6958 25.3705H49.8941Z" fill="#4976B3"/>
<path d="M40.967 25.3705L33.7334 32.6041V25.3705H40.967Z" fill="#4976B3"/>
<path d="M41.461 25.8645V33.0981H34.2627L41.461 25.8645Z" fill="#4976B3"/>
<path d="M42.2017 33.8038H49.4L42.2017 41.0374V33.8038Z" fill="#4976B3"/>
<path d="M42.6958 41.5667L49.8941 34.3331V41.5667H42.6958Z" fill="#4976B3"/>
<path d="M40.967 41.5667H33.7334V34.3331L40.967 41.5667Z" fill="#4976B3"/>
<path d="M41.461 41.0374L34.2627 33.8038H41.461V41.0374Z" fill="#4976B3"/>
<path d="M49.4 50H42.2017V42.7664L49.4 50Z" fill="#4976B3"/>
<path d="M66.2667 33.0981H59.0684V25.8645L66.2667 33.0981Z" fill="#4976B3"/>
<path d="M49.8941 42.2724V49.506L42.6958 42.2724H49.8941Z" fill="#4976B3"/>
<path d="M40.967 42.2724L33.7334 49.506V42.2724H40.967Z" fill="#4976B3"/>
<path d="M41.461 42.7664V50H34.2627L41.461 42.7664Z" fill="#4976B3"/>
<path d="M83.1334 16.9019L75.9351 24.1355V16.9019H83.1334Z" fill="#4976B3"/>
<path d="M75.2292 16.9019V24.1355L67.9956 16.9019H75.2292Z" fill="#4976B3"/>
<path d="M83.1334 33.0981H75.9351V25.8645L83.1334 33.0981Z" fill="#4976B3"/>
<path d="M74.7003 25.3705L67.502 32.6041V25.3705H74.7003Z" fill="#4976B3"/>
<path d="M75.2292 25.8645V33.0981H67.9956L75.2292 25.8645Z" fill="#4976B3"/>
<path d="M58.3625 0V7.23359L51.1289 0H58.3625Z" fill="#4976B3"/>
<path d="M66.7961 8.46857V15.7022L59.5625 8.46857H66.7961Z" fill="#4976B3"/>
<path d="M57.8336 8.46857L50.6353 15.7022V8.46857H57.8336Z" fill="#4976B3"/>
<path d="M58.3625 8.96259V16.1962H51.1289L58.3625 8.96259Z" fill="#4976B3"/>
<path d="M66.2667 16.9019L59.0684 24.1355V16.9019H66.2667Z" fill="#4976B3"/>
<path d="M66.7961 17.4312V24.6648H59.5625L66.7961 17.4312Z" fill="#4976B3"/>
<path d="M50.6353 17.4312L57.8336 24.6648H50.6353V17.4312Z" fill="#4976B3"/>
<path d="M57.8336 7.72761H50.6353V0.494019L57.8336 7.72761Z" fill="#4976B3"/>
<path d="M50.6353 34.3331L57.8336 41.5667H50.6353V34.3331Z" fill="#4976B3"/>
<path d="M66.2667 16.1962H59.0684V8.96259L66.2667 16.1962Z" fill="#4976B3"/>
<path d="M66.7961 25.3705V32.6041L59.5625 25.3705H66.7961Z" fill="#4976B3"/>
<path d="M57.8336 25.3705L50.6353 32.6041V25.3705H57.8336Z" fill="#4976B3"/>
<path d="M58.3625 25.8645V33.0981H51.1289L58.3625 25.8645Z" fill="#4976B3"/>
<path d="M66.2667 42.2724L59.0684 49.506V42.2724H66.2667Z" fill="#4976B3"/>
<path d="M58.3625 24.1355L51.1289 16.9019H58.3625V24.1355Z" fill="#4976B3"/>
<path d="M66.7961 41.0374L59.5625 33.8038H66.7961V41.0374Z" fill="#4976B3"/>
<path d="M58.3625 41.0374L51.1289 33.8038H58.3625V41.0374Z" fill="#4976B3"/>
<path d="M58.3625 42.7664V50H51.1289L58.3625 42.7664Z" fill="#4976B3"/>
<path d="M66.2667 7.72761H59.0684V0.494019L66.2667 7.72761Z" fill="#4976B3"/>
<path d="M100.035 50H92.8018V42.7664L100.035 50Z" fill="#4976B3"/>
<path d="M84.3682 42.7664L91.6018 50H84.3682V42.7664Z" fill="#4976B3"/>
<path d="M84.3682 34.3331L91.6018 41.5667H84.3682V34.3331Z" fill="#4976B3"/>
<path d="M76.4292 7.72761L83.6628 0.494019V7.72761H76.4292Z" fill="#4976B3"/>
<path d="M83.1334 16.1962H75.9351V8.96259L83.1334 16.1962Z" fill="#4976B3"/>
<path d="M49.4 7.72761H42.2017V0.494019L49.4 7.72761Z" fill="#4976B3"/>
<path d="M49.8941 0V7.23359L42.6958 0H49.8941Z" fill="#4976B3"/>
<path d="M41.461 0.494019V7.72761H34.2627L41.461 0.494019Z" fill="#4976B3"/>
<path d="M49.4 8.46857L42.2017 15.7022V8.46857H49.4Z" fill="#4976B3"/>
<path d="M49.8941 16.1962H42.6958L49.8941 8.96259V16.1962Z" fill="#4976B3"/>
<path d="M100.035 7.72761H92.8018V0.494019L100.035 7.72761Z" fill="#4976B3"/>
<path d="M84.3682 0.494019L91.6018 7.72761H84.3682V0.494019Z" fill="#4976B3"/>
<path d="M92.0959 0V7.23359L84.8623 0H92.0959Z" fill="#4976B3"/>
<path d="M84.3682 8.46857H91.6018L84.3682 15.7022V8.46857Z" fill="#4976B3"/>
<path d="M41.461 8.46857V15.7022L34.2627 8.46857H41.461Z" fill="#4976B3"/>
<path d="M33.7334 8.96259L40.967 16.1962H33.7334V8.96259Z" fill="#4976B3"/>
</g>
</g>
<defs>
<clipPath id="clip0_263_1523">
<rect width="100" height="50" fill="white"/>
</clipPath>
<clipPath id="clip1_263_1523">
<rect width="100.035" height="50" fill="white"/>
</clipPath>
</defs>
</svg>
