<svg width="61" height="30" viewBox="0 0 61 30" fill="none" xmlns="http://www.w3.org/2000/svg">
<g clip-path="url(#clip0_212_1613)">
<path d="M9.40021 10.1411L5.06006 14.4813V10.1411H9.40021Z" fill="white"/>
<path d="M9.6966 10.4587V14.7989H5.35645L9.6966 10.4587Z" fill="white"/>
<path d="M4.34016 10.1411L0 14.4813V10.1411H4.34016Z" fill="white"/>
<path d="M4.63654 10.4587V14.7989H0.296387L4.63654 10.4587Z" fill="white"/>
<path d="M9.40021 19.8589H5.06006V15.5187L9.40021 19.8589Z" fill="white"/>
<path d="M9.6966 15.2223V19.5624L5.35645 15.2223H9.6966Z" fill="white"/>
<path d="M4.34016 15.2223L0 19.5624V15.2223H4.34016Z" fill="white"/>
<path d="M4.63654 15.5187V19.8589H0.296387L4.63654 15.5187Z" fill="white"/>
<path d="M9.40021 20.2823L5.06006 24.6224V20.2823H9.40021Z" fill="white"/>
<path d="M9.6966 20.5999V24.94H5.35645L9.6966 20.5999Z" fill="white"/>
<path d="M0 20.5999L4.34016 24.94H0V20.5999Z" fill="white"/>
<path d="M4.63654 20.2823V24.6224L0.296387 20.2823H4.63654Z" fill="white"/>
<path d="M5.06006 30V25.6599L9.40021 30H5.06006Z" fill="white"/>
<path d="M9.6966 25.3635V29.7036L5.35645 25.3635H9.6966Z" fill="white"/>
<path d="M0 25.3635H4.34016L0 29.7036V25.3635Z" fill="white"/>
<path d="M0.296387 30L4.63654 25.6599V30H0.296387Z" fill="white"/>
<path d="M49.88 20.2823L45.561 24.6224V20.2823H49.88Z" fill="white"/>
<path d="M45.8574 24.94L50.1976 20.5999V24.94H45.8574Z" fill="white"/>
<path d="M45.1375 20.2823V24.6224L40.7974 20.2823H45.1375Z" fill="white"/>
<path d="M9.40021 4.63657H5.06006V0.296417L9.40021 4.63657Z" fill="white"/>
<path d="M10.1201 5.37756L14.4603 9.71772H10.1201V5.37756Z" fill="white"/>
<path d="M19.8165 5.37756V9.71772H15.4976L19.8165 5.37756Z" fill="white"/>
<path d="M14.7565 10.1411V14.4813L10.4375 10.1411H14.7565Z" fill="white"/>
<path d="M15.1802 14.4813V10.1411H19.5203L15.1802 14.4813Z" fill="white"/>
<path d="M4.34016 0L0 4.34016V0H4.34016Z" fill="white"/>
<path d="M4.63654 0.296417V4.63657H0.296387L4.63654 0.296417Z" fill="white"/>
<path d="M9.40021 5.08115L5.06006 9.4213V5.08115H9.40021Z" fill="white"/>
<path d="M9.6966 5.37756V9.71772H5.35645L9.6966 5.37756Z" fill="white"/>
<path d="M4.63654 5.08115V9.4213L0.296387 5.08115H4.63654Z" fill="white"/>
<path d="M4.34016 9.71772H0V5.37756L4.34016 9.71772Z" fill="white"/>
<path d="M29.6403 10.1411L25.3213 14.4813V10.1411H29.6403Z" fill="white"/>
<path d="M29.9367 10.4587V14.7989H25.6177L29.9367 10.4587Z" fill="white"/>
<path d="M24.5799 10.1411L20.2397 14.4813V10.1411H24.5799Z" fill="white"/>
<path d="M24.8766 10.4587V14.7989H20.5576L24.8766 10.4587Z" fill="white"/>
<path d="M29.6403 19.8589H25.3213V15.5187L29.6403 19.8589Z" fill="white"/>
<path d="M29.9367 15.2223V19.5624L25.6177 15.2223H29.9367Z" fill="white"/>
<path d="M24.5799 15.2223L20.2397 19.5624V15.2223H24.5799Z" fill="white"/>
<path d="M24.8766 15.5187V19.8589H20.5576L24.8766 15.5187Z" fill="white"/>
<path d="M25.3213 20.2823H29.6403L25.3213 24.6224V20.2823Z" fill="white"/>
<path d="M25.6177 24.94L29.9367 20.5999V24.94H25.6177Z" fill="white"/>
<path d="M24.5799 24.94H20.2397V20.5999L24.5799 24.94Z" fill="white"/>
<path d="M24.8766 24.6224L20.5576 20.2823H24.8766V24.6224Z" fill="white"/>
<path d="M29.6403 30H25.3213V25.6599L29.6403 30Z" fill="white"/>
<path d="M39.7599 19.8589H35.4409V15.5187L39.7599 19.8589Z" fill="white"/>
<path d="M29.9367 25.3635V29.7036L25.6177 25.3635H29.9367Z" fill="white"/>
<path d="M24.5799 25.3635L20.2397 29.7036V25.3635H24.5799Z" fill="white"/>
<path d="M24.8766 25.6599V30H20.5576L24.8766 25.6599Z" fill="white"/>
<path d="M49.88 10.1411L45.561 14.4813V10.1411H49.88Z" fill="white"/>
<path d="M45.1375 10.1411V14.4813L40.7974 10.1411H45.1375Z" fill="white"/>
<path d="M49.88 19.8589H45.561V15.5187L49.88 19.8589Z" fill="white"/>
<path d="M44.82 15.2223L40.501 19.5624V15.2223H44.82Z" fill="white"/>
<path d="M45.1375 15.5187V19.8589H40.7974L45.1375 15.5187Z" fill="white"/>
<path d="M35.0174 0V4.34016L30.6772 0H35.0174Z" fill="white"/>
<path d="M40.0775 5.08115V9.4213L35.7373 5.08115H40.0775Z" fill="white"/>
<path d="M34.6998 5.08115L30.3809 9.4213V5.08115H34.6998Z" fill="white"/>
<path d="M35.0174 5.37756V9.71772H30.6772L35.0174 5.37756Z" fill="white"/>
<path d="M39.7599 10.1411L35.4409 14.4813V10.1411H39.7599Z" fill="white"/>
<path d="M40.0775 10.4587V14.7989H35.7373L40.0775 10.4587Z" fill="white"/>
<path d="M30.3809 10.4587L34.6998 14.7989H30.3809V10.4587Z" fill="white"/>
<path d="M34.6998 4.63657H30.3809V0.296417L34.6998 4.63657Z" fill="white"/>
<path d="M30.3809 20.5999L34.6998 24.94H30.3809V20.5999Z" fill="white"/>
<path d="M39.7599 9.71772H35.4409V5.37756L39.7599 9.71772Z" fill="white"/>
<path d="M40.0775 15.2223V19.5624L35.7373 15.2223H40.0775Z" fill="white"/>
<path d="M34.6998 15.2223L30.3809 19.5624V15.2223H34.6998Z" fill="white"/>
<path d="M35.0174 15.5187V19.8589H30.6772L35.0174 15.5187Z" fill="white"/>
<path d="M39.7599 25.3635L35.4409 29.7036V25.3635H39.7599Z" fill="white"/>
<path d="M35.0174 14.4813L30.6772 10.1411H35.0174V14.4813Z" fill="white"/>
<path d="M40.0775 24.6224L35.7373 20.2823H40.0775V24.6224Z" fill="white"/>
<path d="M35.0174 24.6224L30.6772 20.2823H35.0174V24.6224Z" fill="white"/>
<path d="M35.0174 25.6599V30H30.6772L35.0174 25.6599Z" fill="white"/>
<path d="M39.7599 4.63657H35.4409V0.296417L39.7599 4.63657Z" fill="white"/>
<path d="M60.0213 30H55.6812V25.6599L60.0213 30Z" fill="white"/>
<path d="M50.6211 25.6599L54.9612 30H50.6211V25.6599Z" fill="white"/>
<path d="M50.6211 20.5999L54.9612 24.94H50.6211V20.5999Z" fill="white"/>
<path d="M45.8574 4.63657L50.1976 0.296417V4.63657H45.8574Z" fill="white"/>
<path d="M49.88 9.71772H45.561V5.37756L49.88 9.71772Z" fill="white"/>
<path d="M29.6403 4.63657H25.3213V0.296417L29.6403 4.63657Z" fill="white"/>
<path d="M29.9367 0V4.34016L25.6177 0H29.9367Z" fill="white"/>
<path d="M24.8766 0.296417V4.63657H20.5576L24.8766 0.296417Z" fill="white"/>
<path d="M29.6403 5.08115L25.3213 9.4213V5.08115H29.6403Z" fill="white"/>
<path d="M29.9367 9.71772H25.6177L29.9367 5.37756V9.71772Z" fill="white"/>
<path d="M60.0213 4.63657H55.6812V0.296417L60.0213 4.63657Z" fill="white"/>
<path d="M50.6211 0.296417L54.9612 4.63657H50.6211V0.296417Z" fill="white"/>
<path d="M55.2576 0V4.34016L50.9175 0H55.2576Z" fill="white"/>
<path d="M50.6211 5.08115H54.9612L50.6211 9.4213V5.08115Z" fill="white"/>
<path d="M24.8766 5.08115V9.4213L20.5576 5.08115H24.8766Z" fill="white"/>
<path d="M20.2397 5.37756L24.5799 9.71772H20.2397V5.37756Z" fill="white"/>
</g>
<defs>
<clipPath id="clip0_212_1613">
<rect width="60.0212" height="30" fill="white"/>
</clipPath>
</defs>
</svg>
