<svg width="40" height="40" viewBox="0 0 40 40" fill="none" xmlns="http://www.w3.org/2000/svg">
<g clip-path="url(#clip0_704_200)">
<path d="M19.9336 1.3291C9.70101 1.3291 1.32892 9.16963 1.32892 18.8706C1.32892 24.452 4.11962 29.369 8.37211 32.6912L8.77078 37.7411C8.77078 38.4055 9.56812 38.8042 9.96679 38.4055L14.618 35.6148C16.3455 36.1464 18.0731 36.4122 19.9336 36.4122C30.1661 36.4122 38.5382 28.5716 38.5382 18.8706C38.5382 9.16963 30.299 1.3291 19.9336 1.3291Z" stroke="#6F6F6F" stroke-width="2" stroke-miterlimit="10" stroke-linecap="round" stroke-linejoin="round"/>
<path d="M13.6877 17.4087L9.03656 23.5217C8.63789 24.0532 9.16945 24.5848 9.8339 24.319L15.6811 21.3954C15.814 21.2625 16.0797 21.2625 16.2126 21.3954L20.8638 23.7874C22.7243 24.7177 24.9834 24.1861 26.4452 22.4585L31.0964 16.3456C31.495 15.814 30.9635 15.2825 30.299 15.5482L24.4518 18.4718C24.3189 18.6047 24.0532 18.6047 23.9203 18.4718L19.2691 16.0798C17.2758 15.1496 14.8837 15.6811 13.6877 17.4087Z" stroke="#6F6F6F" stroke-width="2" stroke-miterlimit="10" stroke-linecap="round" stroke-linejoin="round"/>
</g>
<defs>
<clipPath id="clip0_704_200">
<rect width="40" height="39.8671" fill="white"/>
</clipPath>
</defs>
</svg>
