<svg viewBox="0 0 512 512" xmlns="http://www.w3.org/2000/svg" xmlns:xlink="http://www.w3.org/1999/xlink">
	<path d="m302.898 323.452h-243.825c-4.143 0-7.5-3.357-7.5-7.5s3.357-7.5 7.5-7.5h243.825c4.143 0 7.5 3.357 7.5 7.5s-3.357 7.5-7.5 7.5z"/>
	<path d="m183.342 364.729h-124.269c-4.143 0-7.5-3.357-7.5-7.5s3.357-7.5 7.5-7.5h124.269c4.143 0 7.5 3.357 7.5 7.5s-3.358 7.5-7.5 7.5z"/>
	<path d="m286.026 122.787h-160.029c-4.143 0-7.5 3.357-7.5 7.5s3.357 7.5 7.5 7.5h160.029c5.168 0 9.372 4.204 9.372 9.372v97.145l-32.717-39.42c-4.612-5.558-11.4-8.745-18.624-8.746 0 0 0 0-.001 0-7.223 0-14.012 3.188-18.625 8.746l-21.45 25.845-44.306-53.385c-4.613-5.559-11.402-8.746-18.625-8.746s-14.012 3.188-18.625 8.746l-55.852 67.296v-97.481c0-5.168 4.204-9.372 9.372-9.372h14.989c4.143 0 7.5-3.357 7.5-7.5s-3.357-7.5-7.5-7.5h-14.989c-13.438 0-24.372 10.934-24.372 24.372v112.841c0 13.438 10.934 24.372 24.372 24.372h210.081c13.438 0 24.372-10.934 24.372-24.372v-112.841c0-13.438-10.933-24.372-24.372-24.372zm-217.472 142.955 65.415-78.818c1.754-2.113 4.335-3.326 7.082-3.326s5.328 1.213 7.082 3.326l46.102 55.549-22.325 26.899h-95.965c-3.004 0-5.675-1.426-7.391-3.63zm217.472 3.63h-94.622l45.571-54.908c1.754-2.114 4.336-3.326 7.083-3.326 2.746 0 5.327 1.213 7.081 3.326l42.411 51.101c-1.709 2.304-4.441 3.807-7.524 3.807z"/>
	<path d="m418.204 74.646h-51.389v-32.613c0-13.111-10.666-23.777-23.777-23.777h-319.261c-13.111 0-23.777 10.666-23.777 23.777v358.674c0 51.301 41.736 93.037 93.038 93.037h180.739c49.651 0 90.341-39.094 92.908-88.117 80.481-2.065 145.315-68.176 145.315-149.146v-88.04c0-51.718-42.077-93.795-93.796-93.795zm-66.389 326.061c0 43.03-35.008 78.037-78.038 78.037h-180.739c-43.03 0-78.038-35.007-78.038-78.037v-358.674c0-4.84 3.938-8.777 8.777-8.777h319.261c4.84 0 8.777 3.938 8.777 8.777v233.414c0 4.143 3.357 7.5 7.5 7.5s7.5-3.357 7.5-7.5v-124.316c3.334-7.963 10.561-13.664 19.144-14.989l26.56-4.102c14.406-2.221 28.806 3.864 36.676 15.515 4.173 6.175 6.378 13.397 6.378 20.887v88.04c0 41.374-27.779 78.097-67.555 89.303-8.22 2.317-16.894-1.314-21.202-8.681v-26.594c0-4.143-3.357-7.5-7.5-7.5s-7.5 3.357-7.5 7.5v90.197zm145.185-144.226c0 72.654-58.037 132.002-130.185 134.131v-33.309c4.915 2.704 10.467 4.18 16.172 4.179 3.016 0 6.073-.409 9.099-1.262 46.211-13.02 78.486-55.679 78.486-103.74v-88.04c0-10.494-3.095-20.62-8.948-29.284-11.104-16.436-31.276-25.047-51.395-21.941l-26.56 4.102c-6.179.954-11.917 3.329-16.854 6.803v-38.474h51.389c43.448 0 78.796 35.348 78.796 78.796z"/>
</svg>