<svg width="33" height="30" viewBox="0 0 33 30" fill="none" xmlns="http://www.w3.org/2000/svg">
<g clip-path="url(#clip0_282_74)">
<path d="M24.4898 4.89796L16.3469 5.5102V0L18.551 2.32653L20.3877 0L22.4694 2.38776L24.4898 0V4.89796Z" fill="#999999"/>
<path d="M28.5918 21.8571H24.4898V17.2041H25.2245L31.4694 11.5714V7.5306C31.2857 7.40815 31.102 7.40815 30.8571 7.34693L28.5306 9.42856L24.4286 13.102V5.51019H16.3469V13.653V21.7959V30H24.4898H28.5918H32.6939V25.8979C32.6326 23.6939 30.7959 21.8571 28.5918 21.8571Z" fill="#4B5F20"/>
<path d="M24.4898 4.89795V21.3673C24.4898 22.1633 23.8775 22.7755 23.0816 22.7755H16.3469V5.51019L24.4898 4.89795Z" fill="#778B2C"/>
<path d="M21.1837 11.3265H16.3469V10.1021H21.9796L21.1837 11.3265Z" fill="#808080"/>
<path d="M20.5102 11.5714H18.551V13.5306H20.5102V11.5714Z" fill="#4D4D4D"/>
<path d="M21.3061 17.7551H16.3469V19.2857H21.3061V17.7551Z" fill="#4B5F21"/>
<path d="M20.8163 18.0612H18.9183V15.3674L20.8163 16.7143V18.0612Z" fill="white"/>
<path d="M26.9387 27.3061H25.5918V30H26.9387V27.3061Z" fill="#45571B"/>
<path d="M17.6939 28.0408H16.3469V30H17.6939V28.0408Z" fill="#45571B"/>
<path d="M8.14288 4.89796L16.347 5.5102V0L14.1429 2.32653L12.2449 0L10.1633 2.38776L8.14288 0V4.89796Z" fill="#B3B3B3"/>
<path d="M4.10204 21.8571H8.20408V17.2041H7.46939L1.16327 11.5714V7.5306C1.34694 7.40815 1.53061 7.40815 1.77551 7.34693L4.10204 9.42856L8.20408 13.102V5.51019H16.3469V13.653V21.7959V30H8.14286H4.10204H0V25.8979C0 23.6939 1.83673 21.8571 4.10204 21.8571Z" fill="#738C27"/>
<path d="M8.14288 4.89795V21.3673C8.14288 22.1633 8.75513 22.7755 9.55105 22.7755H16.2857V5.51019L8.14288 4.89795Z" fill="#A3C21C"/>
<path d="M11.449 11.3265H16.347V10.1021H10.6531L11.449 11.3265Z" fill="#999999"/>
<path d="M12.1893 13.5352L14.1485 13.5352L14.1485 11.576L12.1893 11.576L12.1893 13.5352Z" fill="#666666"/>
<path d="M11.38 19.2857L16.3392 19.2857L16.3392 17.7551L11.38 17.7551L11.38 19.2857Z" fill="#61772A"/>
<path d="M11.8163 18.0612H13.7143V15.3674L11.8163 16.7143V18.0612Z" fill="white"/>
<path d="M5.68871 30.0153L7.03564 30.0153L7.03564 27.3214L5.68871 27.3214L5.68871 30.0153Z" fill="#627728"/>
<path d="M14.9898 30.0186L16.3367 30.0186L16.3367 28.0594L14.9898 28.0594L14.9898 30.0186Z" fill="#627728"/>
</g>
<defs>
<clipPath id="clip0_282_74">
<rect width="32.6327" height="30" fill="white"/>
</clipPath>
</defs>
</svg>
