<svg viewBox="0 0 511.949 511.949" xmlns="http://www.w3.org/2000/svg" xmlns:xlink="http://www.w3.org/1999/xlink">
	<path d="m340.002 181.678c-6.893.188-12.07-7.53-9.229-13.83 2.869-7.294 13.307-8.307 17.55-1.72 1.44 2.186 2.021 4.936 1.479 7.5-.824 4.584-5.161 8.108-9.8 8.05z"/>
	<path d="m502.689 37.279-28.396-28.424c-.035-.035-.07-.07-.106-.104-11.941-11.601-31.786-11.677-44.237-.173-.098.09-.194.183-.288.277l-22.173 22.193-2.856-2.859c-1.876-1.877-4.421-2.932-7.074-2.932-2.654 0-5.199 1.055-7.074 2.932l-347.342 347.662c-3.588 3.591-5.843 8.017-6.768 12.659-.011.034-.023.068-.035.102l-35.815 110.246c-1.162 3.577-.219 7.504 2.441 10.163 1.905 1.904 4.46 2.928 7.07 2.928 1.035 0 2.079-.161 3.094-.491l110.133-35.843c4.808-.933 9.228-3.273 12.767-6.815l293.916-294.186 3.092 3.095c5.17 5.175 5.17 13.595 0 18.77l-162.488 162.636c-3.903 3.907-3.9 10.239.007 14.142 1.952 1.951 4.51 2.926 7.067 2.926 2.561 0 5.122-.978 7.074-2.932l162.488-162.638c12.957-12.969 12.957-34.072 0-47.041l-3.104-3.107 39.291-39.327c3.901-3.904 3.901-10.231 0-14.136l-2.869-2.871 22.185-22.206c12.298-12.309 12.298-32.337 0-44.646zm-425.917 432.433-34.523-34.556 6.155-18.946 47.298 47.341zm-41.461-13.202 20.127 20.145-29.824 9.707zm86.571-1.846c-1.224 1.225-2.652 1.408-3.395 1.408s-2.17-.183-3.395-1.408l-57.802-57.855c-1.879-1.881-1.879-4.941 0-6.821l32.707-32.738 64.604 64.663zm46.856-46.9-25.234-25.257 179.142-179.306c3.903-3.907 3.9-10.239-.007-14.142-3.907-3.904-10.24-3.901-14.142.006l-179.129 179.293-25.233-25.258 247.072-247.298 64.603 64.663zm261.208-261.448-64.603-64.663 32.216-32.247 64.604 64.664zm58.595-78.527-22.172 22.193-44.744-44.785 22.023-22.043c4.689-4.212 12.219-4.266 16.558-.101l28.335 28.361c4.511 4.515 4.511 11.86 0 16.375z"/>
</svg>