<svg width="34" height="34" viewBox="0 0 34 34" fill="none" xmlns="http://www.w3.org/2000/svg">
<g clip-path="url(#clip0_212_1610)">
<path d="M17 32.8667C25.7629 32.8667 32.8666 25.7629 32.8666 17C32.8666 8.23708 25.7629 1.13333 17 1.13333C8.23705 1.13333 1.1333 8.23708 1.1333 17C1.1333 25.7629 8.23705 32.8667 17 32.8667Z" stroke="#274B74" stroke-width="2" stroke-miterlimit="10" stroke-linecap="round" stroke-linejoin="round"/>
<path d="M25.9534 21.42V24.14C25.9534 25.16 25.16 25.9533 24.14 25.9533H24.0267C21.3067 25.6133 18.5867 24.7067 16.32 23.2333C14.1667 21.8733 12.3534 20.06 10.88 17.7933C9.4067 15.4133 8.3867 12.8067 8.16004 9.97334C7.93337 9.06667 8.7267 8.16 9.7467 8.04667H9.86004H12.58C13.4867 8.04667 14.28 8.72667 14.3934 9.63334C14.5067 10.54 14.7334 11.3333 15.0734 12.1267C15.3 12.8067 15.1867 13.4867 14.62 14.0533L13.4867 15.1867C14.7334 17.4533 16.66 19.2667 18.9267 20.6267L20.06 19.4933C20.5134 19.04 21.3067 18.8133 21.9867 19.04C22.78 19.38 23.6867 19.6067 24.48 19.72C25.2734 19.72 25.9534 20.5133 25.9534 21.42Z" stroke="#274B74" stroke-width="2" stroke-linecap="round" stroke-linejoin="round"/>
</g>
<defs>
<clipPath id="clip0_212_1610">
<rect width="34" height="34" fill="white"/>
</clipPath>
</defs>
</svg>
