<svg width="40" height="40" viewBox="0 0 40 40" fill="none" xmlns="http://www.w3.org/2000/svg">
<g clip-path="url(#clip0_704_212)">
<path d="M20 38.6668C30.3093 38.6668 38.6666 30.3095 38.6666 20.0002C38.6666 9.69085 30.3093 1.3335 20 1.3335C9.69066 1.3335 1.33331 9.69085 1.33331 20.0002C1.33331 30.3095 9.69066 38.6668 20 38.6668Z" stroke="#6F6F6F" stroke-width="2" stroke-miterlimit="10" stroke-linecap="round" stroke-linejoin="round"/>
<path d="M30.5333 25.2001V28.4001C30.5333 29.6001 29.6 30.5335 28.4 30.5335H28.2667C25.0667 30.1335 21.8667 29.0668 19.2 27.3335C16.6667 25.7335 14.5333 23.6001 12.8 20.9335C11.0667 18.1335 9.86668 15.0668 9.60001 11.7335C9.33335 10.6668 10.2667 9.60013 11.4667 9.4668H11.6H14.8C15.8667 9.4668 16.8 10.2668 16.9333 11.3335C17.0667 12.4001 17.3333 13.3335 17.7333 14.2668C18 15.0668 17.8667 15.8668 17.2 16.5335L15.8667 17.8668C17.3333 20.5335 19.6 22.6668 22.2667 24.2668L23.6 22.9335C24.1334 22.4001 25.0667 22.1335 25.8667 22.4001C26.8 22.8001 27.8667 23.0668 28.8 23.2001C29.7333 23.2001 30.5333 24.1335 30.5333 25.2001Z" stroke="#6F6F6F" stroke-width="2" stroke-linecap="round" stroke-linejoin="round"/>
</g>
<defs>
<clipPath id="clip0_704_212">
<rect width="40" height="40" fill="white"/>
</clipPath>
</defs>
</svg>
