<?xml version="1.0" encoding="utf-8"?>
<!-- Generator: Adobe Illustrator 22.0.0, SVG Export Plug-In . SVG Version: 6.00 Build 0)  -->
<svg version="1.1" id="Layer_1" xmlns="http://www.w3.org/2000/svg" xmlns:xlink="http://www.w3.org/1999/xlink" x="0px" y="0px"
	 viewBox="0 0 100 100" style="enable-background:new 0 0 100 100;" xml:space="preserve">
<path d="M98.7,92.3L79.1,72.7c6.3-7.7,10-17.5,10-28.2C89.1,20,69.2,0,44.6,0S0,20,0,44.6c0,24.6,20,44.6,44.6,44.6
	c10.7,0,20.5-3.8,28.2-10l19.6,19.6c0.9,0.9,2,1.3,3.2,1.3c1.2,0,2.3-0.4,3.2-1.3C100.4,96.9,100.4,94.1,98.7,92.3z M9,44.6
	C9,24.9,24.9,9,44.6,9s35.6,16,35.6,35.6s-16,35.6-35.6,35.6S9,64.2,9,44.6z M44.6,70c-9.7,0-18.7-5.6-22.9-14.3
	c-0.6-1.2-0.1-2.7,1.1-3.3c1.2-0.6,2.7-0.1,3.3,1.1c3.4,7,10.7,11.6,18.5,11.6c1.3,0,2.4,1.1,2.4,2.4C47,68.9,45.9,70,44.6,70z"/>
</svg>
