<svg width="40" height="40" viewBox="0 0 40 40" fill="none" xmlns="http://www.w3.org/2000/svg">
<g clip-path="url(#clip0_704_209)">
<path d="M20 38.6668C30.3093 38.6668 38.6666 30.3095 38.6666 20.0002C38.6666 9.69085 30.3093 1.3335 20 1.3335C9.69066 1.3335 1.33331 9.69085 1.33331 20.0002C1.33331 30.3095 9.69066 38.6668 20 38.6668Z" stroke="#6F6F6F" stroke-width="2" stroke-miterlimit="10" stroke-linecap="round" stroke-linejoin="round"/>
<path d="M28.5333 8.26689L5.33333 18.0002C5.33333 18.0002 4.26666 18.4002 4.26666 19.0669C4.4 19.8669 5.33333 20.1336 5.33333 20.1336L11.2 22.2669C11.2 22.2669 12.9333 28.4002 13.3333 29.6002C13.7333 30.8002 14 30.8002 14 30.8002C14.2667 30.9336 14.6667 30.6669 14.6667 30.6669L18.4 27.0669L24.2667 31.8669C25.8667 32.6669 26.4 31.0669 26.4 31.0669L30.5333 9.06689C30.4 7.46689 28.5333 8.26689 28.5333 8.26689ZM24.4 29.2002L18.1333 24.1336L16.1333 26.0002L16.5333 22.0002L24.9333 14.1336L13.4667 20.9336L8.4 19.0669L27.7333 11.0669L24.4 29.2002Z" fill="#6F6F6F"/>
</g>
<defs>
<clipPath id="clip0_704_209">
<rect width="40" height="40" fill="white"/>
</clipPath>
</defs>
</svg>
