<svg width="34" height="34" viewBox="0 0 34 34" fill="none" xmlns="http://www.w3.org/2000/svg">
<g clip-path="url(#clip0_212_1607)">
<path d="M17 32.8667C25.7629 32.8667 32.8666 25.7629 32.8666 17C32.8666 8.23708 25.7629 1.13333 17 1.13333C8.23705 1.13333 1.1333 8.23708 1.1333 17C1.1333 25.7629 8.23705 32.8667 17 32.8667Z" stroke="#274B74" stroke-width="2" stroke-miterlimit="10" stroke-linecap="round" stroke-linejoin="round"/>
<path d="M24.2531 7.02667L4.53313 15.3C4.53313 15.3 3.62646 15.64 3.62646 16.2067C3.7398 16.8867 4.53313 17.1133 4.53313 17.1133L9.5198 18.9267C9.5198 18.9267 10.9931 24.14 11.3331 25.16C11.6731 26.18 11.8998 26.18 11.8998 26.18C12.1265 26.2933 12.4665 26.0667 12.4665 26.0667L15.6398 23.0067L20.6265 27.0867C21.9865 27.7667 22.4398 26.4067 22.4398 26.4067L25.9531 7.70667C25.8398 6.34667 24.2531 7.02667 24.2531 7.02667ZM20.7398 24.82L15.4131 20.5133L13.7131 22.1L14.0531 18.7L21.1931 12.0133L11.4465 17.7933L7.1398 16.2067L23.5731 9.40667L20.7398 24.82Z" fill="#274B74"/>
</g>
<defs>
<clipPath id="clip0_212_1607">
<rect width="34" height="34" fill="white"/>
</clipPath>
</defs>
</svg>
