<svg width="40" height="40" viewBox="0 0 40 40" fill="none" xmlns="http://www.w3.org/2000/svg">
<g clip-path="url(#clip0_704_203)">
<path d="M27.1572 25.0165C27.5586 23.9462 27.5586 23.0098 27.4248 22.7422C27.291 22.4747 27.0234 22.4747 26.4883 22.2071C25.9532 21.9395 23.679 20.8693 23.4114 20.7355C23.0101 20.6018 22.4749 20.6018 22.3412 21.1369C21.806 21.8058 21.4047 22.3409 21.1372 22.7422C20.8696 23.0098 20.3345 23.1436 20.0669 22.876C19.5318 22.6084 18.0602 22.0733 16.3211 20.6018C14.9833 19.3977 14.0468 17.9262 13.6455 17.3911C13.378 16.8559 13.6455 16.5884 13.9131 16.4546C14.1806 16.187 14.4482 15.9195 14.7157 15.6519C14.9833 15.3844 15.1171 15.2506 15.2509 14.8492C15.3846 14.5817 15.2509 14.1804 15.1171 13.9128C14.7157 13.779 13.9131 11.5048 13.5117 10.7021C13.2442 10.0332 12.9766 10.0332 12.4415 10.0332C12.3077 9.89941 12.1739 9.89941 12.0402 9.89941C11.3713 9.89941 10.7024 10.0332 10.301 10.5683C9.89969 11.1034 8.69568 12.1737 8.69568 14.4479C8.69568 16.7222 10.301 18.8626 10.5686 19.1302C10.8361 19.3977 13.7793 24.08 18.4616 26.0867C22.0736 27.5583 23.1438 27.4245 23.9465 27.2907C25.2843 27.0232 26.7559 26.0867 27.1572 25.0165Z" stroke="#6F6F6F" stroke-width="1.8622" stroke-miterlimit="10" stroke-linecap="round" stroke-linejoin="round"/>
<path d="M19.9331 1.2041C9.63214 1.2041 1.20404 3.61213 1.20404 17.3914C1.20404 26.3546 4.6823 30.5018 9.89969 32.2409V37.7258C9.89969 38.5285 10.8361 38.7961 11.3713 38.3947L16.1873 33.5787C17.2576 33.5787 18.5953 33.5787 19.7994 33.5787C30.1004 33.5787 38.5285 31.1707 38.5285 17.3914C38.5285 3.61213 30.3679 1.2041 19.9331 1.2041Z" stroke="#6F6F6F" stroke-width="1.8622" stroke-miterlimit="10" stroke-linecap="round" stroke-linejoin="round"/>
<path d="M19.398 13.9131C21.0034 13.9131 22.2074 15.1171 22.2074 16.7225" stroke="#6F6F6F" stroke-width="1.8622" stroke-miterlimit="10" stroke-linecap="round" stroke-linejoin="round"/>
<path d="M19.398 6.15381C25.2843 6.15381 29.9666 10.8361 29.9666 16.7224" stroke="#6F6F6F" stroke-width="1.8622" stroke-miterlimit="10" stroke-linecap="round" stroke-linejoin="round"/>
<path d="M19.398 10.0332C23.1438 10.0332 26.087 12.9763 26.087 16.7222" stroke="#6F6F6F" stroke-width="1.8622" stroke-miterlimit="10" stroke-linecap="round" stroke-linejoin="round"/>
</g>
<defs>
<clipPath id="clip0_704_203">
<rect width="40" height="39.8662" fill="white"/>
</clipPath>
</defs>
</svg>
