<svg viewBox="0 0 20000 20000" xmlns="http://www.w3.org/2000/svg" xmlns:xlink="http://www.w3.org/1999/xlink">
	<path d="M19186 11577c596,-5018 -287,-8186 -1879,-9619l1 -1c-2569,-2447 -11246,-2809 -14320,110 -1381,1428 -1867,3523 -1920,6118 -54,2595 -117,7457 4413,8775l4 0 -4 2014c0,0 -31,816 491,980 596,194 866,-185 2720,-2400 3100,269 5482,-347 5752,-437 626,-210 4169,-679 4742,-5540l0 0zm-10189 4560c0,0 -1962,2447 -2572,3082 -200,207 -419,188 -416,-222 0,-269 15,-3344 15,-3344 -3841,-1100 -3614,-5240 -3573,-7406 42,-2166 438,-3940 1607,-5135 2697,-2529 10305,-1963 12243,-142 2369,2101 1526,8036 1531,8238 -487,4058 -3358,4315 -3886,4491 -225,75 -2319,614 -4949,438l0 0z" />
	<path d="M10083 3587c-321,0 -321,500 0,504 2487,19 4535,1753 4558,4932 0,336 491,332 487,-4l-1 0c-27,-3426 -2263,-5413 -5044,-5432z" />
	<path d="M13354 8496c-7,332 483,347 487,12 41,-1889 -1124,-3445 -3313,-3609 -320,-24 -353,480 -34,503 1899,144 2899,1440 2860,3094l0 0z" />
	<path d="M12830 10645c-412,-238 -830,-90 -1004,144l-362 469c-184,238 -528,206 -528,206 -2509,-663 -3180,-3289 -3180,-3289 0,0 -31,-356 199,-546l453 -375c226,-180 369,-613 139,-1038 -616,-1113 -1030,-1497 -1241,-1792 -221,-277 -554,-340 -901,-152l-7 0c-720,421 -1509,1209 -1256,2021 430,856 1221,3584 3742,5646 1185,975 3060,1974 3856,2205l7 11c785,262 1547,-557 1954,-1299l0 -6c181,-359 121,-699 -143,-921 -468,-456 -1174,-960 -1728,-1284z" />
	<path d="M10871 6757c801,47 1189,464 1230,1323 15,335 502,312 487,-23 -53,-1121 -637,-1746 -1690,-1804 -320,-19 -350,485 -27,504z" />
</svg>