<svg width="34" height="34" viewBox="0 0 34 34" fill="none" xmlns="http://www.w3.org/2000/svg">
<g clip-path="url(#clip0_212_1601)">
<path d="M23.0834 21.3356C23.4246 20.4228 23.4246 19.6242 23.3108 19.396C23.1971 19.1678 22.9697 19.1678 22.5149 18.9396C22.06 18.7114 20.1269 17.7987 19.8995 17.6846C19.5583 17.5705 19.1035 17.5705 18.9898 18.0268C18.5349 18.5973 18.1938 19.0537 17.9664 19.396C17.7389 19.6242 17.2841 19.7383 17.0567 19.5101C16.6018 19.2819 15.351 18.8255 13.8727 17.5705C12.7356 16.5436 11.9396 15.2886 11.5985 14.8322C11.371 14.3758 11.5985 14.1476 11.8259 14.0336C12.0533 13.8054 12.2807 13.5772 12.5082 13.349C12.7356 13.1208 12.8493 13.0067 12.963 12.6644C13.0767 12.4362 12.963 12.094 12.8493 11.8658C12.5082 11.7517 11.8259 9.81207 11.4848 9.12751C11.2573 8.55704 11.0299 8.55704 10.5751 8.55704C10.4613 8.44295 10.3476 8.44295 10.2339 8.44295C9.66536 8.44295 9.0968 8.55704 8.75566 9.01342C8.41452 9.46979 7.39111 10.3825 7.39111 12.3221C7.39111 14.2617 8.75566 16.0872 8.98309 16.3154C9.21051 16.5436 11.7122 20.5369 15.6921 22.2483C18.7624 23.5034 19.6721 23.3893 20.3543 23.2752C21.4914 23.047 22.7423 22.2483 23.0834 21.3356Z" stroke="#274B74" stroke-width="1.8622" stroke-miterlimit="10" stroke-linecap="round" stroke-linejoin="round"/>
<path d="M16.9432 1.02685C8.18732 1.02685 1.02344 3.08054 1.02344 14.8322C1.02344 22.4765 3.97996 26.0134 8.41474 27.4967V32.1745C8.41474 32.8591 9.21073 33.0873 9.66558 32.745L13.7592 28.6376C14.6689 28.6376 15.806 28.6376 16.8295 28.6376C25.5853 28.6376 32.7492 26.5839 32.7492 14.8322C32.7492 3.08054 25.8127 1.02685 16.9432 1.02685Z" stroke="#274B74" stroke-width="1.8622" stroke-miterlimit="10" stroke-linecap="round" stroke-linejoin="round"/>
<path d="M16.4883 11.8658C17.8528 11.8658 18.8762 12.8926 18.8762 14.2617" stroke="#274B74" stroke-width="1.8622" stroke-miterlimit="10" stroke-linecap="round" stroke-linejoin="round"/>
<path d="M16.4883 5.24832C21.4916 5.24832 25.4716 9.24161 25.4716 14.2617" stroke="#274B74" stroke-width="1.8622" stroke-miterlimit="10" stroke-linecap="round" stroke-linejoin="round"/>
<path d="M16.4883 8.55704C19.6722 8.55704 22.1739 11.0671 22.1739 14.2617" stroke="#274B74" stroke-width="1.8622" stroke-miterlimit="10" stroke-linecap="round" stroke-linejoin="round"/>
</g>
<defs>
<clipPath id="clip0_212_1601">
<rect width="34" height="34" fill="white"/>
</clipPath>
</defs>
</svg>
