<?xml version="1.0" encoding="UTF-8" standalone="no"?>
<!-- Created with Inkscape (http://www.inkscape.org/) -->

<svg
   width="64pt"
   height="64pt"
   viewBox="0 0 22.577778 22.577778"
   version="1.1"
   id="svg831"
   inkscape:version="1.1.1 (3bf5ae0d25, 2021-09-20)"
   sodipodi:docname="Export - Unblash - 64px.svg"
   inkscape:export-filename="C:\Users\User\Desktop\Done Januari 2k22\EX\12 - Armchair.png"
   inkscape:export-xdpi="576"
   inkscape:export-ydpi="576"
   xmlns:inkscape="http://www.inkscape.org/namespaces/inkscape"
   xmlns:sodipodi="http://sodipodi.sourceforge.net/DTD/sodipodi-0.dtd"
   xmlns="http://www.w3.org/2000/svg"
   xmlns:svg="http://www.w3.org/2000/svg"
   xmlns:rdf="http://www.w3.org/1999/02/22-rdf-syntax-ns#"
   xmlns:cc="http://creativecommons.org/ns#"
   xmlns:dc="http://purl.org/dc/elements/1.1/">
  <defs
     id="defs825">
    <pattern
       id="EMFhbasepattern"
       patternUnits="userSpaceOnUse"
       width="6"
       height="6"
       x="0"
       y="0" />
    <pattern
       id="EMFhbasepattern-9"
       patternUnits="userSpaceOnUse"
       width="6"
       height="6"
       x="0"
       y="0" />
    <pattern
       id="EMFhbasepattern-0"
       patternUnits="userSpaceOnUse"
       width="6"
       height="6"
       x="0"
       y="0" />
    <pattern
       id="EMFhbasepattern-7"
       patternUnits="userSpaceOnUse"
       width="6"
       height="6"
       x="0"
       y="0" />
    <pattern
       id="EMFhbasepattern-2"
       patternUnits="userSpaceOnUse"
       width="6"
       height="6"
       x="0"
       y="0" />
    <pattern
       id="EMFhbasepattern-98"
       patternUnits="userSpaceOnUse"
       width="6"
       height="6"
       x="0"
       y="0" />
    <pattern
       id="EMFhbasepattern-6"
       patternUnits="userSpaceOnUse"
       width="6"
       height="6"
       x="0"
       y="0" />
    <pattern
       id="EMFhbasepattern-01"
       patternUnits="userSpaceOnUse"
       width="6"
       height="6"
       x="0"
       y="0" />
    <pattern
       id="EMFhbasepattern-07"
       patternUnits="userSpaceOnUse"
       width="6"
       height="6"
       x="0"
       y="0" />
    <pattern
       id="EMFhbasepattern-8"
       patternUnits="userSpaceOnUse"
       width="6"
       height="6"
       x="0"
       y="0" />
    <pattern
       id="EMFhbasepattern-4"
       patternUnits="userSpaceOnUse"
       width="6"
       height="6"
       x="0"
       y="0" />
    <pattern
       id="EMFhbasepattern-40"
       patternUnits="userSpaceOnUse"
       width="6"
       height="6"
       x="0"
       y="0" />
    <pattern
       id="EMFhbasepattern-08"
       patternUnits="userSpaceOnUse"
       width="6"
       height="6"
       x="0"
       y="0" />
    <pattern
       id="EMFhbasepattern-04"
       patternUnits="userSpaceOnUse"
       width="6"
       height="6"
       x="0"
       y="0" />
    <pattern
       id="EMFhbasepattern-014"
       patternUnits="userSpaceOnUse"
       width="6"
       height="6"
       x="0"
       y="0" />
    <pattern
       id="EMFhbasepattern-27"
       patternUnits="userSpaceOnUse"
       width="6"
       height="6"
       x="0"
       y="0" />
    <pattern
       id="EMFhbasepattern-09"
       patternUnits="userSpaceOnUse"
       width="6"
       height="6"
       x="0"
       y="0" />
    <pattern
       id="EMFhbasepattern-5"
       patternUnits="userSpaceOnUse"
       width="6"
       height="6"
       x="0"
       y="0" />
    <pattern
       id="EMFhbasepattern-018"
       patternUnits="userSpaceOnUse"
       width="6"
       height="6"
       x="0"
       y="0" />
  </defs>
  <sodipodi:namedview
     id="base"
     pagecolor="#ffffff"
     bordercolor="#666666"
     borderopacity="1.0"
     inkscape:pageopacity="0.0"
     inkscape:pageshadow="2"
     inkscape:zoom="4.5878906"
     inkscape:cx="-13.513836"
     inkscape:cy="48.279268"
     inkscape:document-units="pt"
     inkscape:current-layer="layer1"
     showgrid="false"
     units="pt"
     inkscape:window-width="1920"
     inkscape:window-height="1001"
     inkscape:window-x="-9"
     inkscape:window-y="41"
     inkscape:window-maximized="1"
     inkscape:pagecheckerboard="true"
     inkscape:showpageshadow="false"
     inkscape:object-paths="true"
     inkscape:snap-intersection-paths="true"
     inkscape:snap-smooth-nodes="true"
     inkscape:snap-midpoints="true"
     showguides="true"
     inkscape:snap-bbox="true"
     inkscape:bbox-nodes="true"
     inkscape:snap-nodes="false"
     inkscape:snap-global="true">
    <inkscape:grid
       type="xygrid"
       id="grid1378" />
    <sodipodi:guide
       position="0.97013831,21.607643"
       orientation="78.000048,0"
       id="guide1380"
       inkscape:locked="false" />
    <sodipodi:guide
       position="0.97013831,0.97013129"
       orientation="0,78.000005"
       id="guide1382"
       inkscape:locked="false" />
    <sodipodi:guide
       position="21.607639,0.97013129"
       orientation="-78.000048,0"
       id="guide1384"
       inkscape:locked="false" />
    <sodipodi:guide
       position="21.607639,21.607643"
       orientation="0,-78.000005"
       id="guide1386"
       inkscape:locked="false" />
  </sodipodi:namedview>
  <metadata
     id="metadata828">
    <rdf:RDF>
      <cc:Work
         rdf:about="">
        <dc:format>image/svg+xml</dc:format>
        <dc:type
           rdf:resource="http://purl.org/dc/dcmitype/StillImage" />
      </cc:Work>
    </rdf:RDF>
  </metadata>
  <g
     inkscape:label="Icon"
     inkscape:groupmode="layer"
     id="layer1"
     transform="translate(0,-274.42223)">
    <g
       id="g1330"
       style="display:inline;stroke-width:0.794878"
       transform="matrix(1.2580546,0,0,1.2580546,0.63842432,-38.906073)">
      <path
         id="path29444"
         style="color:#000000;fill:#9a605c;stroke-width:3.00427;stroke-linecap:round;stroke-linejoin:round;-inkscape-stroke:none"
         d="m 32,-69.789062 a 1.0000006,1.0000006 0 0 0 -1.003906,1.003906 v 13 A 1.0000006,1.0000006 0 0 0 32,-54.789062 a 1.0000006,1.0000006 0 0 0 0.996094,-0.996094 v -13 A 1.0000006,1.0000006 0 0 0 32,-69.789062 Z m -4.039062,0.0039 a 1.0000006,1.0000006 0 0 0 -0.898438,0.652344 l -5.558594,15 a 1.0000006,1.0000006 0 0 0 0.589844,1.285156 1.0000006,1.0000006 0 0 0 1.292969,-0.589844 l 5.550781,-15 a 1.0000006,1.0000006 0 0 0 -0.591797,-1.285156 1.0000006,1.0000006 0 0 0 -0.384765,-0.0625 z m 8.078124,0 a 1.0000006,1.0000006 0 0 0 -0.384765,0.0625 1.0000006,1.0000006 0 0 0 -0.589844,1.285156 l 5.550781,15 a 1.0000006,1.0000006 0 0 0 1.285157,0.589844 1.0000006,1.0000006 0 0 0 0.589843,-1.285156 l -5.550781,-15 a 1.0000006,1.0000006 0 0 0 -0.900391,-0.652344 z"
         transform="matrix(0.26458334,0,0,0.26458334,0,280.06666)" />
      <path
         id="path147143"
         style="color:#000000;fill:#734845;fill-opacity:1;stroke-width:3.00427;stroke-linecap:round;stroke-linejoin:round;-inkscape-stroke:none"
         d="m 30.996094,-68.785156 v 2.996094 h 2 v -2.996094 z m -3.933594,-0.347662 -1.236328,3.335937 2.130859,0.0078 0.980469,-2.648419 z m 8.001953,0.695312 0.980469,2.648438 2.128906,-0.0078 -1.234375,-3.335937 z"
         transform="matrix(0.26458334,0,0,0.26458334,0,280.06666)"
         sodipodi:nodetypes="ccccccccccccccc" />
      <path
         style="color:#000000;fill:#734845;stroke-width:0.794878;stroke-linecap:round;stroke-linejoin:round;-inkscape-stroke:none"
         d="m 14.085938,260.41211 a 0.26460996,0.26460996 0 0 0 -0.236329,0.22461 l -0.353515,2.38281 a 0.26460996,0.26460996 0 0 0 0.01563,0.13281 l 1.058594,2.77735 a 0.26460996,0.26460996 0 0 0 0.246093,0.16992 H 15.875 a 0.26460996,0.26460996 0 0 0 0.25,-0.34961 l -1.763672,-5.16016 a 0.26460996,0.26460996 0 0 0 -0.27539,-0.17773 z"
         id="path135129" />
      <path
         style="color:#000000;fill:#3a4d5c;fill-opacity:1;stroke-width:0.794878;stroke-linecap:round;stroke-linejoin:round;-inkscape-stroke:none"
         d="m 11.90625,255.25195 a 0.26460996,0.26460996 0 0 0 -0.255859,0.20117 l -0.265625,1.0586 a 0.26460996,0.26460996 0 0 0 0.257812,0.32812 h 1.585938 a 0.26460996,0.26460996 0 0 0 0.257812,-0.32812 l -0.265625,-1.0586 a 0.26460996,0.26460996 0 0 0 -0.255859,-0.20117 z"
         id="path104225" />
      <path
         style="color:#000000;fill:#3a4d5c;fill-opacity:1;stroke-width:0.794878;stroke-linecap:round;stroke-linejoin:round;-inkscape-stroke:none"
         d="m 11.376953,256.31055 c -0.435245,0 -0.792972,0.35772 -0.792969,0.79297 v 0.52929 a 0.26460996,0.26460996 0 0 0 0.263672,0.26563 h 3.175782 a 0.26460996,0.26460996 0 0 0 0.263671,-0.26563 v -0.52929 c 3e-6,-0.43525 -0.357723,-0.79297 -0.792968,-0.79297 z"
         id="path104417" />
      <path
         style="color:#000000;fill:#ececec;stroke-width:0.794878;stroke-linecap:round;stroke-linejoin:round;-inkscape-stroke:none"
         d="m 4.8007812,255.11914 a 0.26460996,0.26460996 0 0 0 -0.265625,0.26563 v 2.24804 a 0.26460996,0.26460996 0 0 0 0.265625,0.26563 h 2.0410157 a 0.26460996,0.26460996 0 0 0 0.2636718,-0.26563 v -2.24804 a 0.26460996,0.26460996 0 0 0 -0.2636718,-0.26563 z"
         id="path103824" />
      <path
         style="color:#000000;fill:#734845;stroke-width:0.794878;stroke-linecap:round;stroke-linejoin:round;-inkscape-stroke:none"
         d="m 2.8457031,260.41211 a 0.26460996,0.26460996 0 0 0 -0.2734375,0.17773 L 0.80859375,265.75 a 0.26460996,0.26460996 0 0 0 0.24999995,0.34961 h 1.0585938 a 0.26460996,0.26460996 0 0 0 0.2460938,-0.16992 l 1.0585937,-2.77735 a 0.26460996,0.26460996 0 0 0 0.013672,-0.13281 l -0.3515625,-2.38281 a 0.26460996,0.26460996 0 0 0 -0.2382814,-0.22461 z"
         id="path134745" />
      <path
         id="path138025"
         style="color:#000000;fill:#603c39;fill-opacity:1;stroke-width:0.794878;stroke-linecap:round;stroke-linejoin:round;-inkscape-stroke:none"
         d="m 3.0840498,260.63684 c -0.01792,-0.12098 -0.1164133,-0.21392 -0.2382287,-0.22479 -0.1211437,-0.0106 -0.2339176,0.0627 -0.2733682,0.17776 l -0.3627686,1.06195 0.5426026,3.25717 0.6697266,-1.75648 c -0.039841,-0.83679 -0.2151471,-1.68281 -0.3379637,-2.51561 z"
         sodipodi:nodetypes="ccccccc" />
      <path
         style="color:#000000;fill:#fed883;stroke-width:0.794878;stroke-linecap:round;stroke-linejoin:round;-inkscape-stroke:none"
         d="m 6.8789062,260.2793 c -0.3621654,0 -0.6621093,0.29993 -0.6621093,0.66211 v 0.52929 c 0,0.36218 0.2999278,0.66016 0.6621093,0.66016 h 3.1757818 c 0.362181,0 0.660156,-0.29798 0.660156,-0.66016 v -0.52929 c 0,-0.36218 -0.297983,-0.66211 -0.660156,-0.66211 z"
         id="path135321" />
      <path
         style="color:#000000;fill:#3a4d5c;fill-opacity:1;stroke-width:0.794878;stroke-linecap:round;stroke-linejoin:round;-inkscape-stroke:none"
         d="m 2.1953125,256.12305 c -0.4868105,0 -0.8886662,0.40186 -0.8886719,0.88867 v 0.62109 a 0.26460996,0.26460996 0 0 0 0.265625,0.26563 h 1.8671875 a 0.26460996,0.26460996 0 0 0 0.265625,-0.26563 v -0.62109 c -5.7e-6,-0.48681 -0.4018614,-0.88867 -0.8886718,-0.88867 z"
         id="path32210" />
      <path
         style="color:#000000;fill:#3a4d5c;fill-opacity:1;stroke-width:0.794878;stroke-linecap:round;stroke-linejoin:round;-inkscape-stroke:none"
         d="m 1.5683594,253.86523 a 0.2645835,0.2645835 0 0 0 -0.203125,0.006 0.2645835,0.2645835 0 0 0 -0.1308594,0.34961 l 1.03125,2.27735 a 0.2645835,0.2645835 0 0 0 0.3496094,0.13086 0.2645835,0.2645835 0 0 0 0.1308594,-0.34961 l -1.0292969,-2.27539 a 0.2645835,0.2645835 0 0 0 -0.1484375,-0.13868 z"
         id="path32100" />
      <path
         style="color:#000000;fill:#3a4d5c;fill-opacity:1;stroke-width:0.794878;stroke-linecap:round;stroke-linejoin:round;-inkscape-stroke:none"
         d="m 3.2519531,251.27148 -1.7578125,1.75977 a 0.2645835,0.2645835 0 0 0 0,0.37305 0.2645835,0.2645835 0 0 0 0.3730469,0 l 1.7597656,-1.75782 a 0.2645835,0.2645835 0 0 0 0,-0.375 0.2645835,0.2645835 0 0 0 -0.375,0 z"
         id="path31798" />
      <path
         id="path96020"
         style="color:#000000;fill:#143441;fill-opacity:1;stroke-width:0.794878;stroke-linecap:round;stroke-linejoin:round;-inkscape-stroke:none"
         d="m 3.2519979,251.27149 -0.7865155,0.78755 0.1870688,0.56069 0.9746176,-0.97307 z"
         sodipodi:nodetypes="ccccc" />
      <path
         style="color:#000000;fill:#3a4d5c;fill-opacity:1;stroke-width:0.794878;stroke-linecap:round;stroke-linejoin:round;-inkscape-stroke:none"
         d="m 3.7988281,250.93359 a 0.26461046,0.26461046 0 0 0 -0.2714843,0.0625 l -0.5507813,0.55078 a 0.26461046,0.26461046 0 0 0 -0.0625,0.27149 l 0.2753906,0.82422 a 0.26461046,0.26461046 0 0 0 0.0625,0.10351 l 0.5507813,0.55078 a 0.26461046,0.26461046 0 0 0 0.375,0 l 1.0996093,-1.0996 a 0.26461046,0.26461046 0 0 0 0,-0.375 l -0.5507812,-0.55079 a 0.26461046,0.26461046 0 0 0 -0.1035156,-0.0625 z"
         id="path31602" />
      <path
         style="color:#000000;fill:#3a4d5c;fill-opacity:1;stroke-width:0.794878;stroke-linecap:round;stroke-linejoin:round;-inkscape-stroke:none"
         d="m 3,250.75391 a 0.264584,0.264584 0 0 0 -0.1875,0.0781 0.264584,0.264584 0 0 0 0,0.375 l 0.4394531,0.43945 a 0.264584,0.264584 0 0 0 0.375,0 0.264584,0.264584 0 0 0 0,-0.375 L 3.1855469,250.83203 A 0.264584,0.264584 0 0 0 3,250.75391 Z"
         id="path32453" />
      <path
         id="path140392"
         style="color:#000000;fill:#603c39;fill-opacity:1;stroke-width:0.794878;stroke-linecap:round;stroke-linejoin:round;-inkscape-stroke:none"
         d="m 14.085962,260.41205 c -0.121016,0.0118 -0.218435,0.1045 -0.236161,0.22479 -0.05734,0.82896 -0.360862,1.70028 -0.337967,2.51561 l 0.66921,1.75596 0.54312,-3.25665 -0.362769,-1.06195 c -0.03963,-0.11584 -0.153557,-0.18936 -0.275436,-0.17776 z"
         sodipodi:nodetypes="scccccss" />
      <path
         id="path106331"
         style="color:#000000;fill:#143441;fill-opacity:1;stroke-width:0.794878;stroke-linecap:round;stroke-linejoin:round;-inkscape-stroke:none"
         d="m 11.650452,255.45317 -0.214974,0.85732 h 2.000395 l -0.214974,-0.85732 z"
         sodipodi:nodetypes="ccccc" />
      <path
         style="color:#000000;fill:#a7e3fa;stroke-width:0.794878;stroke-linecap:round;stroke-linejoin:round;-inkscape-stroke:none"
         d="m 8.9960938,249.96094 c -0.4352373,0 -0.7949219,0.35773 -0.7949219,0.79297 v 4.23437 c 0,0.43524 0.3596777,0.79297 0.7949219,0.79297 H 15.875 c 0.435244,0 0.792969,-0.35773 0.792969,-0.79297 v -4.23437 c 0,-0.43524 -0.357732,-0.79297 -0.792969,-0.79297 z"
         id="path104029" />
      <path
         id="path34254"
         style="color:#000000;fill:#ececec;stroke-width:3.00427;stroke-linecap:round;stroke-linejoin:round;-inkscape-stroke:none"
         d="m 30.996094,-97.789062 v 2 h 32 v -2 z"
         transform="matrix(0.26458334,0,0,0.26458334,0,280.06666)" />
      <path
         id="path42940"
         style="color:#000000;fill:#87d1ee;stroke-width:3.00427;stroke-linecap:round;stroke-linejoin:round;-inkscape-stroke:none"
         d="m 47,-108.61719 a 1.0000006,1.0000006 0 0 0 -0.708984,0.29492 l -2.826172,2.82618 a 1.0000006,1.0000006 0 0 0 0,1.41797 1.0000006,1.0000006 0 0 0 1.417968,0 l 2.826172,-2.82813 a 1.0000006,1.0000006 0 0 0 0,-1.41602 A 1.0000006,1.0000006 0 0 0 47,-108.61719 Z m 2.828125,2.82813 a 1.0000006,1.0000006 0 0 0 -0.708984,0.29297 l -2.828125,2.82812 a 1.0000006,1.0000006 0 0 0 0,1.41797 1.0000006,1.0000006 0 0 0 1.417968,0 l 2.828125,-2.82812 a 1.0000006,1.0000006 0 0 0 0,-1.41797 1.0000006,1.0000006 0 0 0 -0.708984,-0.29297 z"
         transform="matrix(0.26458334,0,0,0.26458334,0,280.06666)" />
      <path
         style="color:#000000;fill:#cccccc;fill-opacity:1;stroke-width:0.794878;stroke-linecap:round;stroke-linejoin:round;-inkscape-stroke:none"
         d="m 6.8417969,255.64844 a 0.2645835,0.2645835 0 0 0 -0.265625,0.26562 0.2645835,0.2645835 0 0 0 0.265625,0.26367 h 0.5664062 c 0.2223201,0 0.3964849,0.17613 0.3964844,0.39844 a 0.2645835,0.2645835 0 0 0 0.265625,0.26367 0.2645835,0.2645835 0 0 0 0.2636719,-0.26367 c 1.2e-6,-0.5083 -0.4174741,-0.92773 -0.9257813,-0.92773 z"
         id="path38691" />
      <path
         id="path41759"
         style="color:#000000;fill:#cccccc;fill-opacity:1;stroke-width:3.00427;stroke-linecap:round;stroke-linejoin:round;-inkscape-stroke:none"
         d="m 23.9375,-103.78711 a 1.0000006,1.0000006 0 0 0 -0.492188,0.16602 1.0000006,1.0000006 0 0 0 -0.28125,1.38867 c 0.414662,0.62199 0.431814,0.90006 0.40625,1.0918 -0.02555,0.19162 -0.156249,0.42187 -0.40625,0.79687 -0.25,0.374929 -0.615407,0.900746 -0.714843,1.646484 -0.09944,0.745777 0.129504,1.588775 0.714843,2.466797 a 1.0000006,1.0000006 0 0 0 1.388672,0.279297 1.0000006,1.0000006 0 0 0 0.279297,-1.386719 c -0.414661,-0.621996 -0.431813,-0.907874 -0.40625,-1.099609 0.02555,-0.191622 0.15625,-0.416011 0.40625,-0.791016 0.250001,-0.374929 0.625173,-0.900704 0.72461,-1.646484 0.09943,-0.74578 -0.139274,-1.58682 -0.72461,-2.46484 a 1.0000006,1.0000006 0 0 0 -0.634765,-0.42774 1.0000006,1.0000006 0 0 0 -0.259766,-0.0195 z m -3.367188,1.78125 a 1.0000006,1.0000006 0 0 0 -1,0.86524 c -0.02555,0.19162 -0.15039,0.42187 -0.40039,0.79687 -0.250001,0.374929 -0.62322,0.900746 -0.722656,1.646484 -0.09944,0.745777 0.137316,1.588775 0.722656,2.466797 a 1.0000006,1.0000006 0 0 0 1.380859,0.279297 1.0000006,1.0000006 0 0 0 0.28125,-1.386719 c -0.414659,-0.621996 -0.431813,-0.909827 -0.40625,-1.101562 0.02555,-0.191622 0.15625,-0.414058 0.40625,-0.789063 0.250001,-0.374929 0.623221,-0.900704 0.722657,-1.646484 a 1.0000006,1.0000006 0 0 0 -0.863282,-1.12109 1.0000006,1.0000006 0 0 0 -0.121094,-0.01 z"
         transform="matrix(0.26458334,0,0,0.26458334,0,280.06666)" />
      <path
         id="path93977"
         style="color:#000000;fill:#143441;fill-opacity:1;stroke-width:0.794878;stroke-linecap:round;stroke-linejoin:round;-inkscape-stroke:none"
         d="m 1.4872477,253.8481 a 0.2645835,0.2645835 0 0 0 -0.1219565,0.0233 0.2645835,0.2645835 0 0 0 -0.1307412,0.34933 l 0.3074747,0.67955 c 0.1788901,-0.0524 0.3327239,-0.16691 0.436149,-0.31781 l -0.2614827,-0.5783 a 0.2645835,0.2645835 0 0 0 -0.1483114,-0.13901 0.2645835,0.2645835 0 0 0 -0.081132,-0.0171 z" />
      <path
         style="color:#000000;fill:#3a4d5c;fill-opacity:1;stroke-width:0.794878;stroke-linecap:round;stroke-linejoin:round;-inkscape-stroke:none"
         d="m 1.3222656,252.81445 c -0.4352436,0 -0.79297146,0.35773 -0.79296873,0.79297 5.5e-6,0.43524 0.35773081,0.79492 0.79296873,0.79492 0.435238,0 0.7949164,-0.35968 0.7949219,-0.79492 2.7e-6,-0.43524 -0.3596782,-0.79297 -0.7949219,-0.79297 z"
         id="path31908" />
      <path
         id="path99975"
         style="color:#000000;fill:#143441;fill-opacity:1;stroke-width:0.794878;stroke-linecap:round;stroke-linejoin:round;-inkscape-stroke:none"
         d="m 2.1952148,256.1229 c -0.3800853,0 -0.7078588,0.24535 -0.833541,0.58446 0.09522,-0.0353 0.1976494,-0.0553 0.3043743,-0.0553 h 0.6211507 c 0.4868105,0 0.888829,0.40202 0.8888347,0.88883 v 0.3576 h 0.2635498 a 0.26460996,0.26460996 0 0 0 0.2656169,-0.26561 v -0.62115 c -5.7e-6,-0.48681 -0.4020242,-0.88884 -0.8888347,-0.88884 z" />
      <path
         id="path127689"
         style="color:#000000;fill:#bfbfbf;fill-opacity:1;stroke-width:3.00427;stroke-linecap:round;stroke-linejoin:round;-inkscape-stroke:none"
         d="m 25.859375,-92.289062 a 1.0000006,1.0000006 0 0 0 -1.003906,1.003906 1.0000006,1.0000006 0 0 0 1.003906,0.996094 H 28 c 0.320269,0 0.614454,0.09745 0.855469,0.263671 v -2.15625 C 28.581462,-92.251691 28.294604,-92.289062 28,-92.289062 Z"
         transform="matrix(0.26458334,0,0,0.26458334,0,280.06666)" />
      <path
         id="path114587"
         style="color:#000000;fill:#cccccc;fill-opacity:1;stroke-width:3.00427;stroke-linecap:round;stroke-linejoin:round;-inkscape-stroke:none"
         d="m 18.144531,-94.289062 c -0.555317,-0.0021 -1.006023,0.448589 -1.003906,1.003906 v 2 c -0.0021,-0.555317 0.448589,-1.006023 1.003906,-1.003906 h 4.554688 a 2.15625,2.15625 45 0 1 2.15625,2.15625 v 5.34375 c 0.0021,0.552264 -0.443831,1.001698 -0.996094,1.003906 h 2 c 0.552263,-0.0022 0.9982,-0.451642 0.996094,-1.003906 v -8.496094 c -0.01426,-0.693315 -0.57969,-1.01063 -0.996269,-1.004162 -2.571556,-3.5e-5 -5.143113,1.41e-4 -7.714669,2.56e-4 z"
         transform="matrix(0.26458334,0,0,0.26458334,0,280.06666)"
         sodipodi:nodetypes="cccccccccccc" />
      <path
         id="path134553"
         style="color:#000000;fill:#9a605c;stroke-width:3.00427;stroke-linecap:round;stroke-linejoin:round;-inkscape-stroke:none"
         d="m 10.001953,-78.787109 a 1.0001006,1.0001006 0 0 0 -0.9882811,1.166015 l 4.0000001,23.998047 a 1.0001006,1.0001006 0 0 0 0.990234,0.833985 h 3.992188 a 1.0001006,1.0001006 0 0 0 0.990234,-1.158204 l -4.001953,-24.005859 a 1.0001006,1.0001006 0 0 0 -0.980469,-0.833984 z m 39.996094,0 a 1.0001006,1.0001006 0 0 0 -0.982422,0.833984 l -4,24.005859 a 1.0001006,1.0001006 0 0 0 0.980469,1.158204 h 4.001953 a 1.0001006,1.0001006 0 0 0 0.988281,-0.833985 l 4.001953,-23.998047 a 1.0001006,1.0001006 0 0 0 -0.990234,-1.166015 z"
         transform="matrix(0.26458334,0,0,0.26458334,0,280.06666)" />
      <path
         id="path142293"
         style="color:#000000;fill:#603c39;fill-opacity:1;stroke-width:3.00427;stroke-linecap:round;stroke-linejoin:round;-inkscape-stroke:none"
         d="m 10.001953,-78.787109 a 1.0001006,1.0001006 0 0 0 -0.9882811,1.166015 l 0.4726562,2.833985 h 6.0253909 l -0.527344,-3.166016 a 1.0001006,1.0001006 0 0 0 -0.980469,-0.833984 z m 39.996094,0 a 1.0001006,1.0001006 0 0 0 -0.982422,0.833984 l -0.527344,3.166016 h 6.027344 l 0.472656,-2.833985 a 1.0001006,1.0001006 0 0 0 -0.990234,-1.166015 z"
         transform="matrix(0.26458334,0,0,0.26458334,0,280.06666)" />
      <path
         style="color:#000000;fill:#734845;stroke-width:0.794878;stroke-linecap:round;stroke-linejoin:round;-inkscape-stroke:none"
         d="m 1.0585937,257.36914 c -0.43523254,0 -0.79492382,0.35774 -0.79492182,0.79297 v 0.79492 c -2e-6,0.43523 0.35968928,0.79297 0.79492182,0.79297 H 15.875 c 0.435233,0 0.792975,-0.35774 0.792969,-0.79297 v -0.79492 c -3e-6,-0.43523 -0.357736,-0.79297 -0.792969,-0.79297 z"
         id="path134361" />
      <path
         id="path98291"
         style="color:#000000;fill:#143441;fill-opacity:1;stroke-width:0.794878;stroke-linecap:round;stroke-linejoin:round;-inkscape-stroke:none"
         d="m 3.7165692,250.9196 c -0.070736,-8.1e-4 -0.1388509,0.0267 -0.1891358,0.0765 l -0.017571,0.0176 0.5839436,0.19534 c 0.038809,0.0126 0.074181,0.034 0.1033529,0.0625 l 0.5508707,0.55087 c 0.1036267,0.10339 0.1036267,0.27126 0,0.37465 l -1.0221598,1.02268 0.076998,0.077 c 0.1033867,0.10363 0.2712673,0.10363 0.374654,0 l 1.0996745,-1.09968 c 0.1036267,-0.10339 0.1036267,-0.27126 0,-0.37465 l -0.5508707,-0.55087 c -0.029172,-0.0285 -0.064544,-0.0499 -0.1033529,-0.0625 l -0.824239,-0.27544 z"
         sodipodi:nodetypes="cccccccccccccccc" />
      <path
         id="path101659"
         style="color:#000000;fill:#143441;fill-opacity:1;stroke-width:0.794878;stroke-linecap:round;stroke-linejoin:round;-inkscape-stroke:none"
         d="m 0.56378971,253.37785 c 0.0727006,-0.0222 0.1498436,-0.0341 0.2294435,-0.0341 0.43524359,0 0.79478609,0.35748 0.79478349,0.79272 -1.1e-6,0.0801 -0.012535,0.15777 -0.03514,0.23099 0.324566,-0.10019 0.5643021,-0.40504 0.5643066,-0.76016 2.6e-6,-0.43524 -0.3595399,-0.79271 -0.7947835,-0.79271 -0.3779246,-0.004 -0.69003571,0.29931 -0.75861009,0.56326 z"
         sodipodi:nodetypes="csscscc" />
      <path
         id="path104605"
         style="color:#000000;fill:#87d1ee;fill-opacity:1;stroke-width:0.794878;stroke-linecap:round;stroke-linejoin:round;-inkscape-stroke:none"
         d="m 8.9963504,249.961 c -0.3556723,0 -0.66097,0.23893 -0.7606771,0.56379 2.3357627,-0.0882 4.7495757,0 7.1101607,0 0.435237,0 0.792716,0.32288 0.792716,0.75812 0,1.35557 -0.03411,4.46381 -0.03411,4.46381 0.154164,-0.0364 0.567697,-0.29072 0.563273,-0.75861 v -4.23437 c 0,-0.43524 -0.35748,-0.79272 -0.792717,-0.79272 z"
         sodipodi:nodetypes="cccsccssc" />
      <path
         id="path135522"
         style="color:#000000;fill:#603c39;fill-opacity:1;stroke-width:0.794878;stroke-linecap:round;stroke-linejoin:round;-inkscape-stroke:none"
         d="m 1.05885,257.36934 c -0.35568198,0 -0.66098208,0.23891 -0.76067708,0.56379 0.073375,-0.0226 0.1512083,-0.0346 0.2315104,-0.0346 H 15.345834 c 0.435233,0 0.792713,0.35749 0.792716,0.79272 v 0.79478 c 2e-6,0.0796 -0.01191,0.15678 -0.03411,0.22945 0.324638,-0.0994 0.563278,-0.40311 0.563273,-0.75861 v -0.79479 c -3e-6,-0.43523 -0.357483,-0.79271 -0.792716,-0.79271 z" />
      <path
         id="path144835"
         style="color:#000000;fill:#e5c478;fill-opacity:1;stroke-width:0.794878;stroke-linecap:round;stroke-linejoin:round;-inkscape-stroke:none"
         d="m 6.8786501,260.27924 c -0.3464607,-0.0149 -0.6094798,0.28844 -0.6500895,0.52913 H 9.525517 c 0.362173,0 0.659908,0.2998 0.659908,0.66198 v 0.64905 c 0.322886,-0.0694 0.529169,-0.29362 0.529169,-0.64854 v -0.52968 c 0,-0.36218 -0.297735,-0.66197 -0.659908,-0.66197 z"
         sodipodi:nodetypes="cccccsscc" />
    </g>
  </g>
</svg>
