<?xml version="1.0" encoding="utf-8"?><svg viewBox="0 0 2000 2000" xmlns="http://www.w3.org/2000/svg" xmlns:xlink="http://www.w3.org/1999/xlink"><style>:root>svg{display:none}:root>svg:target{display:block}</style><svg viewBox="0 0 120 120" id="adress" xmlns="http://www.w3.org/2000/svg"><circle cx="60" cy="48.5" r="15.1"/><path d="M60-.4c-33.1 0-60 26.9-60 60s26.9 60 60 60 60-26.9 60-60-26.9-60-60-60zm0 98S33.6 75 33.7 47.8c0-14.5 11.8-26.2 26.3-26.2s26.4 11.7 26.3 26.2C86.3 75 60 97.6 60 97.6z"/></svg><svg fill="none" viewBox="0 0 31 30" id="arnament" xmlns="http://www.w3.org/2000/svg"><g clip-path="url(#bclip0_280_55)"><path d="M17.472 12.028h1.132v-1.273h1.133V9.623h1.273V3.538h-1.274V4.81h-1.132v1.132h-1.132v1.274H16.2V13.16h1.273v-1.132zM11.387 10.755h1.274v1.273h1.132v1.132h1.274V7.217h-1.274V5.943h-1.132V4.811h-1.274V3.538h-1.132v6.085h1.132v1.132zM13.793 17.972h-1.132v1.132h-1.274v1.273h-1.132V26.321h1.132v-1.132h1.274v-1.274h1.132v-1.132h1.274V16.84h-1.274v1.132zM19.736 19.104h-1.132v-1.132h-1.132V16.84H16.2v5.943h1.273v1.132h1.132v1.274h1.133v1.132h1.273V20.377h-1.274v-1.273z" fill="#3FA9F5"/><path d="M12.661 13.16v-1.132h-1.274v-1.273h-1.132V9.623H4.17v1.132h1.274v1.273h1.132v1.132H7.85v1.274h5.943V13.16h-1.132z" fill="#3FA9F5"/><path d="M17.472 15.566v-1.132H16.2V13.16h-1.132v1.274h-1.274v1.132h1.274v1.274h1.132v-1.274h1.273z" fill="red"/><path d="M6.576 8.35H8.982V5.942H7.85V4.811H6.576v1.132H5.444v1.274h1.132v1.132zM24.548 8.35V7.216h1.273V5.943h-1.273V4.811h-1.132v1.132h-1.274V8.35H24.548zM24.548 21.51H22.142v2.405h1.274v1.274h1.132v-1.274h1.273v-1.132h-1.273v-1.274zM6.576 21.51v1.273H5.444v1.132h1.132v1.274H7.85v-1.274h1.132V21.51H6.576z" fill="#FCEE21"/><path d="M11.387 19.104v-1.132h1.274V16.84h1.132v-1.274H7.85v1.274H6.576v1.132H5.444v1.132H4.17v1.273H10.255v-1.273h1.132zM25.821 17.972h-1.273V16.84h-1.132v-1.274H17.472v1.274h1.132v1.132h1.132v1.132h1.274v1.273H26.953v-1.273h-1.132v-1.132zM19.736 10.755v1.273h-1.132v1.132h-1.132v1.274h5.944V13.16h1.132v-1.132h1.273v-1.273h1.132V9.623H21.01v1.132h-1.274z" fill="#3FA9F5"/><path d="M4.17 17.972V16.84h1.274v-1.274h1.132v-1.132H5.444V13.16H4.17v-1.132H3.038v1.132H1.765v1.274H.633v1.132h1.132v1.274h1.273v1.132H4.17zM17.472 25.189H16.2v-1.274h-1.132v1.274h-1.274v1.132h-1.132v1.273h1.132v1.132h1.274V30h1.132v-1.274h1.273v-1.132h1.132v-1.273h-1.132v-1.132zM29.36 14.434V13.16h-1.133v-1.132h-1.274v1.132h-1.132v1.274h-1.273v1.132h1.273v1.274h1.132v1.132h1.274V16.84h1.132v-1.274h1.274v-1.132h-1.274zM13.793 4.811h1.274v1.132h1.132V4.811h1.273V3.538h1.132V2.406h-1.132V1.132H16.2V0h-1.132v1.132h-1.274v1.274h-1.132v1.132h1.132V4.81z" fill="red"/></g><defs><clipPath id="bclip0_280_55"><path fill="#fff" transform="translate(.633)" d="M0 0h30v30H0z"/></clipPath></defs></svg><svg viewBox="0 0 512 512" id="bags" xmlns="http://www.w3.org/2000/svg"><path d="M441.87 197.57a7.5 7.5 0 007.5-7.5v-41.15a7.5 7.5 0 00-7.5-7.5h-53.11V86.292C388.76 38.71 350.05 0 302.468 0c-16.637 0-32.59 4.707-46.475 13.633C242.57 5.02 226.631 0 209.533 0c-47.582 0-86.293 38.71-86.293 86.292v55.127H70.13a7.5 7.5 0 00-7.5 7.5v49.72a7.5 7.5 0 0015 0v-42.22h251.68V389c0 4.142 3.357 7.5 7.5 7.5s7.5-3.358 7.5-7.5V156.42h38.542v301.07l-38.542 31.27V424c0-4.142-3.357-7.5-7.5-7.5s-7.5 3.358-7.5 7.5v73H77.63V233.64a7.5 7.5 0 00-15 0V504.5a7.5 7.5 0 007.5 7.5h371.74a7.5 7.5 0 007.5-7.5V225.07c0-4.142-3.357-7.5-7.5-7.5s-7.5 3.358-7.5 7.5v263.297l-36.519-30.79V156.42h36.519v33.65a7.5 7.5 0 007.5 7.5zm-51.61 273.225L421.339 497h-63.378zM302.468 15c39.311 0 71.292 31.981 71.292 71.292v55.127h-17.325V86.292c0-29.758-24.209-53.967-53.967-53.967a53.74 53.74 0 00-22.118 4.746 86.97 86.97 0 00-11.673-13.527C279.015 17.939 290.527 15 302.468 15zM138.24 86.292C138.24 46.981 170.222 15 209.533 15s71.292 31.981 71.292 71.292v55.127H263.5V86.292c0-29.758-24.209-53.967-53.967-53.967s-53.968 24.209-53.968 53.967v55.127H138.24zm77.935 55.128h-45.61V86.292c0-21.487 17.481-38.967 38.968-38.967a38.755 38.755 0 0114.584 2.842 86.22 86.22 0 00-7.942 36.125zm15-55.128a71.221 71.221 0 015.649-27.78c7.2 7.074 11.676 16.912 11.676 27.78v55.127h-17.325zm64.65 55.128V86.292a85.74 85.74 0 00-7.947-36.106 38.784 38.784 0 0114.589-2.861c21.486 0 38.967 17.48 38.967 38.967v55.127h-45.609z"/></svg><svg viewBox="0 0 512.499 512.499" id="baloons" xmlns="http://www.w3.org/2000/svg"><path d="M475.921 100.499c-23.224-24.343-54.734-37.75-88.727-37.75-4.704 0-9.417.263-14.065.781a142.335 142.335 0 00-16.171-20.435C330.599 15.466 294.833.25 256.25.25c-25.721 0-50.708 6.902-72.261 19.961a7.5 7.5 0 007.773 12.829c19.208-11.639 41.508-17.79 64.488-17.79 72.544 0 127.25 58.953 127.25 137.13 0 2.249-.045 4.531-.134 6.784a7.501 7.501 0 0014.989.591c.097-2.449.146-4.93.146-7.375 0-26.868-5.933-52.293-17.093-74.463 1.927-.099 3.857-.167 5.789-.167 62.884 0 110.304 51.134 110.304 118.942 0 34.136-11.967 68.496-32.833 94.27-21.206 26.193-48.719 40.619-77.471 40.619-23.661 0-46.855-10.006-66.159-28.355 7.884-5.054 15.465-11.061 22.668-17.993 23.924-23.023 41.583-54.763 49.722-89.372a7.5 7.5 0 00-14.601-3.435c-15.72 66.823-67.269 115.324-122.577 115.324-35.562-.09-66.601-18.661-89.453-46.861C142.776 231.219 129 191.669 129 152.38c0-38.267 13.126-73.239 36.96-98.474a7.501 7.501 0 00-10.906-10.3 142.34 142.34 0 00-15.69 19.923c-4.646-.517-9.358-.78-14.061-.78-33.992 0-65.503 13.406-88.727 37.75C12.99 125.223 0 159.385 0 196.692c0 36.747 12.736 73.984 34.943 102.165a7.5 7.5 0 0011.782-9.284C26.563 263.988 15 230.134 15 196.692 15 128.884 62.42 77.75 125.304 77.75c1.933 0 3.865.068 5.794.168C119.938 100.093 114 125.526 114 152.38c0 42.665 14.994 85.654 41.138 117.947 10.889 13.45 23.134 24.487 36.31 32.913-19.302 18.34-42.489 28.341-66.144 28.341-19.104 0-38.1-6.545-54.935-18.928a7.498 7.498 0 00-10.485 1.598 7.498 7.498 0 001.598 10.485c11.429 8.406 23.775 14.461 36.545 18.039L87.955 372.99c-1.698 4.666 2.153 10.008 7.115 9.872h23.068c1.19 13.347 5.463 21.295 9.311 28.414 4.207 7.783 7.84 14.504 7.84 28.78s-3.633 20.998-7.84 28.781c-4.521 8.363-9.645 17.843-9.645 35.914a7.5 7.5 0 0015 0c0-14.276 3.633-20.998 7.84-28.781 4.521-8.363 9.645-17.843 9.645-35.914s-5.124-27.55-9.645-35.913c-3.392-6.276-6.409-11.867-7.451-21.281h22.345c4.963.136 8.813-5.206 7.115-9.872l-10.066-30.199c19.045-5.335 37.028-16.204 52.496-31.919a121.25 121.25 0 0021.327 7.929l-11.859 35.577a7.5 7.5 0 007.115 9.872h26.747c-1.078 11.681-4.682 18.387-8.762 25.934-5.11 9.454-10.902 20.169-10.902 40.566s5.792 31.112 10.902 40.566c4.882 9.031 9.098 16.831 9.098 33.434a7.5 7.5 0 0015 0c0-20.397-5.792-31.112-10.902-40.566-4.882-9.031-9.098-16.831-9.098-33.434s4.216-24.402 9.098-33.434c4.444-8.221 9.398-17.402 10.616-33.066h27.369c4.963.136 8.813-5.206 7.115-9.872l-11.855-35.564c7.262-1.944 14.382-4.6 21.314-7.951 15.47 15.721 33.456 26.593 52.504 31.928l-10.066 30.199c-1.698 4.666 2.153 10.008 7.115 9.872h22.345c-1.042 9.413-4.058 15.005-7.451 21.281-4.521 8.363-9.645 17.842-9.645 35.913s5.124 27.55 9.645 35.914c4.207 7.783 7.84 14.504 7.84 28.781a7.5 7.5 0 0015 0c0-18.071-5.124-27.55-9.645-35.914-4.207-7.783-7.84-14.504-7.84-28.781 0-14.276 3.633-20.998 7.84-28.78 3.848-7.119 8.121-15.067 9.311-28.414h23.068c4.963.136 8.813-5.206 7.115-9.872l-10.05-30.15c23.079-6.414 44.422-20.937 61.83-42.44 22.99-28.396 36.175-66.197 36.175-103.708.002-37.307-12.988-71.469-36.576-96.193zM145.133 367.861h-39.657l7.356-22.068c4.138.522 8.301.787 12.473.787 4.179 0 8.34-.273 12.471-.793zm135.294-18.611h-48.355l9.165-27.495c4.96.654 9.968.995 15.013.995 5.047 0 10.057-.332 15.016-.984zm126.596 18.611h-39.657l7.358-22.074c4.131.52 8.292.793 12.471.793 4.19 0 8.353-.26 12.478-.771z"/></svg><svg viewBox="0 0 512 512" id="braslets" xmlns="http://www.w3.org/2000/svg"><path class="est0" d="M462 300.6c-3.1-1.2-6.6.3-7.8 3.3-1.2 3.1.3 6.6 3.3 7.8 26.6 10.6 41.2 22.9 41.2 34.5 0 15.3-25.6 31.5-68.5 43.6-46.4 13-108.3 20.2-174.2 20.2s-127.8-7.2-174.3-20.2c-40.7-11.4-65.8-26.7-68.3-41.2v-4.8c2.6-14.8 28.3-30.1 69.9-41.6 3.2-.9 5.1-4.2 4.2-7.4-.9-3.2-4.2-5.1-7.4-4.2-65.2 18-78.9 40.1-78.9 55.6 0 1.1.1 2.1.2 3.2l-.2 76.4c0 16.9 15.7 32 46.6 44.7 27.9 11.5 66.6 20.4 112 25.7h.7c3 0 5.6-2.3 6-5.3.4-3.3-2-6.3-5.3-6.7-101.7-11.9-148-38.6-148-58.5l.2-55.3c12.5 11.8 34.4 22.2 65.1 30.8C126 414.6 189 422 256 422s130-7.3 177.5-20.7c30.9-8.7 52.8-19.1 65.2-31v55.5c0 15.3-25.6 31.5-68.5 43.6-46.5 13-108.4 20.2-174.3 20.2-27.2 0-54-1.2-79.5-3.7-3.3-.3-6.2 2.1-6.5 5.4-.3 3.3 2.1 6.2 5.4 6.5 25.9 2.5 53.1 3.7 80.7 3.7 67 0 130-7.3 177.5-20.7 50.5-14.2 77.2-33.2 77.2-55.1V346c.1-17.2-16.3-32.5-48.7-45.4z"/><path class="est0" d="M444.8 306.7c2.5 0 4.9-1.6 5.7-4.1 1-3.1-.7-6.5-3.8-7.6-47.9-15.7-117.4-24.7-190.7-24.7-58.1 0-114.7 5.7-159.5 16.1-3.2.7-5.2 4-4.5 7.2s4 5.2 7.2 4.5c43.9-10.2 99.6-15.8 156.8-15.8 72 0 140.2 8.8 187 24.1.6.2 1.2.3 1.8.3zM132.3 321.7c.3 0 .6 0 1-.1 15-2.4 31-4.4 47.5-5.9 3.3-.3 5.7-3.2 5.4-6.5-.3-3.3-3.2-5.7-6.5-5.4-16.8 1.5-33 3.5-48.3 6-3.3.5-5.5 3.6-5 6.9.4 2.9 3 5 5.9 5zM103 327.3c4.7-1 9.6-2.1 14.6-3 3.3-.6 5.4-3.8 4.8-7-.6-3.3-3.8-5.4-7-4.8-5.1 1-10.1 2-14.9 3.1-3.2.7-5.3 3.9-4.6 7.2.6 2.8 3.1 4.7 5.9 4.7.3 0 .7-.1 1.2-.2zM105.3 376.4C148.7 367 200.8 362 256 362c55.2 0 107.3 5 150.8 14.4.4.1.9.1 1.3.1 2.8 0 5.2-1.9 5.9-4.7.7-3.2-1.4-6.4-4.6-7.1C365.1 355.1 312 350 256 350s-109 5.1-153.3 14.7c-3.2.7-5.3 3.9-4.6 7.1.7 3.3 3.9 5.3 7.2 4.6zM233.2 461.8c3.3 0 6-2.7 6-6s-2.7-6-6-6h-14.7c-3.3 0-6 2.7-6 6s2.7 6 6 6h14.7zM263.3 461.8c3.3 0 6-2.7 6-6s-2.7-6-6-6h-14.7c-3.3 0-6 2.7-6 6s2.7 6 6 6h14.7zM294.3 461.8c3.3 0 6-2.7 6-6s-2.7-6-6-6h-14.7c-3.3 0-6 2.7-6 6s2.7 6 6 6h14.7zM271.9 64.4c39.2-18.1 76-31.1 106.4-37.5l15.5-2.8c28.3-4.1 47-.8 52.8 9.3 7.6 13.2-6.4 40.1-37.5 72-33.8 34.5-83.8 71.6-140.9 104.6-20.6 11.9-41.5 22.9-62.1 32.6-3 1.4-4.3 5-2.9 8 1 2.2 3.2 3.4 5.4 3.4.9 0 1.7-.2 2.6-.6 20.8-9.8 42-21 62.9-33 58-33.5 108.9-71.4 143.4-106.7 22.4-22.9 36.2-43 41-59.4l27.7 48.1c6 10.4-1.6 29.8-20.8 53.4-2.1 2.6-1.7 6.3.9 8.4 1.1.9 2.5 1.4 3.8 1.4 1.7 0 3.5-.8 4.7-2.2 23.2-28.4 30.8-51.6 21.9-67l-39.8-69c-8.7-15-30.5-20.1-65-15.1L376 15.1h-.2c-31.3 6.6-69 19.9-109 38.4-3 1.4-4.3 5-2.9 8s5 4.3 8 2.9z"/><path class="est0" d="M16.7 283.4l3.5 6c1.1 1.9 3.1 3 5.2 3 1 0 2-.3 3-.8 2.9-1.6 3.9-5.3 2.2-8.2l-5.5-9.6c-5.2-14.1 9.4-40.2 39.7-70.9l11.8-11.5c33-30.8 78.4-63.4 127.9-92 18.1-10.4 36.4-20.2 54.4-28.9 3-1.4 4.2-5 2.8-8-1.4-3-5-4.2-8-2.8-18.3 8.9-36.9 18.7-55.2 29.3-50.3 29-96.5 62.3-130.1 93.7l-12 11.7-.1.1C8.7 242.7 8 268.7 15.7 282.1c.3.5.6.9 1 1.3z"/><path class="est0" d="M149 156.2c-13.8 9.7-26.8 19.6-38.9 29.3-2.6 2.1-3 5.9-.9 8.4 1.2 1.5 2.9 2.2 4.7 2.2 1.3 0 2.7-.4 3.8-1.3 11.8-9.6 24.6-19.3 38.2-28.8 2.7-1.9 3.4-5.6 1.5-8.4-2-2.7-5.7-3.3-8.4-1.4zM105.5 205c2.5-2.2 2.8-6 .6-8.5-2.2-2.5-6-2.8-8.5-.6-3.9 3.4-7.8 6.8-11.4 10.1-2.4 2.2-2.6 6-.4 8.5 1.2 1.3 2.8 1.9 4.4 1.9 1.4 0 2.9-.5 4.1-1.6 3.6-3.1 7.4-6.4 11.2-9.8zM139.2 238.7c1.3 0 2.7-.4 3.8-1.3 29.1-23.6 64.1-47.5 101.3-68.9 47.8-27.6 95.4-49.3 137.8-62.9 3.2-1 4.9-4.4 3.9-7.5-1-3.2-4.4-4.9-7.5-3.9-43.2 13.8-91.6 35.9-140.1 63.9-37.7 21.8-73.3 46-102.8 70-2.6 2.1-3 5.9-.9 8.4 1 1.5 2.8 2.2 4.5 2.2zM123.4 238.1c-3.6 3.1-7.2 6.3-10.6 9.4-2.5 2.2-2.6 6-.4 8.5 1.2 1.3 2.8 2 4.4 2 1.4 0 2.9-.5 4-1.6 3.3-3 6.8-6.1 10.4-9.1 2.5-2.2 2.8-5.9.6-8.5-2-2.6-5.8-2.9-8.4-.7zM464.4 175.3c2.2-2.4 2.1-6.2-.4-8.5-2.4-2.2-6.2-2.1-8.5.4-23.5 25.6-57.2 53.4-97.3 80.4-2.7 1.9-3.5 5.6-1.6 8.3 1.2 1.7 3.1 2.7 5 2.7 1.2 0 2.3-.3 3.3-1 41-27.5 75.4-56 99.5-82.3zM390.2 189.5c1.4 0 2.8-.5 3.9-1.5l44.7-38.7c2.5-2.2 2.8-6 .6-8.5-2.2-2.5-6-2.8-8.5-.6L386.3 179c-2.5 2.2-2.8 6-.6 8.5 1.2 1.3 2.9 2 4.5 2zM366.2 207.8c1.3 0 2.6-.4 3.7-1.3l12-9.3c2.6-2 3.1-5.8 1.1-8.4-2-2.6-5.8-3.1-8.4-1.1l-12 9.3c-2.6 2-3.1 5.8-1.1 8.4 1.2 1.6 2.9 2.4 4.7 2.4zM341.2 224.8c1.2 0 2.4-.4 3.5-1.1l12.7-9c2.7-1.9 3.3-5.7 1.4-8.4s-5.7-3.3-8.4-1.4l-12.7 9c-2.7 1.9-3.3 5.7-1.4 8.4 1.2 1.7 3.1 2.5 4.9 2.5z"/></svg><svg viewBox="0 0 512 512" id="call" xmlns="http://www.w3.org/2000/svg"><path d="M436.992 74.953c-99.989-99.959-262.08-99.935-362.039.055s-99.935 262.08.055 362.039 262.08 99.935 362.039-.055a256 256 0 00-.055-362.039zm-49.289 281.652l-.034.034v-.085l-12.971 12.885a68.267 68.267 0 01-64.427 18.432 226.834 226.834 0 01-65.877-29.525 304.371 304.371 0 01-51.968-41.899 306.71 306.71 0 01-38.827-47.104 238.907 238.907 0 01-29.184-59.051 68.265 68.265 0 0117.067-69.717l15.189-15.189c4.223-4.242 11.085-4.257 15.326-.034l.034.034 47.957 47.957c4.242 4.223 4.257 11.085.034 15.326l-.034.034-28.16 28.16c-8.08 7.992-9.096 20.692-2.389 29.867a329.334 329.334 0 0033.707 39.339 327.314 327.314 0 0044.373 37.291c9.167 6.394 21.595 5.316 29.525-2.56l27.221-27.648c4.223-4.242 11.085-4.257 15.326-.034l.034.034 48.043 48.128c4.243 4.222 4.258 11.083.035 15.325z"/></svg><svg viewBox="0 0 512.001 512.001" id="caps" xmlns="http://www.w3.org/2000/svg"><path d="M508.691 102.645c-4.69-6.632-12.967-9.211-20.591-6.418l-125.493 45.947c-31.312-30.686-88.626-78.495-143.921-81.112-27.261-1.287-54.876 6.956-84.395 25.211-28.489 17.618-54.426 42.297-71.458 59.328-31.041 31.042-51.568 70.202-59.359 113.244-7.611 42.048-2.662 84.908 14.313 123.946a7.614 7.614 0 009.242 4.236c12.252-3.805 25.612-.952 35.266 7.074l-21.249 16.833a7.613 7.613 0 00-1.476 10.382 216.576 216.576 0 0023.263 27.521 7.606 7.606 0 005.388 2.23 7.586 7.586 0 004.252-1.301l6.683-4.505a1050.626 1050.626 0 00158.212-130.87 1045.38 1045.38 0 0037.257-39.57l51.126-18.24a8.27 8.27 0 00.247-.093c70.605-27.992 133.5-73.731 181.883-132.272 5.179-6.264 5.504-14.933.81-21.571zM155.532 368.902c-6.927-6.98-13.551-14.036-19.682-21.002a7.615 7.615 0 00-11.431 10.062c6.034 6.854 12.526 13.785 19.301 20.648a1042.568 1042.568 0 01-73.074 54.025l-1.397.941A201.605 201.605 0 0156.273 418.3l22.069-17.483a7.615 7.615 0 001.241-10.696c-11.988-15.131-31.511-22.406-50.266-19.256-13.791-34.674-17.55-72.325-10.856-109.306 5.296-29.255 16.934-56.577 34.096-80.432-.74 6.078-1.15 12.917-.981 20.476 1.232 54.914 31.844 105.185 57.309 137.688a7.603 7.603 0 005.999 2.919 7.614 7.614 0 005.988-12.31c-23.806-30.385-52.507-77.173-54.043-127.517-.908-29.705 8.244-46.961 8.436-47.315.112-.202.209-.407.302-.614a7.68 7.68 0 00.6-.29c.089-.049 9.099-4.904 25.221-7.243 14.898-2.161 39.114-2.554 69.868 7.846.808.274 1.63.403 2.44.403a7.615 7.615 0 002.438-14.83c-32.173-10.88-58.205-11.189-76.585-8.569 12.817-11.373 27.453-23.084 42.751-32.544 26.818-16.583 51.572-24.091 75.666-22.951 51.059 2.416 107.126 50.695 132.894 75.719a1040.428 1040.428 0 01-51.54 70.23c-31.19-30.724-62.687-54.124-93.669-69.538a7.615 7.615 0 00-6.784 13.635c29.88 14.864 60.418 37.67 90.798 67.767a1023.773 1023.773 0 01-134.133 134.813zm340.611-254.386c-46.726 56.535-107.458 100.715-175.635 127.768l-25.561 9.119a1049.942 1049.942 0 0070.68-94.118l127.71-46.757c1.495-.548 2.414.194 2.922.912.51.721.905 1.841-.116 3.076z"/></svg><svg viewBox="0 0 20000 20000" id="e-mail" xmlns="http://www.w3.org/2000/svg"><path d="M20000 10000C20000 4477 15523 0 10000 0S0 4477 0 10000s4477 10000 10000 10000 10000-4477 10000-10000zM4387 5573c-274 0-498 224-498 498v7858c-1 274 224 499 498 499h11226c274 0 499-225 499-499V6071c0-274-225-498-499-498H4387zm1329 1194h8565l-4282 3741-4283-3741zm9399 595v5528l-3132-2792 3132-2736zm-10230 3l3145 2749-3145 2803V7365zm6342 3394l2979 2656H5825l2962-2640 883 771c188 164 468 164 656 0l901-787z" fill-rule="evenodd"/></svg><svg viewBox="0 0 748 748.75" id="flash-drives" xmlns="http://www.w3.org/2000/svg"><path d="M565.594 215.797l24.957-24.953 17.648 17.644-24.957 24.957zm0 0M515.68 165.879l24.953-24.953 17.648 17.648-24.953 24.953zm0 0"/><path d="M161.094 727.45c28.398 28.398 74.445 28.398 102.855 0l369.207-369.208c4.867-4.879 4.867-12.77 0-17.648l-28.613-28.614 140.926-140.925c4.87-4.875 4.87-12.774 0-17.645L595.715 3.656c-4.871-4.875-12.77-4.875-17.645 0L437.145 144.582l-28.614-28.613c-4.875-4.871-12.773-4.871-17.648 0L21.676 485.176c-28.403 28.406-28.403 74.457 0 102.855zm425.8-697.321L719 162.23l-19.793 19.793L567.105 49.918zm-37.44 37.437l132.105 132.102-94.664 94.668L454.789 162.23zM39.32 502.824l360.387-360.383 206.977 206.98L246.3 709.806c-18.656 18.652-48.906 18.652-67.563 0L39.32 570.387c-18.652-18.657-18.652-48.903 0-67.563zm0 0"/><path d="M353.438 228.273l24.953-24.949 17.652 17.649-24.957 24.949zm0 0M253.598 328.117l74.879-74.87 17.644 17.648-74.875 74.875zm0 0"/></svg><svg viewBox="-110 1 511 512" id="footer-facebook" xmlns="http://www.w3.org/2000/svg"><path d="M180 512H98.008c-13.695 0-24.836-11.14-24.836-24.836V302.227H25.336C11.64 302.227.5 291.082.5 277.39v-79.246c0-13.696 11.14-24.836 24.836-24.836h47.836v-39.684c0-39.348 12.355-72.824 35.726-96.805C132.375 12.73 165.184 0 203.778 0l62.53.102c13.672.023 24.794 11.164 24.794 24.835v73.579c0 13.695-11.137 24.836-24.829 24.836l-42.101.015c-12.84 0-16.11 2.574-16.809 3.363-1.152 1.31-2.523 5.008-2.523 15.223v31.352h58.27c4.386 0 8.636 1.082 12.288 3.12 7.88 4.403 12.778 12.727 12.778 21.723l-.031 79.247c0 13.687-11.141 24.828-24.836 24.828h-58.47v184.941C204.84 500.86 193.696 512 180 512zm-76.813-30.016h71.633V288.79c0-9.144 7.442-16.582 16.582-16.582h66.727l.027-68.883h-66.758c-9.14 0-16.578-7.437-16.578-16.582v-44.789c0-11.726 1.192-25.062 10.043-35.086 10.696-12.117 27.551-13.515 39.301-13.515l36.922-.016V30.109l-57.332-.093c-62.024 0-100.566 39.703-100.566 103.609v53.117c0 9.14-7.438 16.582-16.579 16.582H30.516v68.883h56.093c9.141 0 16.579 7.438 16.579 16.582zM266.25 30.117h.004zm0 0"/></svg><svg viewBox="0 0 512.001 512.001" id="footer-insta" xmlns="http://www.w3.org/2000/svg"><path d="M373.406 0H138.594C62.172 0 0 62.172 0 138.594V373.41C0 449.828 62.172 512 138.594 512H373.41C449.828 512 512 449.828 512 373.41V138.594C512 62.172 449.828 0 373.406 0zm108.578 373.41c0 59.867-48.707 108.574-108.578 108.574H138.594c-59.871 0-108.578-48.707-108.578-108.574V138.594c0-59.871 48.707-108.578 108.578-108.578H373.41c59.867 0 108.574 48.707 108.574 108.578zm0 0"/><path d="M256 116.004c-77.195 0-139.996 62.8-139.996 139.996S178.804 395.996 256 395.996 395.996 333.196 395.996 256 333.196 116.004 256 116.004zm0 249.976c-60.64 0-109.98-49.335-109.98-109.98 0-60.64 49.34-109.98 109.98-109.98 60.645 0 109.98 49.34 109.98 109.98 0 60.645-49.335 109.98-109.98 109.98zm0 0M399.344 66.285c-22.813 0-41.367 18.559-41.367 41.367 0 22.813 18.554 41.371 41.367 41.371s41.37-18.558 41.37-41.37-18.558-41.368-41.37-41.368zm0 52.719c-6.258 0-11.352-5.094-11.352-11.352 0-6.261 5.094-11.351 11.352-11.351 6.261 0 11.355 5.09 11.355 11.351 0 6.258-5.094 11.352-11.355 11.352zm0 0"/></svg><svg viewBox="0 0 20000 20000" id="footer-telegram" xmlns="http://www.w3.org/2000/svg"><path d="M10000 20000c5514 0 10000-4486 10000-10000S15514 0 10000 0 0 4486 0 10000s4486 10000 10000 10000zm0-18750c4825 0 8750 3925 8750 8750s-3925 8750-8750 8750-8750-3925-8750-8750 3925-8750 8750-8750z"/><path d="M6580 11796l1307-568-367 368c-118 117-183 277-183 442v2445c0 560 676 832 1066 442l1312-1312 2858 1430c370 185 818-35 895-448l1630-8968c86-482-389-872-843-694L3658 9081c-475 185-538 835-108 1109l2445 1560c175 112 396 129 585 46zm7088-5289l-1280 7046-2517-1258c-244-122-533-71-721 118l-563 563v-678l2506-2505c485-486-61-1288-691-1015l-4014 1741-1129-720 8409-3292z"/></svg><svg viewBox="0 0 496 496" id="footer-viber" xmlns="http://www.w3.org/2000/svg"><path d="M266.688 107.072c65.52 2.176 124.48 62.576 123.68 126.736-.112 8.848 6.976 16.096 15.808 16.208h.208c8.736 0 15.888-7.024 16-15.808 1.024-82.016-71.232-156.352-154.624-159.104-8.736-.72-16.224 6.64-16.528 15.456-.288 8.832 6.624 16.224 15.456 16.512z"/><path d="M262.928 160.304c40.752 4.816 73.648 38.896 73.328 75.984-.08 8.848 7.024 16.064 15.856 16.144h.144c8.768 0 15.92-7.072 16-15.856.448-52.928-45.12-101.392-101.584-108.048-8.72-1.104-16.72 5.232-17.76 14.016-1.024 8.768 5.248 16.736 14.016 17.76z"/><path d="M399.632 309.408l-4.608-3.52c-8.4-6.624-17.184-12.64-25.68-18.448l-5.664-3.888c-15.584-10.72-30.416-14.848-44.016-12.256-12.784 2.432-23.872 10.512-32.944 23.984-2.144 3.152-4.176 6.176-13.456 2.048-16.256-7.216-30.288-16.352-41.712-27.152l-27.984-39.872c-4.72-11.04-2.144-14.352 4.272-18.624 8.096-5.408 24.928-16.656 23.68-39.216-1.264-22.768-46.256-82.944-67.76-90.672-9.792-3.536-20-3.616-30.352-.16-23.392 7.728-40.256 21.6-48.736 40.128-8.128 17.76-7.792 38.304.96 59.36 44.784 107.872 124.8 186.752 237.824 234.464 5.824 2.464 11.792 3.76 15.744 4.64l2.704.608c1.472.4 3.008.544 4.528.544 32.816 0 66.256-29.536 75.872-56.272 11.008-30.496-10.08-46.272-22.672-55.696zm-7.456 44.848c-6.112 17.008-28.08 34.144-44.416 35.072a75.57 75.57 0 01-1.744-.384c-3.12-.688-7.008-1.536-10.112-2.848-105.024-44.336-179.28-117.44-220.736-217.264-5.232-12.624-5.728-24.288-1.392-33.744 4.688-10.224 14.944-18.208 29.696-23.072 1.856-.608 3.536-.928 5.12-.928 1.424 0 2.768.256 4.096.752 11.2 5.152 44.944 50.288 46.88 62.416.16 2.608-.432 4.768-9.472 10.8-12.096 8.064-30.144 26.528-15.088 59.776.4.912.896 1.76 1.472 2.576l29.776 42.432a17.134 17.134 0 001.968 2.32c14.32 13.872 31.84 25.44 52.032 34.416 21.456 9.6 40.784 4.72 52.992-13.392 4.128-6.144 8.288-9.648 12.368-10.432 6.192-1.168 14.224 3.264 19.888 7.168l5.744 3.936c8.112 5.536 16.24 11.088 23.936 17.168 1.712 1.36 3.488 2.672 5.248 4 13.632 10.208 14.272 12.24 11.744 19.232z"/><path d="M362.944 0H133.056C60.928 0 0 60.944 0 133.056v229.872C0 435.056 60.928 496 133.056 496h229.888C435.056 496 496 435.056 496 362.912V133.056C496 60.944 435.072 0 362.944 0zM464 362.912c0 54.784-46.272 101.072-101.056 101.072H133.056C78.288 463.984 32 417.712 32 362.912V133.056C32 78.288 78.288 32 133.056 32h229.888C417.712 32 464 78.272 464 133.056v229.856z"/></svg><svg viewBox="0 0 512 512" id="keychains" xmlns="http://www.w3.org/2000/svg"><path d="M337 408.5c11.4-12.7 20.3-27.1 26.5-42.9l-14-5.5c-6.5 16.4-16.1 31-28.7 43.6-50.2 50.2-131.9 50.2-182.1 0s-50.2-131.9 0-182.1 131.9-50.2 182.1 0c16 16 27.5 35.9 33.3 57.6 5.6 21.1 5.8 43.4.6 64.6l14.6 3.6c5.9-23.6 5.7-48.6-.6-72.1-4.7-17.4-12.6-33.8-23.3-48.2 3.2-1.1 6.2-3 8.8-5.5 7.3-7.3 8.8-18.3 4.4-27.1l13.8-13.8c8.8 4.4 19.8 2.9 27.1-4.4 7.3-7.3 8.8-18.3 4.4-27.1l13.4-13.4c15.4 10.4 36.5 8.8 50.1-4.8 15.4-15.4 15.4-40.5 0-56s-40.5-15.4-56 0c-13.6 13.6-15.2 34.8-4.8 50.1l-13.4 13.4c-8.8-4.4-19.8-2.9-27.1 4.4-7.3 7.3-8.8 18.3-4.4 27.1l-13.8 13.8c-8.8-4.4-19.8-2.9-27.1 4.4-2.6 2.6-4.4 5.6-5.5 8.7C261.2 157 185 159.8 134 205.5l-.2-.2-28.3 28.3c-56.1 56.1-56.1 147.3 0 203.3s147.3 56.1 203.3 0l28.3-28.3-.1-.1zm85.1-322.9c9.6-9.6 25.1-9.6 34.7 0s9.6 25.1 0 34.7c-9.6 9.6-25.1 9.6-34.7 0s-9.5-25.1 0-34.7zm-33.3 68c3.3 3.3 3.3 8.7 0 12s-8.7 3.3-12 0-3.3-8.7 0-12 8.7-3.3 12 0zM331.5 199c3.3-3.3 8.7-3.3 12 0 3.3 3.3 3.3 8.7 0 12-3.3 3.3-8.7 3.3-12 0-3.4-3.3-3.4-8.7 0-12zM116.1 426.4c-38.3-38.3-47.4-95-27.2-141.9-9.1 45.6 4 94.7 39.3 129.9s84.4 48.3 129.9 39.3c-47.1 20.1-103.7 11-142-27.3z"/><path d="M206.8 279l11.3 11.3-10.6 10.7-11.3-11.3 10.6-10.7zM229.4 301.7l11.3 11.3-10.6 10.6-11.3-11.3 10.6-10.6zM252.1 324.4l11.3 11.3-10.6 10.6-11.3-11.3 10.6-10.6z"/><path d="M167.1 375.4c-8.1-8.1-14.5-17.6-19-28.1l-13.8 5.9c5.2 12.3 12.7 23.3 22.2 32.8 40.4 40.4 106.2 40.4 146.7 0s40.4-106.2 0-146.7-106.2-40.4-146.7 0c-25 25-35.5 60.6-28 95.3l14.7-3.2c-3.4-15.9-2.4-32.1 2.6-46.9L258 396.7c-31 10.3-66.4 3.2-90.9-21.3zM292.5 250c24.5 24.5 31.6 59.9 21.4 90.8L201.7 228.6c30.8-10.3 66.3-3.1 90.8 21.4zm-140.3 19.8c4-7.2 9-13.8 14.9-19.8 6-6 12.7-11 19.8-14.9l120.5 120.5c-3.9 7.1-8.9 13.8-14.9 19.8s-12.7 11-19.8 14.9L152.2 269.8z"/></svg><svg viewBox="0 0 512 512" id="lighters" xmlns="http://www.w3.org/2000/svg"><path d="M346.6 121.9l-6.7-6.7c-2.8-2.8-7.2-2.8-10 0s-2.8 7.2 0 10l6.7 6.7c2.8 2.8 7.2 2.8 10 0 2.8-2.7 2.8-7.2 0-10zM224 236.2c-2.8-2.8-7.2-2.8-10 0l-5.8 5.8c-2.8 2.8-2.8 7.2 0 10s7.2 2.8 10 0l5.8-5.8c2.7-2.7 2.7-7.2 0-10zM203.1 257.1c-2.8-2.8-7.2-2.8-10 0l-82.6 82.6c-2.8 2.8-2.8 7.2 0 10s7.2 2.8 10 0l82.6-82.6c2.8-2.7 2.8-7.2 0-10z"/><path d="M477 216.7l-32-32c24.8-1 44-21.9 43-46.7-.5-11.3-5.1-22-13.1-29.9-15.4-15.2-39.4-17.4-57.2-5.2l-10.5-10.5c5.2 2.1 10.8 3.1 16.4 3.1 22.5 0 43.1-18.1 45.9-40.3l7.6-48.3c.4-2.4-.4-4.8-2.1-6.5-1.7-1.7-4.1-2.4-6.4-2.1l-48.9 7.5C397.3 8.7 379 29.1 379 51.4c0 5.4 1 10.8 3 15.9l-4.3-4.3c-12.6-12.6-33.2-13-45.8-.4L35.7 358.8c-15.6 15.4-15.7 40.5-.3 56.1l87.3 87.3c15.6 15.5 40.7 15.4 56.2-.2l249.7-249.7c2.3-2.3 3.3-5.1 1.4-8.5l26.5-26.5 9.9 9.9c2.9 2.9 7.6 2.9 10.5 0 3-2.9 3-7.6.1-10.5zm-31-9.9l-26.4 26.4-31.6-31.6 26.4-26.4 31.6 31.6zm18.3-88.1c11.7 11.7 11.7 30.7 0 42.4-10.4 10.4-26.9 11.7-38.9 3l21.6-21.6c2.8-2.6 3-7 .3-9.8l-.3-.3-18.7-18.7c11.9-6.5 26.5-4.5 36 5zM394 51.4c0-14.6 12.9-28.9 27.7-30.7h.2l38.9-6-6 38.4v.2c-1.8 14.6-16.4 27.4-31.2 27.4-7.9 0-15.5-3.1-21.1-8.7-5.5-5.5-8.6-12.9-8.5-20.6zm-51.5 21.7c6.8-6.8 17.9-6.3 24.7.4l63.9 63.9-53.6 53.6-76.5-76.4 41.5-41.5zM168.4 491.5c-9.6 9.7-25.3 9.8-35 .2L46 404.4c-9.6-9.7-9.5-25.4.2-35l.1-.1 181-181 18 18c2.9 2.9 7.6 2.9 10.5 0 2.9-2.9 2.9-7.6 0-10.5l-18-18 52.7-52.7 57.1 57.1-52.7 52.8-19.8-19.8c-2.9-2.9-7.6-2.9-10.5 0-2.9 2.9-2.9 7.6 0 10.5l19.8 19.8-167 167c-2.9 2.9-2.9 7.6 0 10.5 2.9 2.9 7.6 2.9 10.5 0l167-167 54.5 54.5-181 181zM359.9 300l-54.5-54.5 52.7-52.7 54.5 54.5-52.7 52.7z"/></svg><svg fill="none" viewBox="0 0 100 50" id="logo" xmlns="http://www.w3.org/2000/svg"><g clip-path="url(#pclip0_263_1523)"><g clip-path="url(#pclip1_263_1523)"><path d="M15.667 16.902l-7.234 7.233v-7.233h7.234zM16.16 17.431v7.234H8.928l7.234-7.234zM7.234 16.902L0 24.135v-7.233h7.234zM7.728 17.431v7.234H.494l7.234-7.234zM15.667 33.098H8.433v-7.233l7.234 7.233zM16.16 25.37v7.234l-7.233-7.233h7.234zM7.234 25.37L0 32.605v-7.233h7.234zM7.728 25.864v7.234H.494l7.234-7.233zM15.667 33.804l-7.234 7.233v-7.233h7.234zM16.16 34.333v7.234H8.928l7.234-7.234zM0 34.333l7.234 7.234H0v-7.234zM7.728 33.804v7.233L.494 33.804h7.234zM8.433 50v-7.234L15.667 50H8.433zM16.16 42.272v7.234l-7.233-7.234h7.234zM0 42.272h7.234L0 49.506v-7.234zM.494 50l7.234-7.234V50H.494z" fill="#4976B3"/><path d="M83.133 33.804l-7.198 7.233v-7.233h7.198z" fill="#4170B5"/><path d="M76.43 41.567l7.233-7.234v7.234h-7.234zM75.23 33.804v7.233l-7.234-7.233h7.233zM15.667 7.728H8.433V.494l7.234 7.234zM16.867 8.963l7.233 7.233h-7.233V8.963zM33.027 8.963v7.233H25.83l7.198-7.233zM24.594 16.902v7.233l-7.198-7.233h7.198zM25.3 24.136v-7.234h7.233L25.3 24.135z" fill="#4976B3"/><path d="M7.234 0L0 7.234V0h7.234z" fill="#706F6F"/><path d="M7.728.494v7.234H.494L7.728.494zM15.667 8.469l-7.234 7.233V8.47h7.234zM16.16 8.963v7.233H8.928l7.234-7.233zM7.728 8.469v7.233L.494 8.47h7.234zM7.234 16.196H0V8.963l7.234 7.233zM49.4 16.902l-7.198 7.233v-7.233H49.4zM49.894 17.431v7.234h-7.198l7.198-7.234zM40.967 16.902l-7.234 7.233v-7.233h7.234zM41.461 17.431v7.234h-7.198l7.198-7.234zM49.4 33.098h-7.198v-7.233l7.198 7.233zM49.894 25.37v7.234l-7.198-7.233h7.198zM40.967 25.37l-7.234 7.234v-7.233h7.234zM41.461 25.864v7.234h-7.198l7.198-7.233zM42.202 33.804H49.4l-7.198 7.233v-7.233zM42.696 41.567l7.198-7.234v7.234h-7.198zM40.967 41.567h-7.234v-7.234l7.234 7.234zM41.461 41.037l-7.198-7.233h7.198v7.233zM49.4 50h-7.198v-7.234L49.4 50zM66.267 33.098h-7.199v-7.233l7.199 7.233zM49.894 42.272v7.234l-7.198-7.234h7.198zM40.967 42.272l-7.234 7.234v-7.234h7.234zM41.461 42.766V50h-7.198l7.198-7.234zM83.133 16.902l-7.198 7.233v-7.233h7.198zM75.23 16.902v7.233l-7.234-7.233h7.233zM83.133 33.098h-7.198v-7.233l7.198 7.233zM74.7 25.37l-7.198 7.234v-7.233H74.7zM75.23 25.864v7.234h-7.234l7.233-7.233zM58.362 0v7.234L51.13 0h7.233zM66.796 8.469v7.233L59.562 8.47h7.234zM57.834 8.469l-7.199 7.233V8.47h7.199zM58.362 8.963v7.233H51.13l7.233-7.233zM66.267 16.902l-7.199 7.233v-7.233h7.199zM66.796 17.431v7.234h-7.234l7.234-7.234zM50.635 17.431l7.199 7.234h-7.199V17.43zM57.834 7.728h-7.199V.494l7.199 7.234zM50.635 34.333l7.199 7.234h-7.199v-7.234zM66.267 16.196h-7.199V8.963l7.199 7.233zM66.796 25.37v7.234l-7.234-7.233h7.234zM57.834 25.37l-7.199 7.234v-7.233h7.199zM58.362 25.864v7.234H51.13l7.233-7.233zM66.267 42.272l-7.199 7.234v-7.234h7.199zM58.362 24.136l-7.233-7.234h7.233v7.233zM66.796 41.037l-7.234-7.233h7.234v7.233zM58.362 41.037l-7.233-7.233h7.233v7.233zM58.362 42.766V50H51.13l7.233-7.234zM66.267 7.728h-7.199V.494l7.199 7.234zM100.035 50h-7.233v-7.234L100.035 50zM84.368 42.766L91.602 50h-7.234v-7.234zM84.368 34.333l7.234 7.234h-7.234v-7.234zM76.43 7.728L83.662.494v7.234h-7.234zM83.133 16.196h-7.198V8.963l7.198 7.233zM49.4 7.728h-7.198V.494L49.4 7.728zM49.894 0v7.234L42.696 0h7.198zM41.461.494v7.234h-7.198L41.46.494zM49.4 8.469l-7.198 7.233V8.47H49.4zM49.894 16.196h-7.198l7.198-7.233v7.233zM100.035 7.728h-7.233V.494l7.233 7.234zM84.368.494l7.234 7.234h-7.234V.494zM92.096 0v7.234L84.862 0h7.234zM84.368 8.469h7.234l-7.234 7.233V8.47zM41.461 8.469v7.233L34.263 8.47h7.198zM33.733 8.963l7.234 7.233h-7.234V8.963z" fill="#4976B3"/></g></g><defs><clipPath id="pclip0_263_1523"><path fill="#fff" d="M0 0h100v50H0z"/></clipPath><clipPath id="pclip1_263_1523"><path fill="#fff" d="M0 0h100.035v50H0z"/></clipPath></defs></svg><svg viewBox="0 0 512 512" id="merchandise" xmlns="http://www.w3.org/2000/svg"><path d="M131.146 403.858l12.91-9.379 12.909 9.379a12.446 12.446 0 0014.672 0 12.448 12.448 0 004.533-13.953l-4.931-15.177 12.909-9.379a12.45 12.45 0 004.534-13.954 12.45 12.45 0 00-11.869-8.623h-15.958l-4.931-15.176v-.001a12.45 12.45 0 00-11.869-8.623 12.45 12.45 0 00-11.87 8.624l-4.931 15.176h-15.957a12.45 12.45 0 00-11.87 8.624 12.448 12.448 0 004.534 13.953l12.91 9.38-4.932 15.177a12.447 12.447 0 004.535 13.953 12.45 12.45 0 0014.672-.001zm10.513-71.627l.002.007-.002-.007zm-10.827 25.541c4.38 0 8.23-2.799 9.583-6.963l3.641-11.203 3.64 11.202a10.05 10.05 0 009.583 6.964h11.78l-9.53 6.924a10.051 10.051 0 00-3.66 11.266l3.64 11.203-9.527-6.922a10.05 10.05 0 00-11.848-.002l-9.53 6.924 3.641-11.204a10.05 10.05 0 00-3.661-11.265l-9.53-6.924zM311.181 187.262h-30.609l-9.46-29.112c-2.167-6.67-8.099-10.979-15.111-10.979s-12.944 4.31-15.111 10.979l-9.46 29.112h-30.609c-7.013 0-12.945 4.31-15.111 10.979-2.167 6.67.099 13.643 5.772 17.764l24.764 17.992-9.459 29.112c-2.167 6.669.098 13.643 5.771 17.765 5.672 4.121 13.005 4.121 18.679 0L256 262.882l24.765 17.992c5.673 4.123 13.004 4.122 18.679 0 5.674-4.122 7.938-11.096 5.771-17.765l-9.459-29.112 24.764-17.991c5.674-4.122 7.939-11.095 5.772-17.765-2.166-6.67-8.099-10.979-15.111-10.979zm.522 16.608l-26.621 19.342a11.81 11.81 0 00-4.301 13.237l10.168 31.295c.079.245.199.615-.323.994-.523.382-.838.151-1.045.001l-26.62-19.341a11.805 11.805 0 00-13.92-.001l-26.622 19.342c-.208.15-.522.382-1.045-.001-.522-.379-.402-.749-.323-.994l10.168-31.294a11.81 11.81 0 00-4.301-13.238l-26.621-19.343c-.208-.15-.522-.379-.323-.993s.589-.614.846-.614h32.906a11.81 11.81 0 0011.26-8.182l10.169-31.296c.08-.244.199-.614.846-.614s.766.37.846.614l10.169 31.297a11.81 11.81 0 0011.26 8.181h32.906c.257 0 .646 0 .846.614s-.117.843-.325.994zM364.634 389.608l14.904 10.829-5.692 17.521a13.023 13.023 0 004.741 14.596 13.021 13.021 0 0015.346 0l14.905-10.829 14.904 10.829a13.021 13.021 0 0015.345 0 13.02 13.02 0 004.743-14.595l-5.692-17.521 14.902-10.828c4.591-3.334 6.497-9.199 4.744-14.595s-6.742-9.021-12.415-9.021h-18.424l-5.692-17.521v-.001a13.022 13.022 0 00-12.417-9.019 13.019 13.019 0 00-12.413 9.02l-5.693 17.521h-18.423a13.02 13.02 0 00-12.415 9.021 13.02 13.02 0 004.742 14.593zm29.457-8.614c4.511 0 8.476-2.882 9.865-7.168l4.882-15.022 4.881 15.023a10.348 10.348 0 009.865 7.167h15.795l-12.782 9.286a10.35 10.35 0 00-3.764 11.596l4.881 15.022-12.779-9.284a10.352 10.352 0 00-12.194 0l-12.778 9.283 4.881-15.021a10.351 10.351 0 00-3.769-11.598l-12.778-9.284z"/><path d="M426.244 219.048c3.995 3.99 10.488 3.987 14.476-.002l68.282-68.282c1.934-1.935 2.998-4.505 2.998-7.239s-1.064-5.305-2.998-7.239l-82.343-82.343c-21.858-21.857-50.92-33.896-81.832-33.896H167.173c-30.912 0-59.974 12.038-81.832 33.896L2.998 136.285C1.064 138.22 0 140.79 0 143.524s1.064 5.305 2.998 7.239l68.282 68.282c3.989 3.989 10.483 3.991 14.479 0l29.085-29.087v104.014h-6.406c-40.821 0-74.032 33.211-74.032 74.032v43.759L8.644 434.516c-7.245 6.398-10.239 16.186-7.813 25.543 2.425 9.356 9.797 16.458 19.237 18.531 81.11 17.817 166.863 17.818 247.976 0 9.853-2.164 17.594-9.868 19.586-20.07h28.362l-1.559 17.822a11.565 11.565 0 002.986 8.796 11.56 11.56 0 008.503 3.741h165.834a11.56 11.56 0 008.503-3.741 11.557 11.557 0 002.986-8.796L488.21 304.499a11.47 11.47 0 00-11.489-10.526h-16.218c-.868-27.747-23.711-50.052-51.665-50.052-4.016 0-7.927.46-11.682 1.331v-55.293zM189.491 46.218a7.498 7.498 0 009.244 5.199 7.499 7.499 0 005.199-9.244 53.876 53.876 0 01-1.483-7.126h107.094C305.884 61.322 283.267 81.611 256 81.611a53.93 53.93 0 01-36.33-14.025 7.5 7.5 0 00-10.084 11.106A68.908 68.908 0 00256 96.612c35.548 0 64.91-26.997 68.66-61.564h10.052c-3.79 40.092-37.644 71.564-78.711 71.564-41.068 0-74.922-31.472-78.711-71.564h10.051a68.806 68.806 0 002.15 11.17zm18.843 270.191c18.101 10.095 30.371 29.439 30.371 51.596v40.72l-11.946 1.863V373.8c0-20.588-5.936-41.45-18.425-57.391zm-50.066-22.436h-28.424v-4.367a5.664 5.664 0 015.658-5.658h17.106a5.665 5.665 0 015.659 5.658v4.367zM49.405 368.005c0-22.156 12.27-41.501 30.371-51.596-12.495 15.949-18.425 36.816-18.425 57.391v36.787l-11.946-1.863zm223.356 88.29c-1.016 3.918-3.982 6.776-7.937 7.645-79.008 17.355-162.53 17.355-241.538 0-3.954-.868-6.921-3.727-7.937-7.645-1.015-3.918.189-7.857 3.224-10.537l25.657-22.66 17.659 2.753a536.087 536.087 0 0031.278 3.935c4.11.395 7.786-2.626 8.182-6.75a7.5 7.5 0 00-6.75-8.182 520.224 520.224 0 01-18.247-2.078V373.8c0-35.746 20.522-64.827 45.748-64.827h43.911c25.226 0 45.748 29.081 45.748 64.827v38.977a519.916 519.916 0 01-82.271 4.238c-4.182-.098-7.591 3.146-7.708 7.286a7.5 7.5 0 007.286 7.708 534.716 534.716 0 0097.157-6.157l17.658-2.753 25.657 22.66c1.9 1.678 3.082 3.85 3.452 6.201a10.695 10.695 0 01-.229 4.335zm136.077-197.374c19.682 0 35.793 15.578 36.654 35.052h-48.335v-33.145a36.51 36.51 0 0111.681-1.907zm-36.654 35.052c.401-9.083 4.12-17.318 9.972-23.521v23.521zm-15.011 0h-16.218a11.47 11.47 0 00-11.489 10.528l-3.657 41.799a7.5 7.5 0 006.818 8.125c4.1.353 7.764-2.69 8.125-6.818l3.38-38.634h129.412l14.427 164.906H329.704l1.934-22.099.017-.193 5.9-67.434a7.5 7.5 0 00-6.818-8.125c-4.095-.358-7.764 2.691-8.125 6.818l-5.308 60.673H286.02a25.57 25.57 0 00-6.553-9.004l-25.762-22.752v-43.759c0-40.821-33.211-74.032-74.032-74.032h-6.405v-4.367c0-11.391-9.268-20.658-20.659-20.658h-17.106c-1.961 0-3.859.275-5.658.788V95.918c0-4.143-3.357-7.5-7.5-7.5s-7.5 3.357-7.5 7.5v73.477a10.301 10.301 0 00-2.478 1.828L78.52 205.071l-61.547-61.547L95.948 64.55c17.858-17.858 41.24-28.185 66.293-29.385 3.891 48.318 44.456 86.446 93.759 86.446s89.868-38.128 93.759-86.446c25.053 1.199 48.436 11.526 66.293 29.385l78.976 78.975-61.547 61.547-33.849-33.85a10.27 10.27 0 00-2.476-1.826V95.918c0-4.143-3.357-7.5-7.5-7.5s-7.5 3.357-7.5 7.5v155.436c-14.539 8.798-24.417 24.555-24.983 42.619z"/></svg><svg viewBox="0 0 512 512" id="mugs" xmlns="http://www.w3.org/2000/svg"><path d="M302.898 323.452H59.073c-4.143 0-7.5-3.357-7.5-7.5s3.357-7.5 7.5-7.5h243.825c4.143 0 7.5 3.357 7.5 7.5s-3.357 7.5-7.5 7.5zM183.342 364.729H59.073c-4.143 0-7.5-3.357-7.5-7.5s3.357-7.5 7.5-7.5h124.269c4.143 0 7.5 3.357 7.5 7.5s-3.358 7.5-7.5 7.5zM286.026 122.787H125.997c-4.143 0-7.5 3.357-7.5 7.5s3.357 7.5 7.5 7.5h160.029c5.168 0 9.372 4.204 9.372 9.372v97.145l-32.717-39.42a24.133 24.133 0 00-18.624-8.746h-.001a24.135 24.135 0 00-18.625 8.746l-21.45 25.845-44.306-53.385c-4.613-5.559-11.402-8.746-18.625-8.746s-14.012 3.188-18.625 8.746L66.573 244.64v-97.481c0-5.168 4.204-9.372 9.372-9.372h14.989c4.143 0 7.5-3.357 7.5-7.5s-3.357-7.5-7.5-7.5H75.945c-13.438 0-24.372 10.934-24.372 24.372V260c0 13.438 10.934 24.372 24.372 24.372h210.081c13.438 0 24.372-10.934 24.372-24.372V147.159c0-13.438-10.933-24.372-24.372-24.372zM68.554 265.742l65.415-78.818c1.754-2.113 4.335-3.326 7.082-3.326s5.328 1.213 7.082 3.326l46.102 55.549-22.325 26.899H75.945c-3.004 0-5.675-1.426-7.391-3.63zm217.472 3.63h-94.622l45.571-54.908a9.177 9.177 0 017.083-3.326 9.177 9.177 0 017.081 3.326l42.411 51.101c-1.709 2.304-4.441 3.807-7.524 3.807z"/><path d="M418.204 74.646h-51.389V42.033c0-13.111-10.666-23.777-23.777-23.777H23.777C10.666 18.256 0 28.922 0 42.033v358.674c0 51.301 41.736 93.037 93.038 93.037h180.739c49.651 0 90.341-39.094 92.908-88.117C447.166 403.562 512 337.451 512 256.481v-88.04c0-51.718-42.077-93.795-93.796-93.795zm-66.389 326.061c0 43.03-35.008 78.037-78.038 78.037H93.038c-43.03 0-78.038-35.007-78.038-78.037V42.033c0-4.84 3.938-8.777 8.777-8.777h319.261c4.84 0 8.777 3.938 8.777 8.777v233.414c0 4.143 3.357 7.5 7.5 7.5s7.5-3.357 7.5-7.5V151.131a24.872 24.872 0 0119.144-14.989l26.56-4.102c14.406-2.221 28.806 3.864 36.676 15.515 4.173 6.175 6.378 13.397 6.378 20.887v88.04c0 41.374-27.779 78.097-67.555 89.303-8.22 2.317-16.894-1.314-21.202-8.681V310.51c0-4.143-3.357-7.5-7.5-7.5s-7.5 3.357-7.5 7.5v90.197zM497 256.481c0 72.654-58.037 132.002-130.185 134.131v-33.309a33.546 33.546 0 0016.172 4.179 33.5 33.5 0 009.099-1.262c46.211-13.02 78.486-55.679 78.486-103.74v-88.04c0-10.494-3.095-20.62-8.948-29.284-11.104-16.436-31.276-25.047-51.395-21.941l-26.56 4.102a39.825 39.825 0 00-16.854 6.803V89.646h51.389c43.448 0 78.796 35.348 78.796 78.796z"/></svg><svg viewBox="0 0 74 74" id="notebooks" xmlns="http://www.w3.org/2000/svg"><path d="M60.651 72h-45a3 3 0 01-3-3V5a3 3 0 013-3h45a6.006 6.006 0 016 6v58a6.006 6.006 0 01-6 6zm-45-68a1 1 0 00-1 1v64a1 1 0 001 1h45a4 4 0 004-4V8a4 4 0 00-4-4z"/><path d="M25.65 32.56a1 1 0 01-1-1V3a1 1 0 012 0v28.56a1 1 0 01-1 1zM25.65 52.44a1 1 0 01-1-1v-2.97a1 1 0 012 0v2.97a1 1 0 01-1 1zM25.65 72a1 1 0 01-1-1V58.44a1 1 0 012 0V71a1 1 0 01-1 1zM25.65 42.47a1 1 0 01-1-1v-2.91a1 1 0 012 0v2.91a1 1 0 01-1 1zM13.651 18.544c-3.534 0-6.3-1.732-6.3-3.943s2.768-3.945 6.3-3.945a1 1 0 010 2c-2.626 0-4.3 1.152-4.3 1.945s1.676 1.943 4.3 1.943 4.3-1.151 4.3-1.943a1 1 0 112 0c.004 2.211-2.765 3.943-6.3 3.943zM13.651 29.745c-3.534 0-6.3-1.733-6.3-3.945s2.768-3.944 6.3-3.944a1 1 0 110 2c-2.626 0-4.3 1.151-4.3 1.944s1.676 1.945 4.3 1.945 4.3-1.152 4.3-1.945a1 1 0 112 0c.004 2.212-2.765 3.945-6.3 3.945zM13.651 40.944c-3.534 0-6.3-1.732-6.3-3.944s2.768-3.944 6.3-3.944a1 1 0 010 2c-2.626 0-4.3 1.151-4.3 1.944s1.676 1.944 4.3 1.944 4.3-1.151 4.3-1.944a1 1 0 012 0c.004 2.212-2.765 3.944-6.3 3.944zM13.651 52.144c-3.534 0-6.3-1.732-6.3-3.944s2.768-3.945 6.3-3.945a1 1 0 110 2c-2.626 0-4.3 1.152-4.3 1.945s1.676 1.944 4.3 1.944 4.3-1.151 4.3-1.944a1 1 0 012 0c.004 2.212-2.765 3.944-6.3 3.944zM13.651 63.344c-3.534 0-6.3-1.733-6.3-3.945s2.768-3.943 6.3-3.943a1 1 0 010 2c-2.626 0-4.3 1.151-4.3 1.943s1.676 1.945 4.3 1.945 4.3-1.152 4.3-1.945a1 1 0 012 0c.004 2.212-2.765 3.945-6.3 3.945zM57.208 19H34.1a1 1 0 010-2h23.108a1 1 0 010 2zM57.208 26H34.1a1 1 0 010-2h23.108a1 1 0 010 2zM57.208 33H34.1a1 1 0 010-2h23.108a1 1 0 010 2z"/></svg><svg fill="none" viewBox="0 0 33 30" id="ork" xmlns="http://www.w3.org/2000/svg"><g clip-path="url(#tclip0_282_74)"><path d="M24.49 4.898l-8.143.612V0l2.204 2.327L20.388 0l2.081 2.388L24.49 0v4.898z" fill="#999"/><path d="M28.592 21.857H24.49v-4.653h.735l6.244-5.633v-4.04c-.183-.123-.367-.123-.612-.184l-2.326 2.082-4.102 3.673V5.51h-8.082V30h16.347v-4.102c-.061-2.204-1.898-4.04-4.102-4.04z" fill="#4B5F20"/><path d="M24.49 4.898v16.47c0 .795-.612 1.408-1.408 1.408h-6.735V5.51l8.143-.612z" fill="#778B2C"/><path d="M21.184 11.326h-4.837v-1.224h5.633l-.796 1.224z" fill="gray"/><path d="M20.51 11.571h-1.959v1.96h1.96v-1.96z" fill="#4D4D4D"/><path d="M21.306 17.755h-4.96v1.53h4.96v-1.53z" fill="#4B5F21"/><path d="M20.816 18.061h-1.898v-2.694l1.898 1.347v1.347z" fill="#fff"/><path d="M26.939 27.306h-1.347V30h1.347v-2.694zM17.694 28.04h-1.347V30h1.347v-1.96z" fill="#45571B"/><path d="M8.143 4.898l8.204.612V0l-2.204 2.327L12.245 0l-2.082 2.388L8.143 0v4.898z" fill="#B3B3B3"/><path d="M4.102 21.857h4.102v-4.653H7.47l-6.306-5.633v-4.04c.184-.123.368-.123.613-.184l2.326 2.082 4.102 3.673V5.51h8.143V30H0v-4.102c0-2.204 1.837-4.04 4.102-4.04z" fill="#738C27"/><path d="M8.143 4.898v16.47c0 .795.612 1.408 1.408 1.408h6.735V5.51l-8.143-.612z" fill="#A3C21C"/><path d="M11.449 11.326h4.898v-1.224h-5.694l.796 1.224z" fill="#999"/><path d="M12.19 13.535h1.959v-1.959h-1.96v1.96z" fill="#666"/><path d="M11.38 19.286h4.96v-1.53h-4.96v1.53z" fill="#61772A"/><path d="M11.816 18.061h1.898v-2.694l-1.898 1.347v1.347z" fill="#fff"/><path d="M5.689 30.015h1.347v-2.694H5.689v2.694zM14.99 30.019h1.347v-1.96H14.99v1.96z" fill="#627728"/></g><defs><clipPath id="tclip0_282_74"><path fill="#fff" d="M0 0h32.633v30H0z"/></clipPath></defs></svg><svg viewBox="0 0 511.949 511.949" id="pens" xmlns="http://www.w3.org/2000/svg"><path d="M340.002 181.678c-6.893.188-12.07-7.53-9.229-13.83 2.869-7.294 13.307-8.307 17.55-1.72 1.44 2.186 2.021 4.936 1.479 7.5-.824 4.584-5.161 8.108-9.8 8.05z"/><path d="M502.689 37.279L474.293 8.855l-.106-.104C462.246-2.85 442.401-2.926 429.95 8.578c-.098.09-.194.183-.288.277l-22.173 22.193-2.856-2.859a10.003 10.003 0 00-14.148 0L43.143 375.851a24.678 24.678 0 00-6.768 12.659 4.098 4.098 0 01-.035.102L.525 498.858a10.001 10.001 0 0012.605 12.6l110.133-35.843c4.808-.933 9.228-3.273 12.767-6.815l293.916-294.186 3.092 3.095c5.17 5.175 5.17 13.595 0 18.77L270.55 359.115c-3.903 3.907-3.9 10.239.007 14.142a9.966 9.966 0 007.067 2.926 9.969 9.969 0 007.074-2.932l162.488-162.638c12.957-12.969 12.957-34.072 0-47.041l-3.104-3.107 39.291-39.327c3.901-3.904 3.901-10.231 0-14.136l-2.869-2.871 22.185-22.206c12.298-12.309 12.298-32.337 0-44.646zM76.772 469.712l-34.523-34.556 6.155-18.946 47.298 47.341zM35.311 456.51l20.127 20.145-29.824 9.707zm86.571-1.846c-1.224 1.225-2.652 1.408-3.395 1.408s-2.17-.183-3.395-1.408L57.29 396.809a4.831 4.831 0 010-6.821l32.707-32.738 64.604 64.663zm46.856-46.9l-25.234-25.257 179.142-179.306c3.903-3.907 3.9-10.239-.007-14.142-3.907-3.904-10.24-3.901-14.142.006L129.368 368.358 104.135 343.1 351.207 95.802l64.603 64.663zm261.208-261.448l-64.603-64.663 32.216-32.247 64.604 64.664zm58.595-78.527l-22.172 22.193-44.744-44.785 22.023-22.043c4.689-4.212 12.219-4.266 16.558-.101l28.335 28.361c4.511 4.515 4.511 11.86 0 16.375z"/></svg><svg viewBox="0 0 20000 20000" id="telegram" xmlns="http://www.w3.org/2000/svg"><path d="M10000 20000c5514 0 10000-4486 10000-10000S15514 0 10000 0 0 4486 0 10000s4486 10000 10000 10000zm0-18750c4825 0 8750 3925 8750 8750s-3925 8750-8750 8750-8750-3925-8750-8750 3925-8750 8750-8750z"/><path d="M6580 11796l1307-568-367 368c-118 117-183 277-183 442v2445c0 560 676 832 1066 442l1312-1312 2858 1430c370 185 818-35 895-448l1630-8968c86-482-389-872-843-694L3658 9081c-475 185-538 835-108 1109l2445 1560c175 112 396 129 585 46zm7088-5289l-1280 7046-2517-1258c-244-122-533-71-721 118l-563 563v-678l2506-2505c485-486-61-1288-691-1015l-4014 1741-1129-720 8409-3292z"/></svg><svg viewBox="0 0 512 512" id="umbrellas" xmlns="http://www.w3.org/2000/svg"><path d="M437.019 77.789c-48.301-48.3-112.505-74.92-180.805-74.975-.071 0-.142-.005-.213-.005-.061 0-.122.004-.182.004-58.19.04-113.012 19.102-158.552 55.137a7.5 7.5 0 109.308 11.763c28.892-22.862 61.76-38.455 96.89-46.21-15.63 13.013-29.885 31.944-42.031 56.236-21.618 43.235-34.474 99.184-36.797 159.257-14.598-12.992-34.302-20.584-55.016-20.584-20.107 0-39.271 7.155-53.729 19.463 4.814-56.253 28.983-108.555 69.266-149.044a7.501 7.501 0 00-10.634-10.579C26.466 126.556 0 190.68 0 258.811a7.502 7.502 0 0013.845 4c11.432-18.134 32.804-29.399 55.775-29.399 22.978 0 44.354 11.265 55.785 29.399a7.501 7.501 0 0012.69 0c11.432-18.134 32.804-29.399 55.775-29.399 22.226 0 42.951 10.541 54.63 27.642v93.039c-10.132 3.193-17.5 12.676-17.5 23.849v59.03c0 12.252-9.968 22.22-22.22 22.22-12.253 0-22.221-9.968-22.221-22.22v-26.29c0-13.785-11.215-25-25-25s-25 11.215-25 25v26.29c0 39.822 32.398 72.22 72.221 72.22S281 476.794 281 436.971v-8.4c0-4.142-3.357-7.5-7.5-7.5s-7.5 3.358-7.5 7.5v8.4c0 31.551-25.669 57.22-57.22 57.22-31.552 0-57.221-25.668-57.221-57.22v-26.29c0-5.514 4.486-10 10-10s10 4.486 10 10v26.29c0 20.523 16.697 37.22 37.221 37.22S246 457.494 246 436.971v-59.03c0-5.514 4.486-10 10-10s10 4.486 10 10v20.63c0 4.142 3.357 7.5 7.5 7.5s7.5-3.358 7.5-7.5v-20.63c0-11.173-7.368-20.656-17.5-23.849v-93.039c11.678-17.101 32.4-27.642 54.62-27.642 22.978 0 44.354 11.265 55.785 29.399a7.501 7.501 0 0012.69 0c11.432-18.134 32.804-29.399 55.775-29.399 22.978 0 44.354 11.265 55.785 29.399a7.5 7.5 0 0013.845-4c0-68.381-26.629-132.67-74.981-181.021zM193.87 218.411c-20.325 0-39.681 7.313-54.191 19.867 2.367-57.468 14.64-110.769 35.171-151.832 20.291-40.582 46.205-64.431 73.649-68.119v220.32c-14.557-12.782-34.099-20.236-54.629-20.236zm124.25 0c-20.525 0-40.064 7.454-54.62 20.235V18.328c27.444 3.688 53.359 27.537 73.649 68.119 20.531 41.062 32.805 94.364 35.171 151.832-14.511-12.555-33.87-19.868-54.2-19.868zm124.25 0c-20.708 0-40.411 7.592-55.007 20.583-2.323-60.073-15.179-116.021-36.797-159.256-12.136-24.271-26.377-43.191-41.992-56.203 44.3 9.808 84.978 32.003 117.837 64.861 40.549 40.548 64.869 93.002 69.697 149.48-14.458-12.31-33.625-19.465-53.738-19.465z"/></svg><svg viewBox="0 0 20000 20000" id="viber" xmlns="http://www.w3.org/2000/svg"><path d="M19186 11577c596-5018-287-8186-1879-9619l1-1C14739-490 6062-852 2988 2067 1607 3495 1121 5590 1068 8185c-54 2595-117 7457 4413 8775h4l-4 2014s-31 816 491 980c596 194 866-185 2720-2400 3100 269 5482-347 5752-437 626-210 4169-679 4742-5540zM8997 16137s-1962 2447-2572 3082c-200 207-419 188-416-222 0-269 15-3344 15-3344-3841-1100-3614-5240-3573-7406 42-2166 438-3940 1607-5135 2697-2529 10305-1963 12243-142 2369 2101 1526 8036 1531 8238-487 4058-3358 4315-3886 4491-225 75-2319 614-4949 438z"/><path d="M10083 3587c-321 0-321 500 0 504 2487 19 4535 1753 4558 4932 0 336 491 332 487-4h-1c-27-3426-2263-5413-5044-5432z"/><path d="M13354 8496c-7 332 483 347 487 12 41-1889-1124-3445-3313-3609-320-24-353 480-34 503 1899 144 2899 1440 2860 3094zM12830 10645c-412-238-830-90-1004 144l-362 469c-184 238-528 206-528 206-2509-663-3180-3289-3180-3289s-31-356 199-546l453-375c226-180 369-613 139-1038-616-1113-1030-1497-1241-1792-221-277-554-340-901-152h-7c-720 421-1509 1209-1256 2021 430 856 1221 3584 3742 5646 1185 975 3060 1974 3856 2205l7 11c785 262 1547-557 1954-1299v-6c181-359 121-699-143-921-468-456-1174-960-1728-1284z"/><path d="M10871 6757c801 47 1189 464 1230 1323 15 335 502 312 487-23-53-1121-637-1746-1690-1804-320-19-350 485-27 504z"/></svg></svg>