<?xml version="1.0" encoding="iso-8859-1"?><svg viewBox="0 0 512 512" xmlns="http://www.w3.org/2000/svg" xmlns:xlink="http://www.w3.org/1999/xlink"><style>:root>svg{display:none}:root>svg:target{display:block}</style><svg viewBox="0 0 512.001 512.001" id="035cook_113744" xmlns="http://www.w3.org/2000/svg"><path d="M468.423 121.676c0 37.187-29.665 67.425-66.62 68.36v170.97h-291.62v-170.97c-36.955-.935-66.62-31.173-66.62-68.36 0-37.77 30.61-68.38 68.38-68.38 9.935 0 19.368 2.112 27.885 5.923 8.296-28.418 34.542-49.163 65.635-49.163 20.011 0 38.021 8.598 50.531 22.304 12.509-13.706 30.52-22.304 50.531-22.304 31.093 0 57.338 20.745 65.635 49.163 8.517-3.811 17.95-5.923 27.885-5.923 37.768 0 68.378 30.61 68.378 68.38z" fill="#efefef"/><g fill="#f7941e"><path d="M235.882 446.697c.004 24.667-19.597 50.781-44.342 54.754-12.106 2.492-53.856-3.983-91.909-19.003-38.151-13.745-72.605-36.037-72.408-35.752-.196-.286 34.257-.368 72.409-8.997 38.052-7.354 79.802-23.254 91.909-25.746 24.743-3.97 44.344 9.983 44.341 34.744zM276.105 446.697c-.004 24.667 19.597 50.781 44.342 54.754 12.106 2.492 53.856-3.983 91.909-19.003 38.151-13.745 72.605-36.037 72.409-35.752.196-.286-34.257-.368-72.409-8.997-38.052-7.354-79.802-23.254-91.909-25.746-24.745-3.97-44.346 9.983-44.342 34.744z"/></g><g fill="#231f20"><path d="M100.128 199.232v161.774c0 5.554 4.502 10.056 10.056 10.056h291.62c5.554 0 10.056-4.502 10.056-10.056V199.232c16.791-2.528 32.258-10.418 44.307-22.755 14.389-14.735 22.313-34.196 22.313-54.8 0-43.249-35.186-78.436-78.436-78.436-7.519 0-14.863 1.042-21.943 3.104C365.613 18.603 337.542 0 306.524 0c-18.544 0-36.471 6.628-50.531 18.45C241.932 6.628 224.006 0 205.463 0c-31.019 0-59.09 18.603-71.577 46.344-7.08-2.062-14.425-3.104-21.943-3.104-43.249 0-78.436 35.186-78.436 78.436 0 20.603 7.924 40.066 22.313 54.8 12.049 12.338 27.516 20.228 44.308 22.756zm11.815-135.88c8.295 0 16.295 1.697 23.778 5.046a10.057 10.057 0 0013.76-6.361c7.205-24.684 30.226-41.925 55.981-41.925 16.357 0 32.067 6.935 43.103 19.027a10.057 10.057 0 0014.854 0c11.036-12.092 26.747-19.027 43.103-19.027 25.755 0 48.775 17.241 55.982 41.925a10.054 10.054 0 0013.76 6.361c7.482-3.349 15.482-5.046 23.777-5.046 32.16 0 58.324 26.164 58.324 58.324 0 31.889-24.958 57.501-56.819 58.307-5.452.139-9.801 4.599-9.801 10.053V350.95H120.239V190.036c0-5.454-4.349-9.914-9.801-10.053-31.862-.805-56.819-26.418-56.819-58.307 0-32.16 26.164-58.324 58.324-58.324zM230.877 411.996c-10.529-8.976-25.066-12.517-40.931-9.97-.146.023-.29.049-.433.079-4.744.976-12.441 3.434-23.092 6.836-18.778 5.996-44.496 14.209-68.697 18.887-.104.02-.207.042-.311.064-30.763 6.958-58.683 8.184-67.858 8.588-.865.038-1.777.078-2.702.178a9.969 9.969 0 00-8.544 5.381c-1.685 3.257-1.468 7.264.59 10.303l.036.052c1.1 1.624 2.682 2.644 4.34 3.657 24.632 15.038 50.48 27.75 72.803 35.807C128.996 504.83 165.421 512 184.864 512c3.366 0 6.224-.215 8.465-.652 28.539-4.701 52.608-34.255 52.606-64.652.004-14.097-5.344-26.42-15.058-34.7zm-5.051 34.703c.003 20.809-16.763 41.754-35.88 44.824-.146.023-.29.049-.433.079-9.106 1.876-48.748-3.729-86.189-18.507a11.915 11.915 0 00-.284-.107c-13.038-4.697-27.405-11.111-42.038-18.717 11.87-1.319 25.945-3.4 40.693-6.727 25.321-4.907 51.626-13.307 70.842-19.444 9.129-2.915 17.036-5.44 20.821-6.252 9.861-1.534 18.543.4 24.472 5.454 5.232 4.461 7.998 11.168 7.996 19.397 0-.002 0-.001 0 0zM494.306 443.519a9.853 9.853 0 00-.629-1.481c-1.243-2.401-2.928-3.735-4.759-4.491a9.937 9.937 0 00-3.785-.89c-.925-.1-1.837-.14-2.702-.178-9.175-.403-37.096-1.63-67.858-8.588a11.437 11.437 0 00-.311-.064c-24.2-4.677-49.919-12.89-68.697-18.887-10.652-3.402-18.349-5.86-23.092-6.836a10.942 10.942 0 00-.433-.079c-15.863-2.546-30.401.995-40.931 9.97-9.714 8.28-15.062 20.602-15.061 34.7v.002c-.002 30.394 24.068 59.948 52.606 64.649 2.242.437 5.097.652 8.465.652 19.444-.001 55.871-7.171 88.786-20.142 22.323-8.058 48.172-20.77 72.803-35.807l.769-.47a10.005 10.005 0 003.582-3.204l.002-.003a10.033 10.033 0 001.753-5.921 9.951 9.951 0 00-.508-2.932zm-85.359 29.469c-.096.034-.189.07-.284.107-37.441 14.779-77.081 20.38-86.189 18.507a9.379 9.379 0 00-.433-.079c-19.117-3.069-35.883-24.014-35.88-44.824v-.003c-.001-8.229 2.763-14.935 7.995-19.395 4.603-3.924 10.866-5.966 18.052-5.966 2.07 0 4.215.169 6.42.512 3.785.812 11.691 3.337 20.821 6.252 19.217 6.137 45.522 14.537 70.843 19.444 14.748 3.328 28.823 5.408 40.693 6.727-14.633 7.608-29 14.02-42.038 18.718zm74.313-16.339l.06.003c1.961.283 3.97-.022 5.755-.867-1.685.815-3.749 1.166-5.815.864z"/><path d="M173.535 321.453c5.554 0 10.056-4.502 10.056-10.056V198.771c0-5.554-4.502-10.056-10.056-10.056-5.554 0-10.056 4.502-10.056 10.056v112.626c.001 5.553 4.503 10.056 10.056 10.056zM255.993 209.833c5.554 0 10.056-4.502 10.056-10.056v-1.006c0-5.554-4.502-10.056-10.056-10.056s-10.056 4.502-10.056 10.056v1.006c.001 5.554 4.503 10.056 10.056 10.056zM255.993 321.453c5.554 0 10.056-4.502 10.056-10.056v-70.224c0-5.554-4.502-10.056-10.056-10.056s-10.056 4.502-10.056 10.056v70.224c.001 5.553 4.503 10.056 10.056 10.056zM338.451 321.453c5.554 0 10.056-4.502 10.056-10.056V198.771c0-5.554-4.502-10.056-10.056-10.056s-10.056 4.502-10.056 10.056v112.626c.001 5.553 4.503 10.056 10.056 10.056z"/></g></svg><svg viewBox="0 0 512 512" id="call" xmlns="http://www.w3.org/2000/svg"><path d="M436.992 74.953c-99.989-99.959-262.08-99.935-362.039.055s-99.935 262.08.055 362.039 262.08 99.935 362.039-.055a256 256 0 00-.055-362.039zm-49.289 281.652l-.034.034v-.085l-12.971 12.885a68.267 68.267 0 01-64.427 18.432 226.834 226.834 0 01-65.877-29.525 304.371 304.371 0 01-51.968-41.899 306.71 306.71 0 01-38.827-47.104 238.907 238.907 0 01-29.184-59.051 68.265 68.265 0 0117.067-69.717l15.189-15.189c4.223-4.242 11.085-4.257 15.326-.034l.034.034 47.957 47.957c4.242 4.223 4.257 11.085.034 15.326l-.034.034-28.16 28.16c-8.08 7.992-9.096 20.692-2.389 29.867a329.334 329.334 0 0033.707 39.339 327.314 327.314 0 0044.373 37.291c9.167 6.394 21.595 5.316 29.525-2.56l27.221-27.648c4.223-4.242 11.085-4.257 15.326-.034l.034.034 48.043 48.128c4.243 4.222 4.258 11.083.035 15.325z"/></svg><svg viewBox="0 0 22.578 22.578" id="chef_cook_man_avatar_icon_210198" xmlns="http://www.w3.org/2000/svg"><g stroke-width=".795" color="#000"><path style="-inkscape-stroke:none" d="M7.385 9.58a.333.333 0 00-.314.223l-.55 1.577a.333.333 0 00.127.386l1.948 1.331a.333.333 0 00.376 0l1.95-1.331a.333.333 0 00.125-.386l-.55-1.577a.333.333 0 00-.312-.223z" fill="#ffa185"/><path style="-inkscape-stroke:none" d="M15.881 9.963a.333.333 0 00-.295.125s-.826 1.157-1.233 2.56c-.41-.33-.913-.72-.913-.72a.333.333 0 00-.052-.025l-2.18-.86a.333.333 0 00-.247 0s-.367.148-.83.295c-.463.148-1.034.288-1.346.288-.311 0-.885-.14-1.348-.288-.463-.147-.828-.294-.828-.294a.333.333 0 00-.245 0l-2.184.86a.333.333 0 00-.05.024s-.378.228-.778.545c-.396.315-.838.678-.965 1.194-.01.027-.283.739-.233 1.712.047.943.47 2.126 1.64 3.095v2.136c0 .548.45.998.998.998h7.985c.547 0 1-.45 1-.998v-4.435c.19-.017.404-.023.89-.138.66-.156 1.454-.428 1.97-1.007a.333.333 0 00.05-.074s.954-1.94.592-4.593a.333.333 0 00-.297-.287z" fill="#d0e2ee"/><path style="-inkscape-stroke:none" d="M4.691 16.828l-.897 2.06v.371l3.792.658 1.133.16a.91.91 0 001.03-.894v-.845z" fill="#a8c2e1"/><path style="-inkscape-stroke:none" d="M5.072 15.958a.333.333 0 00-.381.204l-.808 2.061a.333.333 0 00.255.45l3.41.574a.333.333 0 00.388-.329v-1.645a.333.333 0 00-.07-.202c-.174-.229-.418-.35-.702-.476a7.999 7.999 0 00-.916-.332c-.617-.187-1.176-.305-1.176-.305z" fill="#d0e2ee"/><path style="-inkscape-stroke:none" d="M10.893 6.585l-.266.069a.333.333 0 00-.245.353l.137 1.445a.333.333 0 00.393.297c.167-.031.345-.065.53-.123.559-.152.895-.735.745-1.294a1.06 1.06 0 00-1.294-.747zM6.678 6.585a1.063 1.063 0 00-1.297.747c-.15.56.19 1.143.75 1.294 0 0-.002.003 0 .003.183.057.36.09.525.12a.333.333 0 00.393-.297l.137-1.445a.333.333 0 00-.245-.353z" fill="#ffa185"/><path style="-inkscape-stroke:none" d="M7.334 6.133a.333.333 0 00-.568.096c-.279.745-.473 1.554-.36 2.392.087.655.302 1.168.768 1.55.198.162.44.307.707.422.637.305 1.24.198 1.774.003l.017-.008a3.59 3.59 0 00.712-.41c.503-.38.688-.885.779-1.557l.002-.017c.064-.775-.041-1.652-.368-2.393a.333.333 0 00-.258-.196z" fill="#ffccbc"/><path style="-inkscape-stroke:none" d="M8.338.976c-.642-.051-1.369.237-2.134.835-.208-.026-.431-.042-.66.059a.333.333 0 00-.023.013c-.777.415-1.046 1.189-.85 1.822.197.633.815 1.132 1.604 1.132a.333.333 0 00.015 0l.022-.002c.397.647.432 1.48.432 1.48a.333.333 0 00.076.244s.06.065.136.12c.076.056.186.122.338.185.305.124.777.233 1.491.233.715 0 1.184-.11 1.489-.233.152-.063.262-.129.339-.185.076-.055.135-.12.135-.12a.333.333 0 00.051-.088c.326-.804.192-1.549.158-1.798.316-.068.645-.135.923-.327a1.43 1.43 0 00.629-1.186c0-.254-.066-.6-.248-.96s-.5-.732-.992-.887a.333.333 0 00-.02-.005c-.53-.13-.929.105-1.297.358-.46-.323-.976-.64-1.614-.69z" fill="#d0e2ee"/><path style="-inkscape-stroke:none" d="M15.44 8.632a.333.333 0 00-.332.331v.924c0 .405.333.742.739.742h1.1c.146 0 .343-.01.543-.042.2-.033.41-.08.597-.24.379-.327.68-.835.68-1.384a.333.333 0 00-.334-.331z" fill="#ffccbc"/><path style="-inkscape-stroke:none" d="M16.77 5.638a3.332 3.332 0 00-3.328 3.325.333.333 0 00.334.334h5.988a.333.333 0 00.334-.334 3.332 3.332 0 00-3.328-3.325z" fill="#7d8e9e"/><path style="-inkscape-stroke:none" d="M8.719 16.779l-1.162.164a.333.333 0 00-.287.33v1.645a.333.333 0 00.287.33l1.162.164a.909.909 0 001.03-.894v-.845a.909.909 0 00-1.03-.894z" fill="#ffccbc"/><path style="-inkscape-stroke:none" d="M8.144.978c-.607-.004-1.277.23-1.99.795a1.231 1.231 0 00-.611.098.33.33 0 00-.022.011c-.777.416-1.046 1.19-.85 1.823.197.634.816 1.132 1.604 1.132h.012s.033 0 .087-.004c.377.579.376 1.292.371 1.449a9.913 9.913 0 00-.107.291 1.065 1.065 0 00-1.257.76c-.15.56.19 1.143.75 1.294.098.03.193.054.286.075.082.529.252.964.582 1.308l-.363 1.04a2.17 2.17 0 01-.447-.242.333.333 0 00-.467.061.333.333 0 00.017.42c-.906.263-1.752.684-2.387 1.184-1 .783-1.229 1.835-1.166 2.901.065.934.447 2.113 1.608 3.077v2.16c0 .547.45.997.998.997h7.985c.547 0 1-.45 1-.997v-4.43c.197-.03.42-.069.655-.12.77-.166 1.67-.432 2.205-1.031a.332.332 0 00.05-.074s.895-1.82.622-4.345c.059-.006.12-.014.181-.024.2-.034.41-.08.597-.24.3-.26.552-.633.643-1.05h1.369a.333.333 0 000-.665h-.017a3.334 3.334 0 00-2.98-2.978v-.35a.334.334 0 00-.666 0v.35a3.334 3.334 0 00-2.977 2.978h-.017a.333.333 0 000 .665h1.666v.59c0 .21.09.403.234.538-.29.422-.765 1.2-1.048 2.11l-.078-.062c-.4-.318-.777-.545-.777-.545a.295.295 0 00-.05-.025l-1.557-.613a.333.333 0 00-.205-.549.333.333 0 00-.246.067 2.168 2.168 0 01-.449.243l-.36-1.034c.346-.342.497-.773.579-1.315.094-.02.19-.045.29-.075.56-.15.896-.734.746-1.294a1.063 1.063 0 00-1.254-.76 10.031 10.031 0 00-.085-.232c.214-.621.195-1.29.164-1.641.33-.079.665-.202.946-.42.316-.245.55-.64.55-1.12 0-.254-.065-.601-.247-.961-.183-.36-.5-.731-.993-.887a1.788 1.788 0 00-1.424.278c-.428-.293-.922-.548-1.503-.602a2.316 2.316 0 00-.197-.01zm-.055.666c.064-.001.128.001.19.007.386.036.747.202 1.096.426a1.215 1.215 0 00-.187.461.333.333 0 00.656.116c.223-.552.819-.793 1.235-.698.276.091.462.294.588.542.127.253.176.548.176.661a.673.673 0 01-.292.595c-.191.148-.485.257-.793.322-.617.128-1.258.083-1.258.083a.333.333 0 00-.051.663s.392.032.896-.015c.019.324.022.894-.135 1.341-.457.235-1.034.281-1.425.283-.473-.001-.947-.064-1.37-.248 0-.293-.041-.881-.334-1.458.386-.092.849-.26 1.233-.565a.333.333 0 00-.413-.522c-.568.453-1.618.533-1.63.534-.51-.003-.855-.311-.964-.664-.108-.35-.017-.732.519-1.026.233-.095.504-.02.754.125.254.149.434.334.434.334a.333.333 0 00.482-.459s-.232-.243-.573-.444c.443-.284.823-.39 1.166-.394zm8.681 4.66a2.656 2.656 0 012.642 2.328h-5.284a2.655 2.655 0 012.642-2.329zm-5.57 1.7v-.1a.333.333 0 00-.666.016c.003.158 0 .377-.03.611-.117.84-.444 1.107-1.085 1.44-.507.125-.911.18-1.267.016-.678-.27-1.01-.913-1.086-1.454a4.299 4.299 0 01-.032-.613.333.333 0 00-.666-.015v.098l-.066-.017a.385.385 0 01-.277-.482.383.383 0 01.479-.277h.002l.263.07a.333.333 0 00.4-.208c.026-.085.053-.168.08-.246l.045.02c.305.125.777.234 1.491.234.522-.023 1.071-.066 1.536-.254l.07.22c.048.177.23.283.408.235l.266-.071a.383.383 0 01.479.277.386.386 0 01-.278.482zm4.57 1.293h2.252a1.538 1.538 0 01-.37.546.863.863 0 01-.272.088c-.143.024-.31.032-.433.032h-1.1c-.046 0-.076-.03-.076-.076zm-5.76 1.123l.297.856c-.499.154-.995.254-1.523.345-.575-.096-1-.195-1.522-.344l.295-.845c.101.058.209.111.32.16h.002c.637.306 1.242.198 1.776.002zm6.003.209h.627c.266 2.3-.49 3.891-.53 3.974-.342.362-1.115.656-1.818.808-.715.154-1.329.194-1.329.194a.332.332 0 00.042.663l.106-.008v4.35a.328.328 0 01-.334.332h-.332v-4.887c0-1.244-.368-2.314-.776-3.118a.332.332 0 00-.447-.145.333.333 0 00-.147.447c.373.736.704 1.703.704 2.816v4.887H4.792a.326.326 0 01-.332-.331v-1.884l3.087.52v-.002l.01.002 1.162.165a.91.91 0 001.03-.894v-.845a.909.909 0 00-1.03-.894l-.994.14c-.156-.137-.347-.23-.56-.324a10.123 10.123 0 00-1.398-.468c.275-.172.62-.337.94-.35a.333.333 0 10-.027-.664c-.42.017-.805.164-1.117.337.015-.174.021-.346.024-.51.011-.614-.06-1.136-.06-1.136a.333.333 0 00-.376-.282.333.333 0 00-.286.376s.066.476.057 1.029c-.01.553-.135 1.165-.332 1.375a.333.333 0 10.486.454c.03-.03.056-.062.082-.094.611.145 1.137.305 1.734.54.164.073.3.156.378.213v1.109l-2.913-.49c-1.115-.863-1.448-1.876-1.506-2.707-.09-1.1.149-1.713.917-2.333.774-.657 1.778-.914 2.708-1.28.359.147.753.255 1.115.344.156.038.305.071.442.1a2.001 2.001 0 00-.252.249c-.156.185-.285.422-.285.702a.333.333 0 10.665 0c0-.361.433-.552.744-.733.386.18.863.383.863.794a.333.333 0 10.665 0c0-.28-.127-.517-.282-.702a2.173 2.173 0 00-.393-.358l.218-.052a8.154 8.154 0 001.117-.343l2.023.795c.02.013.334.205.685.484.362.287.708.696.741.837a.333.333 0 00.649-.152 1.496 1.496 0 00-.347-.64c.264-1.074.923-2.066 1.169-2.41zm-5.23 2.993a.333.333 0 10-.003.666.333.333 0 00.002-.666zm.333 1.664a.333.333 0 10-.002.666.333.333 0 00.002-.666zm0 1.664a.333.333 0 10-.002.665.333.333 0 00.002-.665zm-2.263.484a.23.23 0 01.23.239v.845c0 .15-.121.257-.27.235l-.877-.124v-1.067zm2.263 1.179a.333.333 0 10-.002.665.333.333 0 00.002-.665z"/></g></svg><svg viewBox="0 0 22.578 22.578" id="workspace_table_study_work_furniture_icon_209731" xmlns="http://www.w3.org/2000/svg"><g stroke-width=".795" color="#000"><path style="-inkscape-stroke:none" d="M11.29 15.78a.333.333 0 00-.334.335v4.327a.333.333 0 00.334.332.333.333 0 00.332-.332v-4.327a.333.333 0 00-.332-.334zm-1.344.002a.333.333 0 00-.3.217l-1.85 4.993a.333.333 0 00.197.428.333.333 0 00.43-.196l1.848-4.993a.333.333 0 00-.197-.428.333.333 0 00-.128-.02zm2.688 0a.333.333 0 00-.128.02.333.333 0 00-.196.429l1.848 4.993a.333.333 0 00.427.196.333.333 0 00.197-.428L12.934 16a.333.333 0 00-.3-.217z" fill="#9a605c"/><path style="-inkscape-stroke:none" d="M10.956 16.115v.997h.666v-.997zm-1.31-.116l-.411 1.11.71.003.326-.881zm2.664.232l.326.881.709-.002-.41-1.11zM18.36 14.284a.333.333 0 00-.298.283l-.445 2.998a.333.333 0 00.02.167l1.332 3.494a.333.333 0 00.31.214h1.331a.333.333 0 00.315-.44l-2.22-6.492a.333.333 0 00-.346-.224z" fill="#734845"/><path style="-inkscape-stroke:none" d="M15.617 7.793a.333.333 0 00-.322.253l-.334 1.331a.333.333 0 00.324.413h1.996a.333.333 0 00.324-.413l-.334-1.331a.333.333 0 00-.322-.253z" fill="#3a4d5c"/><path style="-inkscape-stroke:none" d="M14.951 9.124c-.547 0-.997.45-.997.998v.666a.333.333 0 00.331.334h3.996a.333.333 0 00.331-.334v-.666c0-.548-.45-.998-.997-.998z" fill="#3a4d5c"/><path style="-inkscape-stroke:none" d="M6.678 7.626a.333.333 0 00-.334.334v2.828a.333.333 0 00.334.334h2.568a.333.333 0 00.331-.334V7.96a.333.333 0 00-.331-.334z" fill="#ececec"/><path style="-inkscape-stroke:none" d="M4.218 14.284a.333.333 0 00-.344.224L1.656 21a.333.333 0 00.314.44h1.332a.333.333 0 00.31-.214l1.331-3.494a.333.333 0 00.018-.167l-.443-2.998a.333.333 0 00-.3-.283z" fill="#734845"/><path style="-inkscape-stroke:none" d="M4.518 14.567a.333.333 0 00-.643-.06l-.457 1.337.683 4.098.843-2.21c-.05-1.053-.271-2.117-.426-3.165z" fill="#603c39"/><path style="-inkscape-stroke:none" d="M9.292 14.117a.839.839 0 00-.833.833v.666c0 .456.378.83.833.83h3.996c.455 0 .83-.374.83-.83v-.666a.837.837 0 00-.83-.833z" fill="#fed883"/><path style="-inkscape-stroke:none" d="M3.4 8.888c-.612 0-1.118.506-1.118 1.118v.782a.333.333 0 00.334.334h2.35a.333.333 0 00.334-.334v-.782c0-.612-.506-1.118-1.118-1.118z" fill="#3a4d5c"/><path style="-inkscape-stroke:none" d="M2.612 6.048a.333.333 0 00-.256.008.333.333 0 00-.165.44L3.49 9.36a.333.333 0 00.44.165.333.333 0 00.164-.44L2.798 6.223a.333.333 0 00-.186-.175zM4.73 2.785L2.518 4.999a.333.333 0 000 .47.333.333 0 00.47 0L5.2 3.256a.333.333 0 000-.472.333.333 0 00-.471 0z" fill="#3a4d5c"/><path style="-inkscape-stroke:none" d="M4.73 2.785l-.99.99.235.706 1.227-1.224z" fill="#143441"/><path style="-inkscape-stroke:none" d="M5.418 2.36a.333.333 0 00-.342.078l-.693.693a.333.333 0 00-.079.342l.347 1.037a.333.333 0 00.079.13l.692.693a.333.333 0 00.472 0L7.278 3.95a.333.333 0 000-.472l-.693-.693a.333.333 0 00-.13-.079z" fill="#3a4d5c"/><path style="-inkscape-stroke:none" d="M4.413 2.134a.333.333 0 00-.236.098.333.333 0 000 .472l.553.553a.333.333 0 00.471 0 .333.333 0 000-.472l-.555-.553a.333.333 0 00-.233-.098z" fill="#3a4d5c"/><path style="-inkscape-stroke:none" d="M18.36 14.284a.333.333 0 00-.298.283c-.072 1.043-.454 2.14-.425 3.165l.842 2.209.683-4.097-.456-1.336a.333.333 0 00-.347-.224z" fill="#603c39"/><path style="-inkscape-stroke:none" d="M15.295 8.046l-.27 1.078h2.516l-.27-1.078z" fill="#143441"/><path style="-inkscape-stroke:none" d="M11.956 1.136c-.548 0-1 .45-1 .998V7.46c0 .547.452.997 1 .997h8.654c.548 0 .998-.45.998-.997V2.134c0-.548-.45-.998-.998-.998z" fill="#a7e3fa"/><path style="-inkscape-stroke:none" d="M10.956 6.46v.666h10.651v-.665z" fill="#ececec"/><path style="-inkscape-stroke:none" d="M16.283 2.856a.333.333 0 00-.236.099l-.94.94a.333.333 0 000 .472.333.333 0 00.471 0l.94-.941a.333.333 0 000-.471.333.333 0 00-.235-.099zm.941.942a.333.333 0 00-.236.097l-.941.942a.333.333 0 000 .472.333.333 0 00.472 0l.941-.942a.333.333 0 000-.472.333.333 0 00-.236-.097z" fill="#87d1ee"/><path style="-inkscape-stroke:none" d="M9.246 8.291a.333.333 0 00-.334.335.333.333 0 00.334.331h.712c.28 0 .5.222.5.502a.333.333 0 00.333.331.333.333 0 00.332-.331c0-.64-.525-1.168-1.165-1.168zM8.606 4.464a.333.333 0 00-.164.056.333.333 0 00-.093.462c.138.207.144.3.135.363-.008.064-.052.14-.135.265-.083.125-.205.3-.238.548-.033.249.043.53.238.822a.333.333 0 00.462.093.333.333 0 00.093-.462c-.138-.207-.144-.302-.135-.366.008-.064.052-.139.135-.263.083-.125.208-.3.241-.548.033-.249-.046-.529-.241-.82a.333.333 0 00-.211-.143.333.333 0 00-.087-.007zm-1.12.593a.333.333 0 00-.333.288c-.009.064-.05.14-.134.265-.083.125-.207.3-.24.548-.033.249.045.53.24.822a.333.333 0 00.46.093.333.333 0 00.094-.462c-.138-.207-.144-.303-.136-.367.009-.064.052-.138.136-.262.083-.125.207-.3.24-.548a.333.333 0 00-.287-.374.333.333 0 00-.04-.003z" fill="#ccc"/><path style="-inkscape-stroke:none" d="M2.51 6.026a.333.333 0 00-.154.03.333.333 0 00-.164.44l.386.854c.225-.066.419-.21.55-.4l-.33-.727a.333.333 0 00-.186-.175.333.333 0 00-.103-.022z" fill="#143441"/><path style="-inkscape-stroke:none" d="M2.302 4.726c-.548 0-.998.45-.998.998 0 .547.45 1 .998 1 .547 0 1-.453 1-1 0-.548-.453-.998-1-.998z" fill="#3a4d5c"/><path style="-inkscape-stroke:none" d="M3.4 8.888c-.478 0-.89.309-1.049.736a1.1 1.1 0 01.383-.07h.782c.612 0 1.118.506 1.118 1.118v.45h.332a.333.333 0 00.334-.334v-.782c0-.612-.506-1.118-1.118-1.118z" fill="#143441"/><path style="-inkscape-stroke:none" d="M9.246 8.291a.333.333 0 00-.334.335.333.333 0 00.334.331h.713a.5.5 0 01.284.088v-.718a1.149 1.149 0 00-.284-.036z" fill="#bfbfbf"/><path style="-inkscape-stroke:none" d="M6.678 7.626a.333.333 0 00-.334.334v.666c0-.185.15-.335.334-.335h1.516a.718.718 0 01.718.718v1.779a.333.333 0 01-.332.334h.666c.184 0 .332-.15.332-.334V7.96a.331.331 0 00-.332-.334H6.678z" fill="#ccc"/><path style="-inkscape-stroke:none" d="M3.968 12.786a.333.333 0 00-.33.388l1.332 7.988a.333.333 0 00.33.277h1.329a.333.333 0 00.33-.385l-1.333-7.99a.333.333 0 00-.326-.278zm13.313 0a.333.333 0 00-.327.277l-1.332 7.99a.333.333 0 00.327.386h1.332a.333.333 0 00.329-.277l1.332-7.988a.333.333 0 00-.33-.388z" fill="#9a605c"/><path style="-inkscape-stroke:none" d="M3.968 12.786a.333.333 0 00-.33.388l.158.943h2.006l-.176-1.054a.333.333 0 00-.326-.277zm13.313 0a.333.333 0 00-.327.277l-.176 1.054h2.007l.157-.943a.333.333 0 00-.33-.388z" fill="#603c39"/><path style="-inkscape-stroke:none" d="M1.97 10.456c-.547 0-1 .45-1 .998v1c0 .547.453.997 1 .997h18.64c.548 0 .998-.45.998-.997v-1c0-.548-.45-.998-.998-.998z" fill="#734845"/><path style="-inkscape-stroke:none" d="M5.314 2.342a.333.333 0 00-.238.096l-.022.023.735.245a.333.333 0 01.13.079l.693.693c.13.13.13.341 0 .471L5.326 5.236l.097.097c.13.13.34.13.471 0l1.383-1.384a.333.333 0 000-.471l-.693-.693a.333.333 0 00-.13-.079L5.417 2.36zM1.348 5.435a1.004 1.004 0 011.289.954c0 .101-.017.199-.045.29.408-.125.71-.509.71-.955 0-.548-.452-.998-1-.998-.475-.005-.868.377-.954.709z" fill="#143441"/><path style="-inkscape-stroke:none" d="M11.956 1.136c-.447 0-.831.3-.957.71 2.939-.111 5.976 0 8.945 0 .548 0 .998.406.998.953 0 1.706-.043 5.616-.043 5.616.194-.046.714-.366.708-.954V2.134c0-.548-.45-.998-.997-.998z" fill="#87d1ee"/><path style="-inkscape-stroke:none" d="M1.97 10.456c-.447 0-.831.3-.956.71a.988.988 0 01.29-.044h18.64c.548 0 .998.45.998.997v1c0 .1-.015.198-.043.289.408-.125.708-.507.708-.954v-1c0-.548-.45-.998-.997-.998z" fill="#603c39"/><path style="-inkscape-stroke:none" d="M9.292 14.117c-.436-.019-.767.363-.818.666h4.148c.456 0 .83.377.83.833v.816c.406-.087.666-.37.666-.816v-.666a.836.836 0 00-.83-.833z" fill="#e5c478"/></g></svg></svg>